G04*
G04 #@! TF.GenerationSoftware,Altium Limited,Altium Designer,25.0.2 (28)*
G04*
G04 Layer_Color=32896*
%FSLAX24Y24*%
%MOIN*%
G70*
G04*
G04 #@! TF.SameCoordinates,1A86E40C-C96F-40CC-892B-A9B6597BB8DF*
G04*
G04*
G04 #@! TF.FilePolarity,Positive*
G04*
G01*
G75*
%ADD12C,0.0079*%
%ADD76C,0.0157*%
G36*
X3518Y17618D02*
X2989Y17616D01*
X2988Y17609D01*
X2997Y17593D01*
X3047Y17496D01*
X3057Y17493D01*
X3617Y17491D01*
X3622Y17489D01*
X3637Y17486D01*
X3649Y17481D01*
X3665Y17473D01*
X3668Y17469D01*
X3681Y17462D01*
X3685Y17458D01*
X3688Y17456D01*
X3713Y17432D01*
X3715Y17428D01*
X3720Y17423D01*
X3722Y17419D01*
X3731Y17406D01*
X3741Y17390D01*
X3755Y17358D01*
X3761Y17346D01*
X3774Y17305D01*
X3776Y17293D01*
X3779Y17285D01*
X3781Y17278D01*
X3784Y17260D01*
X3787Y17239D01*
X3790Y17214D01*
X3792Y17206D01*
X3790Y17051D01*
X3788Y17045D01*
X3785Y17026D01*
X3784Y17015D01*
X3782Y17006D01*
X3779Y16989D01*
X3775Y16979D01*
X3771Y16960D01*
X3768Y16952D01*
X3760Y16929D01*
X3753Y16911D01*
X3748Y16901D01*
X3735Y16877D01*
X3723Y16859D01*
X3716Y16848D01*
X3711Y16844D01*
X3709Y16840D01*
X3688Y16819D01*
X3685Y16817D01*
X3681Y16814D01*
X3677Y16812D01*
X3674Y16808D01*
X3661Y16801D01*
X3641Y16792D01*
X3631Y16789D01*
X3622Y16786D01*
X3597Y16783D01*
X3018Y16781D01*
X3015Y16772D01*
X3017Y16661D01*
X3027Y16658D01*
X3632Y16660D01*
X3637Y16662D01*
X3650Y16665D01*
X3671Y16670D01*
X3678Y16672D01*
X3688Y16676D01*
X3700Y16681D01*
X3720Y16690D01*
X3723Y16693D01*
X3747Y16706D01*
X3753Y16711D01*
X3756Y16713D01*
X3766Y16721D01*
X3773Y16726D01*
X3799Y16752D01*
X3801Y16756D01*
X3810Y16765D01*
X3812Y16769D01*
X3816Y16772D01*
X3818Y16776D01*
X3827Y16789D01*
X3828Y16793D01*
X3836Y16804D01*
X3838Y16807D01*
X3843Y16816D01*
X3861Y16855D01*
X3875Y16891D01*
X3878Y16901D01*
X3882Y16915D01*
X3887Y16934D01*
X3889Y16941D01*
X3891Y16952D01*
X3894Y16961D01*
X3897Y16984D01*
X3899Y16993D01*
X3902Y17018D01*
X3904Y17025D01*
X3905Y17049D01*
X3907Y17100D01*
X3909Y17130D01*
X3906Y17211D01*
X3904Y17242D01*
X3900Y17280D01*
X3898Y17287D01*
X3894Y17313D01*
X3889Y17333D01*
X3886Y17347D01*
X3882Y17362D01*
X3878Y17375D01*
X3875Y17385D01*
X3871Y17395D01*
X3868Y17405D01*
X3863Y17415D01*
X3858Y17430D01*
X3838Y17468D01*
X3830Y17481D01*
X3821Y17494D01*
X3819Y17498D01*
X3811Y17508D01*
X3807Y17514D01*
X3799Y17521D01*
X3797Y17525D01*
X3790Y17532D01*
X3788Y17536D01*
X3782Y17541D01*
X3769Y17553D01*
X3765Y17555D01*
X3758Y17563D01*
X3754Y17564D01*
X3742Y17574D01*
X3738Y17575D01*
X3734Y17579D01*
X3696Y17597D01*
X3673Y17606D01*
X3663Y17608D01*
X3649Y17611D01*
X3639Y17614D01*
X3626Y17616D01*
X3569Y17618D01*
X3520D01*
X3518D01*
D02*
G37*
G36*
X4212Y17493D02*
X4646Y17491D01*
X4655Y17488D01*
X4667Y17485D01*
X4676Y17481D01*
X4692Y17473D01*
X4705Y17464D01*
X4708Y17462D01*
X4712Y17458D01*
X4716Y17456D01*
X4740Y17432D01*
X4742Y17428D01*
X4748Y17423D01*
X4750Y17419D01*
X4753Y17415D01*
X4755Y17412D01*
X4768Y17391D01*
X4770Y17386D01*
X4784Y17355D01*
X4792Y17336D01*
X4794Y17329D01*
X4798Y17317D01*
X4801Y17307D01*
X4803Y17296D01*
X4804Y17291D01*
X4810Y17269D01*
X4812Y17256D01*
X4814Y17239D01*
X4815Y17234D01*
X4817Y17221D01*
X4819Y17192D01*
X4821Y17119D01*
X4819Y17100D01*
X4817Y17049D01*
X4815Y17043D01*
X4812Y17022D01*
X4809Y17002D01*
X4805Y16988D01*
X4803Y16978D01*
X4801Y16970D01*
X4798Y16958D01*
X4794Y16946D01*
X4791Y16936D01*
X4786Y16926D01*
X4782Y16914D01*
X4777Y16904D01*
X4761Y16873D01*
X4742Y16848D01*
X4739Y16844D01*
X4737Y16840D01*
X4714Y16817D01*
X4710Y16816D01*
X4707Y16812D01*
X4703Y16810D01*
X4685Y16799D01*
X4668Y16792D01*
X4661Y16790D01*
X4652Y16786D01*
X4626Y16783D01*
X4045Y16781D01*
X4043Y16772D01*
X4045Y16663D01*
X4049Y16658D01*
X4659Y16660D01*
X4664Y16662D01*
X4677Y16665D01*
X4698Y16670D01*
X4706Y16672D01*
X4716Y16676D01*
X4728Y16681D01*
X4748Y16690D01*
X4750Y16693D01*
X4774Y16706D01*
X4780Y16711D01*
X4783Y16713D01*
X4794Y16721D01*
X4800Y16726D01*
X4830Y16756D01*
X4832Y16760D01*
X4837Y16765D01*
X4839Y16769D01*
X4845Y16774D01*
X4847Y16778D01*
X4856Y16791D01*
X4858Y16794D01*
X4865Y16805D01*
X4891Y16859D01*
X4895Y16870D01*
X4898Y16879D01*
X4904Y16896D01*
X4907Y16906D01*
X4911Y16921D01*
X4914Y16930D01*
X4917Y16946D01*
X4921Y16960D01*
X4924Y16978D01*
X4926Y16995D01*
X4928Y17010D01*
X4932Y17028D01*
X4934Y17066D01*
X4935Y17099D01*
X4936Y17177D01*
X4934Y17183D01*
X4932Y17248D01*
X4928Y17266D01*
X4924Y17295D01*
X4919Y17323D01*
X4917Y17330D01*
X4913Y17348D01*
X4909Y17360D01*
X4906Y17372D01*
X4893Y17409D01*
X4891Y17417D01*
X4881Y17437D01*
X4865Y17468D01*
X4858Y17481D01*
X4848Y17494D01*
X4847Y17498D01*
X4838Y17508D01*
X4834Y17514D01*
X4830Y17518D01*
X4828Y17521D01*
X4819Y17531D01*
X4817Y17534D01*
X4815Y17537D01*
X4811Y17539D01*
X4806Y17545D01*
X4800Y17550D01*
X4796Y17553D01*
X4793Y17555D01*
X4785Y17563D01*
X4782Y17564D01*
X4769Y17574D01*
X4765Y17575D01*
X4761Y17579D01*
X4719Y17599D01*
X4709Y17602D01*
X4700Y17606D01*
X4690Y17608D01*
X4676Y17611D01*
X4666Y17614D01*
X4653Y17616D01*
X4597Y17618D01*
X4016Y17616D01*
X4015Y17609D01*
X4021Y17600D01*
X4074Y17496D01*
X4084Y17493D01*
X4210D01*
X4212D01*
D02*
G37*
G36*
X5979Y17271D02*
X5963Y17264D01*
X5950Y17259D01*
X5943Y17257D01*
X5925Y17250D01*
X5915Y17248D01*
X5908Y17246D01*
X5899Y17242D01*
X5877Y17237D01*
X5867Y17233D01*
X5853Y17229D01*
X5843Y17227D01*
X5834Y17224D01*
X5813Y17219D01*
X5806Y17217D01*
X5791Y17213D01*
X5780Y17211D01*
X5770Y17207D01*
X5763Y17206D01*
X5749Y17203D01*
X5735Y17199D01*
X5725Y17196D01*
X5717Y17195D01*
X5706Y17193D01*
X5697Y17189D01*
X5690Y17187D01*
X5679Y17185D01*
X5673Y17184D01*
X5655Y17178D01*
X5648Y17176D01*
X5639Y17174D01*
X5629Y17171D01*
X5622Y17169D01*
X5612Y17166D01*
X5591Y17160D01*
X5584Y17158D01*
X5571Y17152D01*
X5559Y17150D01*
X5549Y17145D01*
X5526Y17137D01*
X5518Y17134D01*
X5501Y17127D01*
X5487Y17121D01*
X5433Y17094D01*
X5430Y17090D01*
X5417Y17083D01*
X5394Y17065D01*
X5391Y17063D01*
X5388Y17061D01*
X5361Y17034D01*
X5359Y17031D01*
X5354Y17025D01*
X5352Y17022D01*
X5348Y17018D01*
X5347Y17014D01*
X5339Y17003D01*
X5328Y16979D01*
X5323Y16967D01*
X5321Y16959D01*
X5318Y16944D01*
X5315Y16919D01*
X5317Y16873D01*
X5319Y16868D01*
X5322Y16850D01*
X5324Y16843D01*
X5333Y16819D01*
X5350Y16787D01*
X5354Y16783D01*
X5356Y16780D01*
X5364Y16770D01*
X5368Y16764D01*
X5371Y16762D01*
X5376Y16756D01*
X5393Y16739D01*
X5397Y16737D01*
X5402Y16731D01*
X5406Y16729D01*
X5430Y16713D01*
X5443Y16706D01*
X5466Y16695D01*
X5483Y16687D01*
X5500Y16681D01*
X5509Y16678D01*
X5516Y16676D01*
X5525Y16673D01*
X5538Y16669D01*
X5545Y16667D01*
X5564Y16663D01*
X5574Y16660D01*
X5594Y16657D01*
X5608Y16653D01*
X5650Y16649D01*
X5668Y16647D01*
X5675Y16645D01*
X5679Y16642D01*
X5902Y16643D01*
X5911Y16647D01*
X5945Y16650D01*
X5960Y16652D01*
X5976Y16653D01*
X5986Y16655D01*
X5993Y16657D01*
X6018Y16660D01*
X6036Y16665D01*
X6053Y16668D01*
X6072Y16672D01*
X6082Y16675D01*
X6089Y16676D01*
X6101Y16679D01*
X6116Y16684D01*
X6124Y16686D01*
X6134Y16688D01*
X6155Y16695D01*
X6165Y16697D01*
X6177Y16702D01*
X6187Y16705D01*
X6196Y16708D01*
X6200Y16712D01*
X6201Y16717D01*
X6197Y16726D01*
X6191Y16738D01*
X6154Y16809D01*
X6142Y16810D01*
X6137Y16808D01*
X6107Y16799D01*
X6096Y16797D01*
X6087Y16794D01*
X6080Y16792D01*
X6061Y16787D01*
X6046Y16783D01*
X6037Y16782D01*
X6022Y16780D01*
X6015Y16778D01*
X6005Y16775D01*
X5992Y16773D01*
X5965Y16769D01*
X5936Y16765D01*
X5920Y16763D01*
X5898Y16761D01*
X5881Y16760D01*
X5872Y16758D01*
X5837Y16756D01*
X5730Y16755D01*
X5725Y16757D01*
X5684Y16759D01*
X5679Y16761D01*
X5634Y16765D01*
X5610Y16769D01*
X5600Y16772D01*
X5593Y16773D01*
X5582Y16775D01*
X5573Y16779D01*
X5565Y16781D01*
X5555Y16783D01*
X5546Y16787D01*
X5534Y16792D01*
X5518Y16799D01*
X5509Y16805D01*
X5496Y16812D01*
X5492Y16816D01*
X5488Y16817D01*
X5483Y16823D01*
X5479Y16825D01*
X5466Y16838D01*
X5464Y16842D01*
X5460Y16846D01*
X5458Y16849D01*
X5451Y16866D01*
X5445Y16884D01*
X5444Y16897D01*
X5445Y16926D01*
X5451Y16939D01*
X5460Y16956D01*
X5468Y16966D01*
X5471Y16968D01*
X5473Y16972D01*
X5477Y16977D01*
X5481Y16978D01*
X5488Y16986D01*
X5492Y16988D01*
X5498Y16993D01*
X5507Y16999D01*
X5520Y17006D01*
X5565Y17028D01*
X5583Y17034D01*
X5591Y17037D01*
X5603Y17042D01*
X5613Y17044D01*
X5620Y17046D01*
X5638Y17053D01*
X5645Y17054D01*
X5654Y17056D01*
X5663Y17060D01*
X5673Y17063D01*
X5684Y17065D01*
X5694Y17068D01*
X5704Y17071D01*
X5722Y17075D01*
X5737Y17079D01*
X5757Y17084D01*
X5779Y17089D01*
X5790Y17091D01*
X5797Y17093D01*
X5813Y17098D01*
X5828Y17100D01*
X5844Y17105D01*
X5856Y17108D01*
X5865Y17109D01*
X5872Y17111D01*
X5880Y17114D01*
X5888Y17116D01*
X5900Y17119D01*
X5911Y17123D01*
X5923Y17126D01*
X5931Y17128D01*
X5952Y17134D01*
X5959Y17136D01*
X5972Y17141D01*
X5982Y17144D01*
X5997Y17150D01*
X6007Y17152D01*
X6023Y17160D01*
X6030Y17162D01*
X6051Y17171D01*
X6096Y17195D01*
X6119Y17210D01*
X6130Y17217D01*
X6137Y17224D01*
X6140Y17226D01*
X6165Y17250D01*
X6167Y17254D01*
X6172Y17260D01*
X6174Y17263D01*
X6180Y17269D01*
X6187Y17282D01*
X6200Y17309D01*
X6204Y17321D01*
X6206Y17332D01*
X6208Y17341D01*
X6210Y17370D01*
X6211Y17375D01*
X6209Y17380D01*
X6207Y17417D01*
X6205Y17423D01*
X6203Y17433D01*
X6200Y17441D01*
X6195Y17453D01*
X6186Y17473D01*
X6183Y17476D01*
X6176Y17488D01*
X6163Y17505D01*
X6155Y17515D01*
X6138Y17531D01*
X6135Y17533D01*
X6131Y17537D01*
X6127Y17539D01*
X6122Y17544D01*
X6118Y17546D01*
X6105Y17555D01*
X6093Y17563D01*
X6054Y17581D01*
X6037Y17587D01*
X6029Y17590D01*
X6021Y17592D01*
X6008Y17597D01*
X5995Y17600D01*
X5973Y17606D01*
X5963Y17608D01*
X5945Y17611D01*
X5938Y17613D01*
X5929Y17615D01*
X5910Y17617D01*
X5886Y17619D01*
X5867Y17621D01*
X5820Y17625D01*
X5769Y17627D01*
X5709Y17624D01*
X5687Y17622D01*
X5667Y17620D01*
X5649Y17618D01*
X5624Y17616D01*
X5603Y17613D01*
X5596Y17611D01*
X5586Y17609D01*
X5570Y17607D01*
X5555Y17604D01*
X5546Y17602D01*
X5513Y17596D01*
X5498Y17592D01*
X5490Y17590D01*
X5477Y17587D01*
X5468Y17585D01*
X5447Y17580D01*
X5438Y17578D01*
X5422Y17574D01*
X5411Y17571D01*
X5401Y17567D01*
X5396Y17564D01*
X5398Y17554D01*
X5444Y17465D01*
X5446Y17462D01*
X5459Y17464D01*
X5465Y17466D01*
X5479Y17469D01*
X5499Y17475D01*
X5507Y17477D01*
X5521Y17478D01*
X5531Y17482D01*
X5548Y17485D01*
X5557Y17487D01*
X5572Y17488D01*
X5579Y17490D01*
X5589Y17493D01*
X5614Y17496D01*
X5621Y17498D01*
X5630Y17499D01*
X5688Y17506D01*
X5715Y17509D01*
X5726Y17510D01*
X5844Y17511D01*
X5849Y17509D01*
X5872Y17507D01*
X5890Y17505D01*
X5936Y17498D01*
X5946Y17495D01*
X5960Y17492D01*
X5986Y17484D01*
X5996Y17480D01*
X6008Y17475D01*
X6029Y17464D01*
X6051Y17446D01*
X6066Y17432D01*
X6068Y17428D01*
X6075Y17417D01*
X6079Y17402D01*
X6083Y17393D01*
X6084Y17380D01*
X6083Y17358D01*
X6077Y17346D01*
X6070Y17333D01*
X6062Y17323D01*
X6047Y17308D01*
X6043Y17306D01*
X6038Y17301D01*
X6029Y17295D01*
X6012Y17286D01*
X5985Y17273D01*
X5981Y17271D01*
X5979D01*
D02*
G37*
G36*
X6757Y16642D02*
X6946Y16643D01*
X6950Y16647D01*
X6982Y16650D01*
X7006Y16653D01*
X7014Y16654D01*
X7024Y16657D01*
X7035Y16659D01*
X7044Y16661D01*
X7060Y16665D01*
X7067Y16667D01*
X7079Y16670D01*
X7093Y16675D01*
X7101Y16677D01*
X7110Y16681D01*
X7118Y16684D01*
X7130Y16688D01*
X7164Y16704D01*
X7168Y16706D01*
X7179Y16713D01*
X7195Y16722D01*
X7208Y16731D01*
X7211Y16733D01*
X7215Y16737D01*
X7219Y16739D01*
X7226Y16746D01*
X7230Y16748D01*
X7237Y16755D01*
X7241Y16757D01*
X7255Y16771D01*
X7256Y16774D01*
X7267Y16785D01*
X7269Y16789D01*
X7273Y16793D01*
X7275Y16796D01*
X7278Y16800D01*
X7284Y16809D01*
X7291Y16820D01*
X7308Y16855D01*
X7309Y16862D01*
X7315Y16875D01*
X7318Y16887D01*
X7320Y16895D01*
X7322Y16908D01*
X7324Y16915D01*
X7326Y16934D01*
X7328Y16979D01*
X7326Y17606D01*
X7323Y17608D01*
X7206Y17607D01*
X7203Y17604D01*
X7201Y16932D01*
X7200Y16926D01*
X7198Y16917D01*
X7192Y16904D01*
X7178Y16877D01*
X7165Y16860D01*
X7159Y16855D01*
X7157Y16851D01*
X7153Y16847D01*
X7149Y16845D01*
X7138Y16834D01*
X7135Y16832D01*
X7131Y16828D01*
X7127Y16826D01*
X7114Y16817D01*
X7091Y16805D01*
X7078Y16799D01*
X7061Y16792D01*
X7038Y16783D01*
X7026Y16780D01*
X7016Y16776D01*
X7009Y16774D01*
X6998Y16772D01*
X6983Y16768D01*
X6965Y16765D01*
X6941Y16762D01*
X6918Y16760D01*
X6908Y16758D01*
X6855Y16756D01*
X6843Y16755D01*
X6838Y16757D01*
X6779Y16759D01*
X6774Y16761D01*
X6731Y16765D01*
X6720Y16767D01*
X6711Y16769D01*
X6703Y16771D01*
X6693Y16773D01*
X6682Y16775D01*
X6673Y16779D01*
X6666Y16781D01*
X6643Y16789D01*
X6628Y16794D01*
X6618Y16799D01*
X6609Y16803D01*
X6589Y16814D01*
X6572Y16826D01*
X6561Y16833D01*
X6558Y16836D01*
X6554Y16837D01*
X6547Y16845D01*
X6543Y16847D01*
X6539Y16853D01*
X6526Y16866D01*
X6524Y16870D01*
X6515Y16882D01*
X6506Y16902D01*
X6500Y16915D01*
X6498Y16923D01*
X6496Y16935D01*
X6494Y16944D01*
X6492Y17605D01*
X6488Y17608D01*
X6371Y17607D01*
X6368Y17604D01*
X6370Y16934D01*
X6372Y16928D01*
X6375Y16903D01*
X6378Y16885D01*
X6382Y16876D01*
X6384Y16869D01*
X6388Y16859D01*
X6392Y16848D01*
X6410Y16813D01*
X6420Y16800D01*
X6421Y16796D01*
X6425Y16793D01*
X6427Y16789D01*
X6435Y16779D01*
X6466Y16748D01*
X6470Y16746D01*
X6477Y16739D01*
X6481Y16737D01*
X6485Y16733D01*
X6488Y16731D01*
X6507Y16718D01*
X6510Y16717D01*
X6523Y16709D01*
X6572Y16686D01*
X6580Y16684D01*
X6593Y16678D01*
X6600Y16676D01*
X6609Y16673D01*
X6622Y16669D01*
X6629Y16667D01*
X6641Y16664D01*
X6653Y16660D01*
X6671Y16658D01*
X6680Y16654D01*
X6693Y16653D01*
X6724Y16649D01*
X6743Y16647D01*
X6749Y16644D01*
X6750Y16642D01*
X6756D01*
X6757D01*
D02*
G37*
G36*
X8027Y16868D02*
X8029Y17488D01*
X8032Y17491D01*
X8039Y17493D01*
X8372Y17492D01*
X8379Y17494D01*
X8384Y17498D01*
X8436Y17602D01*
X8434Y17607D01*
X7497Y17608D01*
X7493Y17604D01*
X7548Y17496D01*
X7556Y17493D01*
X7898Y17491D01*
X7903Y17487D01*
X7905Y16661D01*
X7913Y16658D01*
X7924Y16660D01*
X7929Y16658D01*
X8005Y16659D01*
X8010Y16658D01*
X8014Y16660D01*
X8017Y16658D01*
X8025Y16661D01*
X8027Y16668D01*
Y16866D01*
Y16868D01*
D02*
G37*
G36*
X9326Y16950D02*
X9327Y16663D01*
X9330Y16660D01*
X9341Y16658D01*
X9347Y16660D01*
X9352Y16658D01*
X9428Y16659D01*
X9440Y16658D01*
X9445Y16660D01*
X9449Y16662D01*
X9450Y17130D01*
X9447Y17132D01*
X9440Y17134D01*
X8878Y17136D01*
X8872Y17138D01*
X8840Y17141D01*
X8815Y17142D01*
X8793Y17146D01*
X8778Y17150D01*
X8760Y17153D01*
X8750Y17158D01*
X8742Y17160D01*
X8730Y17165D01*
X8702Y17180D01*
X8697Y17185D01*
X8693Y17187D01*
X8677Y17203D01*
X8675Y17206D01*
X8668Y17217D01*
X8661Y17234D01*
X8659Y17241D01*
X8655Y17250D01*
X8652Y17265D01*
X8649Y17293D01*
X8648Y17331D01*
X8650Y17336D01*
X8653Y17363D01*
X8654Y17370D01*
X8659Y17386D01*
X8664Y17398D01*
X8668Y17406D01*
X8674Y17415D01*
X8682Y17425D01*
X8698Y17442D01*
X8702Y17444D01*
X8706Y17447D01*
X8744Y17466D01*
X8759Y17469D01*
X8771Y17474D01*
X8778Y17476D01*
X8798Y17479D01*
X8807Y17481D01*
X8832Y17484D01*
X8860Y17487D01*
X8908Y17488D01*
X8948Y17490D01*
X9419Y17492D01*
X9424Y17496D01*
X9476Y17596D01*
X9478Y17602D01*
X9476Y17607D01*
X8871Y17608D01*
X8865Y17607D01*
X8837Y17604D01*
X8820Y17602D01*
X8806Y17600D01*
X8781Y17597D01*
X8773Y17596D01*
X8761Y17592D01*
X8753Y17590D01*
X8742Y17588D01*
X8733Y17585D01*
X8721Y17582D01*
X8714Y17580D01*
X8705Y17576D01*
X8697Y17574D01*
X8687Y17570D01*
X8675Y17564D01*
X8640Y17546D01*
X8627Y17537D01*
X8623Y17535D01*
X8607Y17522D01*
X8598Y17513D01*
X8594Y17511D01*
X8591Y17509D01*
X8589Y17505D01*
X8575Y17490D01*
X8573Y17487D01*
X8556Y17463D01*
X8545Y17439D01*
X8538Y17423D01*
X8535Y17411D01*
X8533Y17401D01*
X8527Y17379D01*
X8524Y17354D01*
X8523Y17343D01*
X8522Y17287D01*
X8524Y17282D01*
X8525Y17260D01*
X8527Y17254D01*
X8529Y17234D01*
X8531Y17228D01*
X8536Y17210D01*
X8538Y17203D01*
X8545Y17186D01*
X8547Y17179D01*
X8555Y17168D01*
X8566Y17148D01*
X8578Y17131D01*
X8582Y17128D01*
X8584Y17124D01*
X8603Y17105D01*
X8607Y17103D01*
X8614Y17096D01*
X8618Y17094D01*
X8621Y17090D01*
X8625Y17088D01*
X8629Y17085D01*
X8632Y17083D01*
X8647Y17074D01*
X8686Y17055D01*
X8697Y17051D01*
X8707Y17047D01*
X8710Y17045D01*
X8712Y17040D01*
X8525Y16664D01*
X8528Y16660D01*
X8541Y16658D01*
X8546Y16660D01*
X8554Y16658D01*
X8646Y16659D01*
X8654Y16658D01*
X8664Y16664D01*
X8666Y16666D01*
X8670Y16675D01*
X8822Y16981D01*
X8840Y17016D01*
X8843Y17019D01*
X8900Y17017D01*
X8905Y17015D01*
X9321Y17013D01*
X9326Y17009D01*
Y16952D01*
Y16950D01*
D02*
G37*
G36*
X9688Y17285D02*
X9690Y16663D01*
X9693Y16660D01*
X9711Y16658D01*
X9715Y16660D01*
X9720Y16658D01*
X9789Y16659D01*
X9793Y16658D01*
X9797Y16660D01*
X9803Y16658D01*
X9812Y16664D01*
X9813Y17604D01*
X9808Y17608D01*
X9691Y17607D01*
X9688Y17598D01*
Y17287D01*
Y17285D01*
D02*
G37*
G36*
X11297Y17711D02*
X11300Y17708D01*
X11298Y17701D01*
X11248Y17600D01*
X11242Y17596D01*
X11115Y17594D01*
X11113Y17596D01*
X11111Y17602D01*
X11142Y17666D01*
X11155Y17690D01*
X11157Y17697D01*
X11159Y17700D01*
X11160Y17701D01*
Y17703D01*
X11168Y17710D01*
X11287Y17712D01*
X11297Y17711D01*
D02*
G37*
G36*
X11983Y17943D02*
X11978Y17942D01*
X11805Y17596D01*
X11797Y17592D01*
X11669Y17593D01*
X11668Y17598D01*
X11680Y17626D01*
X11682Y17631D01*
X11683Y17632D01*
X11838Y17941D01*
X11840Y17950D01*
X11982Y17951D01*
X11983Y17943D01*
D02*
G37*
G36*
X11657Y17589D02*
X11658Y17586D01*
X11494Y17254D01*
X11492Y17249D01*
X11484Y17235D01*
X11483Y17234D01*
X11397Y17060D01*
X11199Y16663D01*
X11193Y16653D01*
X11191Y16642D01*
X11053Y16642D01*
X11052Y16646D01*
X11516Y17575D01*
X11519Y17584D01*
X11524Y17588D01*
X11527Y17590D01*
X11533Y17592D01*
X11539Y17591D01*
X11632Y17592D01*
X11637Y17590D01*
X11648Y17592D01*
X11657Y17589D01*
D02*
G37*
G36*
X11957Y17353D02*
X11959Y17347D01*
X11882Y17192D01*
X11881Y17191D01*
X11847Y17122D01*
X11835Y17116D01*
X11832Y17117D01*
X11711Y17119D01*
X11710Y17122D01*
X11823Y17351D01*
X11828Y17354D01*
X11957Y17353D01*
D02*
G37*
G36*
X11102Y17604D02*
X11096Y17595D01*
X10693Y16787D01*
X10637Y16672D01*
X10629Y16661D01*
X10619Y16658D01*
X10614Y16660D01*
X10608Y16658D01*
X10516Y16659D01*
X10500Y16658D01*
X10490Y16661D01*
X10430Y16780D01*
X10429Y16781D01*
X10289Y17062D01*
X10179Y17283D01*
X10172Y17296D01*
X10029Y17584D01*
X10020Y17600D01*
X10020Y17607D01*
X10152Y17608D01*
X10155Y17606D01*
X10540Y16838D01*
X10554Y16807D01*
X10559Y16805D01*
X10563Y16805D01*
X10673Y17023D01*
X10684Y17047D01*
X10787Y17250D01*
X10798Y17274D01*
X10898Y17474D01*
X10963Y17604D01*
X10965Y17607D01*
X11097Y17608D01*
X11102Y17604D01*
D02*
G37*
G36*
X11699Y17115D02*
X11701Y17109D01*
X11481Y16668D01*
X11473Y16653D01*
X11470Y16642D01*
X11407Y16642D01*
X11405D01*
X11331Y16642D01*
X11461Y16904D01*
X11545Y17075D01*
X11550Y17084D01*
X11552Y17091D01*
X11560Y17102D01*
X11561Y17109D01*
X11568Y17116D01*
X11699Y17115D01*
D02*
G37*
G36*
X11318Y17470D02*
X11320Y17466D01*
X11235Y17296D01*
X11231Y17286D01*
X11230Y17285D01*
X10990Y16805D01*
X10926Y16675D01*
X10921Y16667D01*
X10917Y16655D01*
X10913Y16652D01*
X10911Y16642D01*
X10773Y16642D01*
X10772Y16644D01*
X11182Y17466D01*
X11187Y17471D01*
X11318Y17470D01*
D02*
G37*
G36*
X10886Y5839D02*
X10905Y5837D01*
X10923Y5832D01*
X10937Y5828D01*
X10949Y5823D01*
X10957Y5818D01*
X10963Y5816D01*
X10964Y5815D01*
X10979Y5805D01*
X10992Y5793D01*
X11003Y5781D01*
X11012Y5770D01*
X11019Y5760D01*
X11025Y5752D01*
X11028Y5746D01*
X11029Y5746D01*
Y5745D01*
X11034Y5736D01*
X11038Y5726D01*
X11046Y5705D01*
X11054Y5682D01*
X11061Y5660D01*
X11064Y5650D01*
X11066Y5640D01*
X11069Y5631D01*
X11071Y5624D01*
X11073Y5617D01*
X11074Y5613D01*
X11075Y5609D01*
Y5608D01*
X11079Y5592D01*
X11083Y5577D01*
X11087Y5563D01*
X11090Y5551D01*
X11094Y5541D01*
X11097Y5531D01*
X11101Y5522D01*
X11104Y5515D01*
X11107Y5509D01*
X11109Y5504D01*
X11111Y5500D01*
X11113Y5497D01*
X11116Y5492D01*
X11117Y5491D01*
X11123Y5485D01*
X11129Y5480D01*
X11136Y5478D01*
X11142Y5476D01*
X11147Y5474D01*
X11151Y5473D01*
X11154D01*
X11155D01*
X11164Y5474D01*
X11171Y5476D01*
X11179Y5480D01*
X11184Y5483D01*
X11189Y5487D01*
X11191Y5491D01*
X11193Y5492D01*
X11194Y5493D01*
X11202Y5506D01*
X11208Y5520D01*
X11212Y5534D01*
X11215Y5548D01*
X11217Y5560D01*
X11218Y5570D01*
Y5579D01*
X11217Y5598D01*
X11214Y5614D01*
X11210Y5628D01*
X11207Y5639D01*
X11203Y5648D01*
X11199Y5654D01*
X11197Y5658D01*
X11196Y5659D01*
X11187Y5668D01*
X11176Y5676D01*
X11165Y5683D01*
X11153Y5687D01*
X11143Y5691D01*
X11135Y5693D01*
X11128Y5695D01*
X11128D01*
X11127D01*
X11131Y5822D01*
X11148Y5821D01*
X11162Y5818D01*
X11177Y5815D01*
X11189Y5810D01*
X11202Y5806D01*
X11214Y5800D01*
X11224Y5795D01*
X11234Y5789D01*
X11242Y5783D01*
X11250Y5777D01*
X11256Y5772D01*
X11261Y5767D01*
X11265Y5764D01*
X11268Y5761D01*
X11270Y5759D01*
X11271Y5758D01*
X11280Y5746D01*
X11288Y5734D01*
X11295Y5720D01*
X11302Y5706D01*
X11306Y5691D01*
X11311Y5676D01*
X11317Y5647D01*
X11319Y5634D01*
X11321Y5622D01*
X11322Y5610D01*
X11322Y5600D01*
X11323Y5592D01*
Y5581D01*
X11322Y5554D01*
X11320Y5531D01*
X11316Y5510D01*
X11312Y5491D01*
X11310Y5483D01*
X11308Y5476D01*
X11306Y5470D01*
X11304Y5465D01*
X11302Y5461D01*
X11302Y5459D01*
X11301Y5457D01*
Y5456D01*
X11292Y5438D01*
X11281Y5422D01*
X11271Y5409D01*
X11261Y5398D01*
X11251Y5388D01*
X11244Y5383D01*
X11239Y5378D01*
X11238Y5378D01*
X11237D01*
X11221Y5368D01*
X11205Y5362D01*
X11189Y5357D01*
X11176Y5355D01*
X11164Y5353D01*
X11155Y5351D01*
X11151D01*
X11148D01*
X11148D01*
X11147D01*
X11133Y5352D01*
X11119Y5354D01*
X11107Y5357D01*
X11096Y5360D01*
X11074Y5369D01*
X11055Y5380D01*
X11046Y5385D01*
X11040Y5390D01*
X11034Y5395D01*
X11028Y5399D01*
X11025Y5403D01*
X11022Y5406D01*
X11020Y5408D01*
X11019Y5409D01*
X11013Y5417D01*
X11006Y5427D01*
X11000Y5437D01*
X10995Y5449D01*
X10984Y5471D01*
X10974Y5495D01*
X10971Y5507D01*
X10967Y5517D01*
X10964Y5527D01*
X10962Y5535D01*
X10960Y5542D01*
X10958Y5547D01*
X10957Y5551D01*
Y5552D01*
X10954Y5566D01*
X10950Y5579D01*
X10947Y5591D01*
X10944Y5602D01*
X10942Y5611D01*
X10940Y5619D01*
X10937Y5626D01*
X10935Y5633D01*
X10934Y5638D01*
X10933Y5643D01*
X10931Y5649D01*
X10929Y5653D01*
Y5654D01*
X10924Y5665D01*
X10920Y5675D01*
X10915Y5683D01*
X10911Y5689D01*
X10907Y5694D01*
X10904Y5696D01*
X10903Y5698D01*
X10902Y5699D01*
X10895Y5704D01*
X10889Y5707D01*
X10882Y5709D01*
X10877Y5711D01*
X10872Y5712D01*
X10867Y5713D01*
X10864D01*
X10863D01*
X10851Y5712D01*
X10840Y5708D01*
X10829Y5703D01*
X10820Y5697D01*
X10812Y5691D01*
X10807Y5686D01*
X10803Y5683D01*
X10802Y5681D01*
X10794Y5668D01*
X10788Y5654D01*
X10783Y5638D01*
X10780Y5624D01*
X10779Y5610D01*
X10777Y5599D01*
Y5589D01*
X10778Y5568D01*
X10781Y5550D01*
X10786Y5534D01*
X10791Y5521D01*
X10797Y5510D01*
X10801Y5502D01*
X10805Y5498D01*
X10806Y5496D01*
X10819Y5484D01*
X10832Y5475D01*
X10848Y5467D01*
X10863Y5461D01*
X10877Y5457D01*
X10888Y5453D01*
X10892Y5452D01*
X10895D01*
X10897Y5451D01*
X10898D01*
X10886Y5327D01*
X10867Y5330D01*
X10849Y5334D01*
X10831Y5339D01*
X10816Y5344D01*
X10801Y5350D01*
X10788Y5357D01*
X10776Y5363D01*
X10765Y5369D01*
X10756Y5376D01*
X10748Y5382D01*
X10740Y5388D01*
X10734Y5393D01*
X10729Y5397D01*
X10727Y5400D01*
X10725Y5402D01*
X10724Y5403D01*
X10714Y5416D01*
X10706Y5429D01*
X10698Y5444D01*
X10692Y5460D01*
X10688Y5474D01*
X10683Y5490D01*
X10677Y5520D01*
X10674Y5533D01*
X10672Y5546D01*
X10671Y5557D01*
X10670Y5567D01*
X10669Y5575D01*
Y5587D01*
X10670Y5616D01*
X10673Y5643D01*
X10677Y5666D01*
X10678Y5676D01*
X10681Y5686D01*
X10683Y5695D01*
X10685Y5702D01*
X10687Y5708D01*
X10688Y5714D01*
X10690Y5718D01*
X10691Y5721D01*
X10692Y5723D01*
Y5724D01*
X10702Y5744D01*
X10713Y5760D01*
X10724Y5776D01*
X10736Y5788D01*
X10746Y5797D01*
X10755Y5804D01*
X10760Y5808D01*
X10761Y5809D01*
X10762D01*
X10780Y5819D01*
X10798Y5828D01*
X10815Y5833D01*
X10831Y5837D01*
X10844Y5839D01*
X10851Y5839D01*
X10855Y5840D01*
X10859D01*
X10862D01*
X10863D01*
X10864D01*
X10886Y5839D01*
D02*
G37*
G36*
X11312Y5150D02*
X11062Y5005D01*
X11312Y4856D01*
Y4708D01*
X10946Y4938D01*
X10681D01*
Y5066D01*
X10945D01*
X11312Y5296D01*
Y5150D01*
D02*
G37*
G36*
X10886Y4664D02*
X10905Y4661D01*
X10923Y4657D01*
X10937Y4652D01*
X10949Y4648D01*
X10957Y4643D01*
X10963Y4641D01*
X10964Y4640D01*
X10979Y4630D01*
X10992Y4618D01*
X11003Y4606D01*
X11012Y4595D01*
X11019Y4585D01*
X11025Y4577D01*
X11028Y4571D01*
X11029Y4570D01*
Y4569D01*
X11034Y4560D01*
X11038Y4551D01*
X11046Y4529D01*
X11054Y4507D01*
X11061Y4485D01*
X11064Y4475D01*
X11066Y4465D01*
X11069Y4456D01*
X11071Y4448D01*
X11073Y4442D01*
X11074Y4437D01*
X11075Y4434D01*
Y4433D01*
X11079Y4416D01*
X11083Y4402D01*
X11087Y4388D01*
X11090Y4375D01*
X11094Y4365D01*
X11097Y4355D01*
X11101Y4347D01*
X11104Y4340D01*
X11107Y4334D01*
X11109Y4329D01*
X11111Y4324D01*
X11113Y4322D01*
X11116Y4317D01*
X11117Y4316D01*
X11123Y4310D01*
X11129Y4305D01*
X11136Y4303D01*
X11142Y4301D01*
X11147Y4299D01*
X11151Y4298D01*
X11154D01*
X11155D01*
X11164Y4299D01*
X11171Y4301D01*
X11179Y4304D01*
X11184Y4308D01*
X11189Y4312D01*
X11191Y4315D01*
X11193Y4317D01*
X11194Y4318D01*
X11202Y4331D01*
X11208Y4344D01*
X11212Y4359D01*
X11215Y4373D01*
X11217Y4385D01*
X11218Y4395D01*
Y4404D01*
X11217Y4423D01*
X11214Y4439D01*
X11210Y4453D01*
X11207Y4464D01*
X11203Y4473D01*
X11199Y4479D01*
X11197Y4483D01*
X11196Y4484D01*
X11187Y4493D01*
X11176Y4501D01*
X11165Y4508D01*
X11153Y4512D01*
X11143Y4516D01*
X11135Y4518D01*
X11128Y4519D01*
X11128D01*
X11127D01*
X11131Y4647D01*
X11148Y4646D01*
X11162Y4643D01*
X11177Y4640D01*
X11189Y4635D01*
X11202Y4631D01*
X11214Y4625D01*
X11224Y4620D01*
X11234Y4614D01*
X11242Y4608D01*
X11250Y4602D01*
X11256Y4597D01*
X11261Y4592D01*
X11265Y4589D01*
X11268Y4586D01*
X11270Y4584D01*
X11271Y4583D01*
X11280Y4571D01*
X11288Y4559D01*
X11295Y4545D01*
X11302Y4530D01*
X11306Y4516D01*
X11311Y4501D01*
X11317Y4472D01*
X11319Y4458D01*
X11321Y4446D01*
X11322Y4435D01*
X11322Y4425D01*
X11323Y4416D01*
Y4406D01*
X11322Y4379D01*
X11320Y4355D01*
X11316Y4334D01*
X11312Y4316D01*
X11310Y4308D01*
X11308Y4301D01*
X11306Y4295D01*
X11304Y4290D01*
X11302Y4286D01*
X11302Y4283D01*
X11301Y4282D01*
Y4281D01*
X11292Y4262D01*
X11281Y4247D01*
X11271Y4233D01*
X11261Y4222D01*
X11251Y4213D01*
X11244Y4208D01*
X11239Y4203D01*
X11238Y4202D01*
X11237D01*
X11221Y4193D01*
X11205Y4187D01*
X11189Y4182D01*
X11176Y4180D01*
X11164Y4178D01*
X11155Y4176D01*
X11151D01*
X11148D01*
X11148D01*
X11147D01*
X11133Y4177D01*
X11119Y4179D01*
X11107Y4181D01*
X11096Y4185D01*
X11074Y4194D01*
X11055Y4205D01*
X11046Y4210D01*
X11040Y4215D01*
X11034Y4220D01*
X11028Y4224D01*
X11025Y4228D01*
X11022Y4231D01*
X11020Y4232D01*
X11019Y4233D01*
X11013Y4242D01*
X11006Y4252D01*
X11000Y4262D01*
X10995Y4273D01*
X10984Y4296D01*
X10974Y4320D01*
X10971Y4332D01*
X10967Y4342D01*
X10964Y4352D01*
X10962Y4360D01*
X10960Y4366D01*
X10958Y4372D01*
X10957Y4375D01*
Y4376D01*
X10954Y4391D01*
X10950Y4404D01*
X10947Y4416D01*
X10944Y4426D01*
X10942Y4436D01*
X10940Y4444D01*
X10937Y4451D01*
X10935Y4457D01*
X10934Y4463D01*
X10933Y4467D01*
X10931Y4474D01*
X10929Y4477D01*
Y4478D01*
X10924Y4490D01*
X10920Y4499D01*
X10915Y4508D01*
X10911Y4514D01*
X10907Y4518D01*
X10904Y4521D01*
X10903Y4523D01*
X10902Y4524D01*
X10895Y4528D01*
X10889Y4532D01*
X10882Y4534D01*
X10877Y4536D01*
X10872Y4537D01*
X10867Y4538D01*
X10864D01*
X10863D01*
X10851Y4537D01*
X10840Y4533D01*
X10829Y4528D01*
X10820Y4522D01*
X10812Y4516D01*
X10807Y4511D01*
X10803Y4508D01*
X10802Y4506D01*
X10794Y4493D01*
X10788Y4478D01*
X10783Y4463D01*
X10780Y4448D01*
X10779Y4435D01*
X10777Y4424D01*
Y4414D01*
X10778Y4393D01*
X10781Y4375D01*
X10786Y4359D01*
X10791Y4345D01*
X10797Y4334D01*
X10801Y4327D01*
X10805Y4323D01*
X10806Y4321D01*
X10819Y4309D01*
X10832Y4300D01*
X10848Y4292D01*
X10863Y4286D01*
X10877Y4282D01*
X10888Y4278D01*
X10892Y4277D01*
X10895D01*
X10897Y4276D01*
X10898D01*
X10886Y4152D01*
X10867Y4155D01*
X10849Y4159D01*
X10831Y4164D01*
X10816Y4169D01*
X10801Y4175D01*
X10788Y4181D01*
X10776Y4188D01*
X10765Y4194D01*
X10756Y4201D01*
X10748Y4207D01*
X10740Y4212D01*
X10734Y4218D01*
X10729Y4221D01*
X10727Y4225D01*
X10725Y4227D01*
X10724Y4228D01*
X10714Y4241D01*
X10706Y4254D01*
X10698Y4269D01*
X10692Y4284D01*
X10688Y4299D01*
X10683Y4314D01*
X10677Y4344D01*
X10674Y4358D01*
X10672Y4371D01*
X10671Y4382D01*
X10670Y4392D01*
X10669Y4400D01*
Y4412D01*
X10670Y4441D01*
X10673Y4467D01*
X10677Y4491D01*
X10678Y4501D01*
X10681Y4511D01*
X10683Y4519D01*
X10685Y4527D01*
X10687Y4533D01*
X10688Y4539D01*
X10690Y4543D01*
X10691Y4546D01*
X10692Y4548D01*
Y4549D01*
X10702Y4569D01*
X10713Y4585D01*
X10724Y4600D01*
X10736Y4612D01*
X10746Y4621D01*
X10755Y4629D01*
X10760Y4632D01*
X10761Y4634D01*
X10762D01*
X10780Y4644D01*
X10798Y4652D01*
X10815Y4658D01*
X10831Y4661D01*
X10844Y4663D01*
X10851Y4664D01*
X10855Y4665D01*
X10859D01*
X10862D01*
X10863D01*
X10864D01*
X10886Y4664D01*
D02*
G37*
G36*
X11312Y3986D02*
X10845Y3832D01*
X11312Y3671D01*
Y3534D01*
X10681Y3760D01*
Y3897D01*
X11312Y4121D01*
Y3986D01*
D02*
G37*
G36*
X5425Y5100D02*
X5436Y5098D01*
X5456Y5091D01*
X5473Y5083D01*
X5480Y5078D01*
X5488Y5073D01*
X5494Y5069D01*
X5499Y5065D01*
X5503Y5061D01*
X5507Y5058D01*
X5510Y5055D01*
X5513Y5053D01*
X5513Y5052D01*
X5514Y5051D01*
X5521Y5042D01*
X5526Y5033D01*
X5531Y5024D01*
X5535Y5014D01*
X5542Y4995D01*
X5547Y4977D01*
X5548Y4968D01*
X5549Y4961D01*
X5550Y4954D01*
X5550Y4948D01*
X5551Y4943D01*
Y4936D01*
X5550Y4920D01*
X5548Y4905D01*
X5545Y4891D01*
X5541Y4878D01*
X5536Y4866D01*
X5530Y4855D01*
X5524Y4844D01*
X5518Y4835D01*
X5512Y4827D01*
X5506Y4820D01*
X5500Y4813D01*
X5495Y4808D01*
X5491Y4804D01*
X5488Y4801D01*
X5486Y4800D01*
X5485Y4799D01*
X5475Y4793D01*
X5466Y4787D01*
X5456Y4783D01*
X5446Y4778D01*
X5427Y4772D01*
X5410Y4767D01*
X5402Y4766D01*
X5395Y4765D01*
X5389Y4764D01*
X5383D01*
X5378Y4763D01*
X5375D01*
X5373D01*
X5373D01*
X5359Y4764D01*
X5346Y4765D01*
X5333Y4767D01*
X5322Y4770D01*
X5311Y4773D01*
X5301Y4777D01*
X5292Y4781D01*
X5284Y4785D01*
X5276Y4790D01*
X5270Y4793D01*
X5264Y4798D01*
X5260Y4801D01*
X5256Y4804D01*
X5253Y4806D01*
X5252Y4807D01*
X5251Y4808D01*
X5243Y4817D01*
X5236Y4826D01*
X5229Y4835D01*
X5223Y4844D01*
X5219Y4853D01*
X5215Y4863D01*
X5209Y4879D01*
X5207Y4887D01*
X5206Y4895D01*
X5205Y4901D01*
X5204Y4906D01*
X5203Y4911D01*
Y4917D01*
X5204Y4930D01*
X5206Y4942D01*
X5209Y4953D01*
X5211Y4963D01*
X5215Y4971D01*
X5217Y4978D01*
X5219Y4982D01*
X5220Y4983D01*
Y4984D01*
X5134Y4968D01*
Y4785D01*
X5044D01*
Y5041D01*
X5307Y5091D01*
X5318Y5013D01*
X5311Y5006D01*
X5306Y5000D01*
X5300Y4993D01*
X5296Y4987D01*
X5289Y4974D01*
X5285Y4963D01*
X5283Y4952D01*
X5281Y4945D01*
X5281Y4942D01*
Y4938D01*
X5281Y4926D01*
X5284Y4915D01*
X5288Y4906D01*
X5292Y4898D01*
X5297Y4892D01*
X5301Y4887D01*
X5304Y4884D01*
X5305Y4883D01*
X5314Y4876D01*
X5325Y4871D01*
X5337Y4867D01*
X5349Y4865D01*
X5359Y4863D01*
X5367Y4862D01*
X5370D01*
X5373D01*
X5374D01*
X5375D01*
X5392Y4863D01*
X5408Y4865D01*
X5420Y4869D01*
X5430Y4872D01*
X5439Y4877D01*
X5445Y4879D01*
X5448Y4882D01*
X5449Y4883D01*
X5457Y4891D01*
X5464Y4900D01*
X5468Y4909D01*
X5471Y4917D01*
X5472Y4924D01*
X5473Y4930D01*
X5474Y4933D01*
Y4935D01*
X5473Y4944D01*
X5471Y4954D01*
X5468Y4962D01*
X5464Y4968D01*
X5461Y4974D01*
X5458Y4979D01*
X5456Y4982D01*
X5455Y4982D01*
X5447Y4989D01*
X5439Y4995D01*
X5430Y4999D01*
X5422Y5002D01*
X5415Y5004D01*
X5408Y5006D01*
X5405Y5006D01*
X5403D01*
X5413Y5103D01*
X5425Y5100D01*
D02*
G37*
G36*
X5542Y4561D02*
Y4451D01*
X5037Y4271D01*
Y4380D01*
X5410Y4503D01*
X5037Y4632D01*
Y4742D01*
X5542Y4561D01*
D02*
G37*
G36*
X5249Y10424D02*
X5238Y10400D01*
X5232Y10389D01*
X5225Y10379D01*
X5219Y10370D01*
X5214Y10361D01*
X5208Y10353D01*
X5203Y10346D01*
X5198Y10340D01*
X5194Y10335D01*
X5190Y10330D01*
X5188Y10327D01*
X5187Y10326D01*
X5186Y10325D01*
X5551D01*
Y10228D01*
X5044D01*
Y10307D01*
X5061Y10314D01*
X5076Y10324D01*
X5090Y10334D01*
X5102Y10344D01*
X5112Y10353D01*
X5119Y10361D01*
X5122Y10364D01*
X5124Y10366D01*
X5125Y10367D01*
X5125Y10368D01*
X5137Y10384D01*
X5147Y10400D01*
X5155Y10413D01*
X5161Y10426D01*
X5166Y10436D01*
X5169Y10443D01*
X5170Y10446D01*
X5171Y10448D01*
X5171Y10449D01*
Y10450D01*
X5259D01*
X5249Y10424D01*
D02*
G37*
G36*
X5551Y9757D02*
X5462D01*
Y9949D01*
X5452Y9943D01*
X5444Y9937D01*
X5440Y9934D01*
X5437Y9931D01*
X5436Y9930D01*
X5435Y9929D01*
X5432Y9926D01*
X5429Y9923D01*
X5421Y9915D01*
X5411Y9905D01*
X5402Y9896D01*
X5393Y9886D01*
X5386Y9878D01*
X5383Y9875D01*
X5381Y9873D01*
X5380Y9872D01*
X5379Y9871D01*
X5364Y9855D01*
X5351Y9842D01*
X5340Y9831D01*
X5331Y9822D01*
X5324Y9816D01*
X5319Y9811D01*
X5315Y9808D01*
X5314Y9808D01*
X5302Y9798D01*
X5290Y9790D01*
X5279Y9784D01*
X5270Y9778D01*
X5262Y9774D01*
X5255Y9771D01*
X5252Y9770D01*
X5250Y9769D01*
X5238Y9765D01*
X5227Y9762D01*
X5216Y9759D01*
X5206Y9758D01*
X5198Y9757D01*
X5191Y9757D01*
X5187D01*
X5185D01*
X5174Y9757D01*
X5163Y9759D01*
X5153Y9760D01*
X5144Y9763D01*
X5127Y9770D01*
X5112Y9778D01*
X5106Y9782D01*
X5101Y9786D01*
X5096Y9789D01*
X5092Y9793D01*
X5089Y9796D01*
X5086Y9797D01*
X5085Y9799D01*
X5085Y9800D01*
X5077Y9808D01*
X5071Y9817D01*
X5066Y9826D01*
X5061Y9836D01*
X5054Y9855D01*
X5049Y9874D01*
X5047Y9883D01*
X5046Y9891D01*
X5045Y9898D01*
X5045Y9905D01*
X5044Y9910D01*
Y9917D01*
X5045Y9929D01*
X5045Y9941D01*
X5049Y9964D01*
X5055Y9983D01*
X5058Y9991D01*
X5061Y9999D01*
X5064Y10007D01*
X5068Y10012D01*
X5071Y10018D01*
X5073Y10023D01*
X5076Y10026D01*
X5077Y10028D01*
X5078Y10030D01*
X5079Y10031D01*
X5086Y10039D01*
X5093Y10046D01*
X5102Y10053D01*
X5112Y10058D01*
X5131Y10067D01*
X5149Y10074D01*
X5158Y10077D01*
X5166Y10079D01*
X5174Y10081D01*
X5180Y10082D01*
X5186Y10083D01*
X5190D01*
X5193Y10084D01*
X5193D01*
X5203Y9988D01*
X5188Y9986D01*
X5176Y9983D01*
X5165Y9980D01*
X5157Y9977D01*
X5150Y9974D01*
X5146Y9971D01*
X5143Y9969D01*
X5142Y9968D01*
X5136Y9961D01*
X5132Y9953D01*
X5128Y9945D01*
X5126Y9937D01*
X5125Y9930D01*
X5124Y9924D01*
Y9919D01*
X5125Y9908D01*
X5127Y9899D01*
X5130Y9891D01*
X5133Y9883D01*
X5136Y9878D01*
X5139Y9874D01*
X5141Y9872D01*
X5141Y9871D01*
X5149Y9865D01*
X5157Y9861D01*
X5165Y9858D01*
X5173Y9856D01*
X5180Y9854D01*
X5187Y9854D01*
X5190D01*
X5191D01*
X5192D01*
X5203Y9854D01*
X5213Y9856D01*
X5223Y9860D01*
X5232Y9864D01*
X5240Y9867D01*
X5246Y9871D01*
X5249Y9873D01*
X5251Y9874D01*
X5255Y9877D01*
X5260Y9881D01*
X5267Y9887D01*
X5273Y9893D01*
X5287Y9906D01*
X5300Y9919D01*
X5314Y9932D01*
X5319Y9938D01*
X5324Y9944D01*
X5328Y9948D01*
X5331Y9951D01*
X5333Y9953D01*
X5334Y9954D01*
X5348Y9969D01*
X5361Y9982D01*
X5373Y9994D01*
X5384Y10005D01*
X5395Y10015D01*
X5405Y10024D01*
X5414Y10032D01*
X5423Y10039D01*
X5430Y10044D01*
X5437Y10050D01*
X5442Y10054D01*
X5447Y10057D01*
X5450Y10060D01*
X5453Y10061D01*
X5454Y10063D01*
X5455D01*
X5472Y10072D01*
X5489Y10079D01*
X5505Y10085D01*
X5520Y10090D01*
X5533Y10093D01*
X5538Y10093D01*
X5542Y10094D01*
X5546Y10095D01*
X5549Y10096D01*
X5550D01*
X5551D01*
Y9757D01*
D02*
G37*
G36*
Y9540D02*
Y9430D01*
X5047Y9251D01*
Y9359D01*
X5420Y9482D01*
X5047Y9611D01*
Y9721D01*
X5551Y9540D01*
D02*
G37*
G36*
X5365Y9022D02*
X5357Y9014D01*
X5351Y9006D01*
X5346Y8998D01*
X5341Y8990D01*
X5338Y8982D01*
X5332Y8968D01*
X5328Y8955D01*
X5327Y8950D01*
X5327Y8946D01*
X5326Y8942D01*
Y8938D01*
X5327Y8925D01*
X5330Y8912D01*
X5333Y8898D01*
X5338Y8885D01*
X5342Y8873D01*
X5344Y8868D01*
X5346Y8864D01*
X5347Y8860D01*
X5349Y8857D01*
X5349Y8855D01*
Y8855D01*
X5354Y8842D01*
X5358Y8831D01*
X5362Y8823D01*
X5364Y8815D01*
X5366Y8810D01*
X5367Y8806D01*
X5368Y8804D01*
Y8803D01*
X5370Y8791D01*
X5371Y8785D01*
Y8780D01*
X5372Y8775D01*
Y8769D01*
X5371Y8758D01*
X5370Y8748D01*
X5367Y8737D01*
X5365Y8729D01*
X5362Y8721D01*
X5360Y8716D01*
X5359Y8712D01*
X5358Y8710D01*
X5352Y8700D01*
X5347Y8691D01*
X5342Y8684D01*
X5337Y8678D01*
X5332Y8673D01*
X5330Y8669D01*
X5327Y8667D01*
X5327Y8666D01*
X5234D01*
X5243Y8675D01*
X5251Y8684D01*
X5257Y8693D01*
X5263Y8700D01*
X5266Y8707D01*
X5269Y8712D01*
X5271Y8715D01*
X5271Y8716D01*
X5275Y8725D01*
X5278Y8734D01*
X5279Y8741D01*
X5281Y8748D01*
X5281Y8753D01*
X5282Y8756D01*
Y8760D01*
X5281Y8767D01*
X5279Y8777D01*
X5276Y8788D01*
X5273Y8799D01*
X5270Y8808D01*
X5267Y8816D01*
X5265Y8820D01*
X5265Y8822D01*
X5264Y8823D01*
Y8824D01*
X5257Y8840D01*
X5252Y8854D01*
X5248Y8866D01*
X5245Y8874D01*
X5243Y8882D01*
X5241Y8886D01*
X5241Y8889D01*
Y8890D01*
X5238Y8904D01*
X5237Y8910D01*
Y8917D01*
X5236Y8922D01*
Y8930D01*
X5237Y8941D01*
X5238Y8951D01*
X5241Y8961D01*
X5244Y8970D01*
X5251Y8987D01*
X5260Y9002D01*
X5264Y9009D01*
X5268Y9014D01*
X5272Y9020D01*
X5276Y9023D01*
X5279Y9027D01*
X5281Y9029D01*
X5282Y9030D01*
X5283Y9031D01*
X5373D01*
X5365Y9022D01*
D02*
G37*
G36*
X5551Y8090D02*
X5462D01*
Y8282D01*
X5452Y8277D01*
X5444Y8270D01*
X5440Y8267D01*
X5437Y8265D01*
X5436Y8264D01*
X5435Y8263D01*
X5432Y8260D01*
X5429Y8257D01*
X5421Y8248D01*
X5411Y8239D01*
X5402Y8229D01*
X5393Y8220D01*
X5386Y8212D01*
X5383Y8209D01*
X5381Y8207D01*
X5380Y8205D01*
X5379Y8205D01*
X5364Y8188D01*
X5351Y8175D01*
X5340Y8164D01*
X5331Y8156D01*
X5324Y8149D01*
X5319Y8145D01*
X5315Y8142D01*
X5314Y8141D01*
X5302Y8132D01*
X5290Y8124D01*
X5279Y8117D01*
X5270Y8112D01*
X5262Y8108D01*
X5255Y8105D01*
X5252Y8103D01*
X5250Y8102D01*
X5238Y8098D01*
X5227Y8095D01*
X5216Y8093D01*
X5206Y8091D01*
X5198Y8091D01*
X5191Y8090D01*
X5187D01*
X5185D01*
X5174Y8091D01*
X5163Y8092D01*
X5153Y8094D01*
X5144Y8097D01*
X5127Y8104D01*
X5112Y8111D01*
X5106Y8116D01*
X5101Y8119D01*
X5096Y8123D01*
X5092Y8126D01*
X5089Y8129D01*
X5086Y8131D01*
X5085Y8132D01*
X5085Y8133D01*
X5077Y8141D01*
X5071Y8151D01*
X5066Y8159D01*
X5061Y8170D01*
X5054Y8188D01*
X5049Y8207D01*
X5047Y8216D01*
X5046Y8224D01*
X5045Y8231D01*
X5045Y8238D01*
X5044Y8243D01*
Y8250D01*
X5045Y8263D01*
X5045Y8274D01*
X5049Y8297D01*
X5055Y8316D01*
X5058Y8325D01*
X5061Y8333D01*
X5064Y8340D01*
X5068Y8346D01*
X5071Y8352D01*
X5073Y8356D01*
X5076Y8360D01*
X5077Y8362D01*
X5078Y8363D01*
X5079Y8364D01*
X5086Y8372D01*
X5093Y8379D01*
X5102Y8386D01*
X5112Y8392D01*
X5131Y8401D01*
X5149Y8408D01*
X5158Y8410D01*
X5166Y8412D01*
X5174Y8414D01*
X5180Y8415D01*
X5186Y8417D01*
X5190D01*
X5193Y8417D01*
X5193D01*
X5203Y8321D01*
X5188Y8320D01*
X5176Y8317D01*
X5165Y8314D01*
X5157Y8310D01*
X5150Y8307D01*
X5146Y8304D01*
X5143Y8302D01*
X5142Y8301D01*
X5136Y8294D01*
X5132Y8286D01*
X5128Y8278D01*
X5126Y8270D01*
X5125Y8264D01*
X5124Y8258D01*
Y8253D01*
X5125Y8242D01*
X5127Y8232D01*
X5130Y8224D01*
X5133Y8217D01*
X5136Y8212D01*
X5139Y8207D01*
X5141Y8205D01*
X5141Y8205D01*
X5149Y8199D01*
X5157Y8194D01*
X5165Y8191D01*
X5173Y8189D01*
X5180Y8188D01*
X5187Y8187D01*
X5190D01*
X5191D01*
X5192D01*
X5203Y8188D01*
X5213Y8190D01*
X5223Y8194D01*
X5232Y8197D01*
X5240Y8201D01*
X5246Y8205D01*
X5249Y8207D01*
X5251Y8207D01*
X5255Y8210D01*
X5260Y8215D01*
X5267Y8221D01*
X5273Y8226D01*
X5287Y8239D01*
X5300Y8253D01*
X5314Y8266D01*
X5319Y8272D01*
X5324Y8277D01*
X5328Y8282D01*
X5331Y8285D01*
X5333Y8287D01*
X5334Y8288D01*
X5348Y8302D01*
X5361Y8315D01*
X5373Y8328D01*
X5384Y8339D01*
X5395Y8349D01*
X5405Y8358D01*
X5414Y8366D01*
X5423Y8372D01*
X5430Y8378D01*
X5437Y8383D01*
X5442Y8387D01*
X5447Y8390D01*
X5450Y8393D01*
X5453Y8395D01*
X5454Y8396D01*
X5455D01*
X5472Y8406D01*
X5489Y8413D01*
X5505Y8419D01*
X5520Y8423D01*
X5533Y8426D01*
X5538Y8427D01*
X5542Y8428D01*
X5546Y8428D01*
X5549Y8429D01*
X5550D01*
X5551D01*
Y8090D01*
D02*
G37*
G36*
X5450Y7834D02*
X5551D01*
Y7741D01*
X5450D01*
Y7678D01*
X5365D01*
Y7741D01*
X5045D01*
Y7822D01*
X5366Y8041D01*
X5450D01*
Y7834D01*
D02*
G37*
G36*
X5551Y7481D02*
Y7371D01*
X5047Y7192D01*
Y7301D01*
X5420Y7424D01*
X5047Y7552D01*
Y7662D01*
X5551Y7481D01*
D02*
G37*
G36*
X4870Y5663D02*
Y5525D01*
X4240Y5301D01*
Y5437D01*
X4706Y5591D01*
X4240Y5751D01*
Y5889D01*
X4870Y5663D01*
D02*
G37*
G36*
Y4963D02*
X4869Y4948D01*
Y4920D01*
X4868Y4909D01*
Y4892D01*
X4867Y4886D01*
Y4877D01*
X4866Y4873D01*
Y4869D01*
X4864Y4851D01*
X4859Y4835D01*
X4855Y4820D01*
X4849Y4807D01*
X4845Y4797D01*
X4840Y4790D01*
X4837Y4785D01*
X4836Y4784D01*
X4826Y4771D01*
X4815Y4761D01*
X4805Y4751D01*
X4794Y4743D01*
X4785Y4737D01*
X4778Y4733D01*
X4773Y4730D01*
X4772Y4729D01*
X4756Y4723D01*
X4742Y4717D01*
X4727Y4713D01*
X4714Y4712D01*
X4703Y4710D01*
X4695Y4709D01*
X4690D01*
X4689D01*
X4688D01*
X4668Y4710D01*
X4650Y4713D01*
X4634Y4719D01*
X4620Y4724D01*
X4609Y4730D01*
X4600Y4735D01*
X4595Y4739D01*
X4593Y4740D01*
X4579Y4753D01*
X4567Y4766D01*
X4557Y4782D01*
X4549Y4795D01*
X4543Y4808D01*
X4538Y4819D01*
X4538Y4823D01*
X4537Y4825D01*
X4536Y4827D01*
Y4828D01*
X4528Y4814D01*
X4519Y4801D01*
X4509Y4790D01*
X4501Y4781D01*
X4493Y4774D01*
X4487Y4769D01*
X4482Y4765D01*
X4480Y4764D01*
X4466Y4756D01*
X4452Y4750D01*
X4438Y4746D01*
X4425Y4743D01*
X4415Y4741D01*
X4406Y4740D01*
X4401D01*
X4400D01*
X4399D01*
X4384Y4741D01*
X4370Y4743D01*
X4358Y4746D01*
X4347Y4750D01*
X4338Y4754D01*
X4331Y4757D01*
X4327Y4759D01*
X4325Y4760D01*
X4313Y4767D01*
X4303Y4775D01*
X4294Y4784D01*
X4286Y4791D01*
X4281Y4798D01*
X4276Y4804D01*
X4273Y4807D01*
X4272Y4808D01*
X4265Y4819D01*
X4260Y4831D01*
X4255Y4842D01*
X4251Y4852D01*
X4249Y4861D01*
X4247Y4867D01*
X4246Y4872D01*
Y4874D01*
X4244Y4889D01*
X4242Y4907D01*
X4241Y4925D01*
X4241Y4943D01*
X4240Y4959D01*
Y5236D01*
X4870D01*
Y4963D01*
D02*
G37*
G36*
X4614Y4601D02*
X4631D01*
X4647Y4600D01*
X4661Y4600D01*
X4674Y4599D01*
X4686Y4598D01*
X4697Y4596D01*
X4706Y4595D01*
X4714Y4594D01*
X4722Y4593D01*
X4727Y4592D01*
X4732Y4591D01*
X4734D01*
X4736Y4590D01*
X4737D01*
X4751Y4586D01*
X4763Y4581D01*
X4775Y4575D01*
X4785Y4569D01*
X4794Y4564D01*
X4802Y4559D01*
X4805Y4556D01*
X4807Y4555D01*
X4819Y4544D01*
X4830Y4532D01*
X4839Y4519D01*
X4847Y4508D01*
X4854Y4498D01*
X4858Y4488D01*
X4861Y4483D01*
X4862Y4482D01*
Y4481D01*
X4865Y4472D01*
X4868Y4462D01*
X4874Y4439D01*
X4877Y4416D01*
X4879Y4395D01*
X4880Y4385D01*
X4881Y4375D01*
Y4366D01*
X4882Y4358D01*
Y4344D01*
X4881Y4317D01*
X4879Y4293D01*
X4876Y4272D01*
X4872Y4255D01*
X4871Y4248D01*
X4869Y4241D01*
X4867Y4235D01*
X4865Y4231D01*
X4865Y4227D01*
X4864Y4224D01*
X4863Y4223D01*
Y4222D01*
X4855Y4206D01*
X4846Y4191D01*
X4838Y4179D01*
X4830Y4168D01*
X4823Y4160D01*
X4817Y4153D01*
X4814Y4150D01*
X4812Y4149D01*
X4799Y4139D01*
X4785Y4130D01*
X4773Y4124D01*
X4760Y4119D01*
X4749Y4115D01*
X4740Y4112D01*
X4737Y4111D01*
X4734D01*
X4733Y4110D01*
X4732D01*
X4722Y4109D01*
X4712Y4107D01*
X4700Y4105D01*
X4688Y4104D01*
X4661Y4102D01*
X4634Y4100D01*
X4622D01*
X4610D01*
X4599Y4099D01*
X4590D01*
X4583D01*
X4577D01*
X4573D01*
X4572D01*
X4240D01*
Y4227D01*
X4589D01*
X4603D01*
X4616D01*
X4628Y4228D01*
X4639D01*
X4648Y4229D01*
X4657D01*
X4665Y4230D01*
X4672D01*
X4683Y4232D01*
X4691Y4232D01*
X4696Y4233D01*
X4698D01*
X4710Y4236D01*
X4720Y4241D01*
X4729Y4246D01*
X4737Y4252D01*
X4743Y4257D01*
X4748Y4262D01*
X4751Y4265D01*
X4752Y4266D01*
X4759Y4277D01*
X4764Y4291D01*
X4768Y4303D01*
X4771Y4317D01*
X4773Y4329D01*
X4773Y4338D01*
Y4347D01*
X4773Y4366D01*
X4770Y4383D01*
X4766Y4397D01*
X4762Y4410D01*
X4758Y4419D01*
X4754Y4426D01*
X4752Y4430D01*
X4751Y4432D01*
X4742Y4442D01*
X4731Y4450D01*
X4721Y4457D01*
X4711Y4462D01*
X4702Y4466D01*
X4694Y4468D01*
X4690Y4470D01*
X4688D01*
X4682Y4471D01*
X4677Y4472D01*
X4670D01*
X4661Y4473D01*
X4644Y4474D01*
X4626D01*
X4609Y4475D01*
X4602D01*
X4595D01*
X4589D01*
X4586D01*
X4583D01*
X4582D01*
X4240D01*
Y4602D01*
X4577D01*
X4596D01*
X4614Y4601D01*
D02*
G37*
G36*
X4684Y3996D02*
X4702Y3992D01*
X4720Y3986D01*
X4735Y3982D01*
X4750Y3976D01*
X4763Y3969D01*
X4775Y3963D01*
X4786Y3956D01*
X4795Y3950D01*
X4804Y3944D01*
X4811Y3938D01*
X4817Y3933D01*
X4822Y3929D01*
X4825Y3925D01*
X4826Y3924D01*
X4827Y3923D01*
X4837Y3910D01*
X4845Y3896D01*
X4853Y3882D01*
X4859Y3866D01*
X4864Y3852D01*
X4868Y3836D01*
X4875Y3806D01*
X4877Y3792D01*
X4879Y3780D01*
X4880Y3769D01*
X4881Y3759D01*
X4882Y3751D01*
Y3739D01*
X4881Y3710D01*
X4878Y3683D01*
X4875Y3659D01*
X4873Y3649D01*
X4870Y3639D01*
X4868Y3631D01*
X4866Y3624D01*
X4865Y3617D01*
X4863Y3612D01*
X4861Y3607D01*
X4860Y3605D01*
X4859Y3603D01*
Y3602D01*
X4849Y3582D01*
X4838Y3566D01*
X4827Y3550D01*
X4815Y3538D01*
X4805Y3529D01*
X4796Y3522D01*
X4791Y3518D01*
X4790Y3516D01*
X4789D01*
X4771Y3506D01*
X4753Y3498D01*
X4736Y3493D01*
X4720Y3489D01*
X4707Y3487D01*
X4701Y3486D01*
X4696Y3485D01*
X4692D01*
X4690D01*
X4688D01*
X4687D01*
X4665Y3486D01*
X4646Y3489D01*
X4629Y3494D01*
X4614Y3498D01*
X4602Y3503D01*
X4594Y3507D01*
X4589Y3510D01*
X4587Y3511D01*
X4572Y3521D01*
X4559Y3533D01*
X4548Y3545D01*
X4539Y3556D01*
X4532Y3566D01*
X4527Y3574D01*
X4523Y3579D01*
X4522Y3580D01*
Y3581D01*
X4517Y3590D01*
X4513Y3599D01*
X4505Y3621D01*
X4497Y3644D01*
X4490Y3666D01*
X4487Y3676D01*
X4485Y3686D01*
X4482Y3695D01*
X4480Y3702D01*
X4478Y3709D01*
X4477Y3713D01*
X4476Y3717D01*
Y3718D01*
X4472Y3734D01*
X4468Y3749D01*
X4465Y3762D01*
X4461Y3775D01*
X4457Y3785D01*
X4454Y3795D01*
X4450Y3803D01*
X4447Y3811D01*
X4445Y3817D01*
X4442Y3822D01*
X4440Y3826D01*
X4438Y3829D01*
X4435Y3833D01*
X4435Y3834D01*
X4428Y3841D01*
X4422Y3845D01*
X4415Y3848D01*
X4409Y3850D01*
X4405Y3852D01*
X4400Y3853D01*
X4397D01*
X4396D01*
X4387Y3852D01*
X4380Y3850D01*
X4373Y3846D01*
X4367Y3843D01*
X4363Y3839D01*
X4360Y3835D01*
X4358Y3833D01*
X4357Y3832D01*
X4349Y3820D01*
X4343Y3806D01*
X4339Y3791D01*
X4336Y3778D01*
X4334Y3766D01*
X4333Y3756D01*
Y3747D01*
X4334Y3728D01*
X4337Y3711D01*
X4341Y3698D01*
X4344Y3687D01*
X4348Y3678D01*
X4352Y3671D01*
X4354Y3668D01*
X4355Y3667D01*
X4364Y3658D01*
X4375Y3649D01*
X4386Y3643D01*
X4398Y3638D01*
X4408Y3635D01*
X4416Y3633D01*
X4423Y3631D01*
X4424D01*
X4425D01*
X4420Y3504D01*
X4404Y3505D01*
X4389Y3507D01*
X4374Y3511D01*
X4362Y3515D01*
X4349Y3520D01*
X4337Y3525D01*
X4327Y3531D01*
X4317Y3536D01*
X4309Y3543D01*
X4302Y3548D01*
X4295Y3554D01*
X4290Y3558D01*
X4286Y3562D01*
X4283Y3565D01*
X4282Y3566D01*
X4281Y3567D01*
X4272Y3579D01*
X4263Y3592D01*
X4256Y3606D01*
X4250Y3620D01*
X4245Y3635D01*
X4241Y3649D01*
X4234Y3679D01*
X4232Y3692D01*
X4231Y3704D01*
X4230Y3716D01*
X4229Y3726D01*
X4228Y3734D01*
Y3745D01*
X4229Y3771D01*
X4231Y3795D01*
X4235Y3816D01*
X4239Y3834D01*
X4241Y3843D01*
X4243Y3850D01*
X4245Y3855D01*
X4247Y3861D01*
X4249Y3864D01*
X4250Y3867D01*
X4251Y3869D01*
Y3870D01*
X4260Y3888D01*
X4270Y3904D01*
X4281Y3917D01*
X4291Y3928D01*
X4300Y3937D01*
X4307Y3943D01*
X4313Y3947D01*
X4313Y3948D01*
X4314D01*
X4330Y3957D01*
X4346Y3964D01*
X4362Y3968D01*
X4375Y3971D01*
X4387Y3973D01*
X4396Y3975D01*
X4400D01*
X4403D01*
X4404D01*
X4405D01*
X4418Y3974D01*
X4432Y3972D01*
X4444Y3969D01*
X4456Y3965D01*
X4477Y3956D01*
X4497Y3945D01*
X4505Y3941D01*
X4511Y3935D01*
X4517Y3931D01*
X4523Y3926D01*
X4527Y3923D01*
X4529Y3920D01*
X4531Y3918D01*
X4532Y3917D01*
X4538Y3909D01*
X4545Y3899D01*
X4551Y3889D01*
X4557Y3877D01*
X4568Y3854D01*
X4577Y3831D01*
X4580Y3819D01*
X4584Y3809D01*
X4587Y3799D01*
X4589Y3791D01*
X4591Y3784D01*
X4593Y3779D01*
X4594Y3775D01*
Y3774D01*
X4598Y3760D01*
X4601Y3747D01*
X4604Y3735D01*
X4607Y3724D01*
X4609Y3715D01*
X4611Y3707D01*
X4614Y3699D01*
X4616Y3693D01*
X4617Y3688D01*
X4619Y3683D01*
X4620Y3677D01*
X4622Y3673D01*
Y3672D01*
X4627Y3660D01*
X4631Y3651D01*
X4636Y3643D01*
X4640Y3637D01*
X4644Y3632D01*
X4647Y3629D01*
X4649Y3628D01*
X4650Y3627D01*
X4656Y3622D01*
X4662Y3618D01*
X4669Y3617D01*
X4674Y3615D01*
X4680Y3614D01*
X4684Y3613D01*
X4687D01*
X4688D01*
X4701Y3614D01*
X4712Y3617D01*
X4722Y3623D01*
X4732Y3628D01*
X4739Y3635D01*
X4744Y3639D01*
X4748Y3643D01*
X4749Y3645D01*
X4757Y3658D01*
X4763Y3672D01*
X4768Y3688D01*
X4771Y3702D01*
X4773Y3716D01*
X4774Y3727D01*
Y3737D01*
X4773Y3758D01*
X4770Y3776D01*
X4765Y3791D01*
X4760Y3805D01*
X4754Y3816D01*
X4750Y3823D01*
X4746Y3828D01*
X4745Y3830D01*
X4732Y3842D01*
X4719Y3851D01*
X4703Y3859D01*
X4688Y3864D01*
X4674Y3869D01*
X4663Y3873D01*
X4660Y3873D01*
X4656D01*
X4654Y3874D01*
X4653D01*
X4665Y3998D01*
X4684Y3996D01*
D02*
G37*
G36*
X4871Y9502D02*
Y9364D01*
X4241Y9140D01*
Y9276D01*
X4707Y9430D01*
X4241Y9590D01*
Y9728D01*
X4871Y9502D01*
D02*
G37*
G36*
X4589Y9097D02*
X4614Y9095D01*
X4639Y9091D01*
X4661Y9086D01*
X4681Y9080D01*
X4702Y9073D01*
X4719Y9065D01*
X4734Y9058D01*
X4749Y9051D01*
X4762Y9044D01*
X4772Y9036D01*
X4781Y9031D01*
X4787Y9025D01*
X4793Y9022D01*
X4795Y9019D01*
X4796Y9018D01*
X4812Y9003D01*
X4825Y8986D01*
X4836Y8969D01*
X4845Y8952D01*
X4854Y8934D01*
X4861Y8917D01*
X4866Y8901D01*
X4871Y8885D01*
X4875Y8870D01*
X4877Y8856D01*
X4879Y8843D01*
X4880Y8833D01*
X4881Y8824D01*
X4882Y8818D01*
Y8812D01*
X4881Y8793D01*
X4880Y8776D01*
X4877Y8758D01*
X4874Y8743D01*
X4870Y8728D01*
X4866Y8715D01*
X4862Y8702D01*
X4856Y8690D01*
X4852Y8680D01*
X4847Y8671D01*
X4844Y8663D01*
X4840Y8656D01*
X4836Y8651D01*
X4834Y8647D01*
X4833Y8645D01*
X4832Y8645D01*
X4822Y8633D01*
X4811Y8622D01*
X4786Y8602D01*
X4761Y8585D01*
X4736Y8573D01*
X4724Y8567D01*
X4713Y8563D01*
X4703Y8559D01*
X4695Y8555D01*
X4688Y8553D01*
X4682Y8551D01*
X4679Y8550D01*
X4678D01*
X4640Y8674D01*
X4664Y8681D01*
X4685Y8689D01*
X4702Y8697D01*
X4717Y8707D01*
X4728Y8714D01*
X4735Y8720D01*
X4740Y8725D01*
X4742Y8727D01*
X4753Y8741D01*
X4760Y8756D01*
X4765Y8770D01*
X4770Y8783D01*
X4772Y8795D01*
X4773Y8805D01*
X4773Y8809D01*
Y8813D01*
X4773Y8826D01*
X4772Y8838D01*
X4765Y8860D01*
X4758Y8879D01*
X4748Y8894D01*
X4739Y8907D01*
X4732Y8916D01*
X4728Y8920D01*
X4725Y8922D01*
X4724Y8923D01*
X4723Y8924D01*
X4713Y8932D01*
X4702Y8938D01*
X4689Y8944D01*
X4675Y8949D01*
X4647Y8956D01*
X4619Y8962D01*
X4605Y8963D01*
X4593Y8964D01*
X4581Y8966D01*
X4571D01*
X4564Y8967D01*
X4558D01*
X4553D01*
X4552D01*
X4531Y8966D01*
X4512Y8965D01*
X4495Y8963D01*
X4478Y8961D01*
X4464Y8957D01*
X4450Y8953D01*
X4438Y8950D01*
X4427Y8945D01*
X4418Y8942D01*
X4410Y8938D01*
X4404Y8934D01*
X4398Y8931D01*
X4394Y8928D01*
X4391Y8926D01*
X4389Y8924D01*
X4388D01*
X4379Y8916D01*
X4371Y8907D01*
X4364Y8898D01*
X4359Y8888D01*
X4350Y8869D01*
X4343Y8850D01*
X4340Y8835D01*
X4339Y8828D01*
X4338Y8822D01*
X4337Y8817D01*
Y8810D01*
X4338Y8792D01*
X4342Y8776D01*
X4346Y8761D01*
X4352Y8748D01*
X4357Y8738D01*
X4362Y8731D01*
X4365Y8727D01*
X4366Y8725D01*
X4377Y8713D01*
X4390Y8702D01*
X4403Y8694D01*
X4415Y8687D01*
X4426Y8683D01*
X4435Y8680D01*
X4438Y8678D01*
X4441D01*
X4442Y8677D01*
X4443D01*
X4413Y8552D01*
X4386Y8561D01*
X4364Y8571D01*
X4343Y8582D01*
X4327Y8592D01*
X4314Y8602D01*
X4309Y8605D01*
X4304Y8609D01*
X4302Y8612D01*
X4299Y8615D01*
X4297Y8615D01*
Y8616D01*
X4285Y8630D01*
X4274Y8645D01*
X4265Y8660D01*
X4258Y8676D01*
X4251Y8692D01*
X4245Y8707D01*
X4241Y8723D01*
X4237Y8738D01*
X4234Y8751D01*
X4232Y8764D01*
X4231Y8775D01*
X4230Y8785D01*
X4229Y8793D01*
Y8804D01*
X4230Y8828D01*
X4232Y8851D01*
X4237Y8872D01*
X4242Y8893D01*
X4249Y8912D01*
X4256Y8930D01*
X4264Y8945D01*
X4272Y8960D01*
X4281Y8973D01*
X4289Y8984D01*
X4296Y8994D01*
X4302Y9003D01*
X4308Y9009D01*
X4313Y9014D01*
X4315Y9016D01*
X4316Y9017D01*
X4333Y9032D01*
X4352Y9044D01*
X4371Y9055D01*
X4391Y9064D01*
X4412Y9072D01*
X4432Y9078D01*
X4452Y9084D01*
X4471Y9088D01*
X4490Y9092D01*
X4507Y9094D01*
X4522Y9096D01*
X4535Y9097D01*
X4546D01*
X4554Y9098D01*
X4559D01*
X4560D01*
X4561D01*
X4589Y9097D01*
D02*
G37*
G36*
Y8461D02*
X4614Y8459D01*
X4639Y8455D01*
X4661Y8450D01*
X4681Y8444D01*
X4702Y8437D01*
X4719Y8430D01*
X4734Y8422D01*
X4749Y8415D01*
X4762Y8408D01*
X4772Y8400D01*
X4781Y8395D01*
X4787Y8390D01*
X4793Y8386D01*
X4795Y8383D01*
X4796Y8382D01*
X4812Y8367D01*
X4825Y8350D01*
X4836Y8333D01*
X4845Y8316D01*
X4854Y8298D01*
X4861Y8281D01*
X4866Y8265D01*
X4871Y8249D01*
X4875Y8234D01*
X4877Y8220D01*
X4879Y8207D01*
X4880Y8197D01*
X4881Y8188D01*
X4882Y8182D01*
Y8176D01*
X4881Y8157D01*
X4880Y8140D01*
X4877Y8123D01*
X4874Y8107D01*
X4870Y8093D01*
X4866Y8079D01*
X4862Y8066D01*
X4856Y8054D01*
X4852Y8044D01*
X4847Y8035D01*
X4844Y8027D01*
X4840Y8021D01*
X4836Y8015D01*
X4834Y8011D01*
X4833Y8010D01*
X4832Y8009D01*
X4822Y7997D01*
X4811Y7986D01*
X4786Y7966D01*
X4761Y7950D01*
X4736Y7937D01*
X4724Y7931D01*
X4713Y7927D01*
X4703Y7923D01*
X4695Y7919D01*
X4688Y7917D01*
X4682Y7915D01*
X4679Y7914D01*
X4678D01*
X4640Y8038D01*
X4664Y8045D01*
X4685Y8053D01*
X4702Y8062D01*
X4717Y8071D01*
X4728Y8078D01*
X4735Y8084D01*
X4740Y8089D01*
X4742Y8091D01*
X4753Y8105D01*
X4760Y8120D01*
X4765Y8134D01*
X4770Y8147D01*
X4772Y8159D01*
X4773Y8169D01*
X4773Y8173D01*
Y8177D01*
X4773Y8190D01*
X4772Y8202D01*
X4765Y8224D01*
X4758Y8243D01*
X4748Y8258D01*
X4739Y8271D01*
X4732Y8280D01*
X4728Y8284D01*
X4725Y8287D01*
X4724Y8287D01*
X4723Y8288D01*
X4713Y8296D01*
X4702Y8302D01*
X4689Y8308D01*
X4675Y8313D01*
X4647Y8320D01*
X4619Y8326D01*
X4605Y8328D01*
X4593Y8328D01*
X4581Y8330D01*
X4571D01*
X4564Y8331D01*
X4558D01*
X4553D01*
X4552D01*
X4531Y8330D01*
X4512Y8329D01*
X4495Y8328D01*
X4478Y8325D01*
X4464Y8321D01*
X4450Y8318D01*
X4438Y8314D01*
X4427Y8309D01*
X4418Y8306D01*
X4410Y8302D01*
X4404Y8298D01*
X4398Y8295D01*
X4394Y8292D01*
X4391Y8290D01*
X4389Y8288D01*
X4388D01*
X4379Y8280D01*
X4371Y8271D01*
X4364Y8262D01*
X4359Y8252D01*
X4350Y8233D01*
X4343Y8215D01*
X4340Y8199D01*
X4339Y8192D01*
X4338Y8186D01*
X4337Y8181D01*
Y8175D01*
X4338Y8156D01*
X4342Y8140D01*
X4346Y8125D01*
X4352Y8113D01*
X4357Y8103D01*
X4362Y8095D01*
X4365Y8091D01*
X4366Y8089D01*
X4377Y8077D01*
X4390Y8066D01*
X4403Y8058D01*
X4415Y8052D01*
X4426Y8047D01*
X4435Y8044D01*
X4438Y8042D01*
X4441D01*
X4442Y8042D01*
X4443D01*
X4413Y7916D01*
X4386Y7925D01*
X4364Y7935D01*
X4343Y7946D01*
X4327Y7956D01*
X4314Y7966D01*
X4309Y7970D01*
X4304Y7973D01*
X4302Y7976D01*
X4299Y7979D01*
X4297Y7980D01*
Y7980D01*
X4285Y7994D01*
X4274Y8010D01*
X4265Y8024D01*
X4258Y8040D01*
X4251Y8056D01*
X4245Y8072D01*
X4241Y8087D01*
X4237Y8102D01*
X4234Y8115D01*
X4232Y8128D01*
X4231Y8139D01*
X4230Y8149D01*
X4229Y8157D01*
Y8168D01*
X4230Y8192D01*
X4232Y8216D01*
X4237Y8236D01*
X4242Y8257D01*
X4249Y8276D01*
X4256Y8294D01*
X4264Y8309D01*
X4272Y8324D01*
X4281Y8338D01*
X4289Y8349D01*
X4296Y8359D01*
X4302Y8367D01*
X4308Y8373D01*
X4313Y8378D01*
X4315Y8380D01*
X4316Y8381D01*
X4333Y8396D01*
X4352Y8408D01*
X4371Y8419D01*
X4391Y8428D01*
X4412Y8436D01*
X4432Y8442D01*
X4452Y8448D01*
X4471Y8452D01*
X4490Y8456D01*
X4507Y8458D01*
X4522Y8460D01*
X4535Y8461D01*
X4546D01*
X4554Y8462D01*
X4559D01*
X4560D01*
X4561D01*
X4589Y8461D01*
D02*
G37*
G36*
X4872Y14128D02*
X4871Y14112D01*
Y14085D01*
X4870Y14074D01*
Y14057D01*
X4869Y14050D01*
Y14041D01*
X4868Y14037D01*
Y14034D01*
X4865Y14016D01*
X4861Y13999D01*
X4856Y13985D01*
X4851Y13972D01*
X4846Y13962D01*
X4842Y13955D01*
X4839Y13950D01*
X4838Y13948D01*
X4828Y13935D01*
X4817Y13925D01*
X4807Y13915D01*
X4796Y13908D01*
X4787Y13902D01*
X4780Y13897D01*
X4775Y13894D01*
X4773Y13894D01*
X4758Y13887D01*
X4743Y13882D01*
X4729Y13878D01*
X4716Y13876D01*
X4705Y13874D01*
X4697Y13873D01*
X4691D01*
X4691D01*
X4690D01*
X4670Y13874D01*
X4651Y13878D01*
X4636Y13883D01*
X4621Y13889D01*
X4610Y13894D01*
X4602Y13900D01*
X4597Y13904D01*
X4595Y13904D01*
X4580Y13917D01*
X4569Y13931D01*
X4558Y13946D01*
X4551Y13960D01*
X4545Y13973D01*
X4540Y13984D01*
X4539Y13987D01*
X4538Y13990D01*
X4538Y13992D01*
Y13993D01*
X4529Y13978D01*
X4521Y13965D01*
X4511Y13955D01*
X4503Y13945D01*
X4495Y13939D01*
X4488Y13934D01*
X4484Y13930D01*
X4482Y13929D01*
X4467Y13921D01*
X4454Y13914D01*
X4440Y13911D01*
X4427Y13907D01*
X4416Y13905D01*
X4408Y13904D01*
X4403D01*
X4402D01*
X4401D01*
X4386Y13905D01*
X4372Y13907D01*
X4360Y13911D01*
X4349Y13914D01*
X4340Y13918D01*
X4333Y13922D01*
X4329Y13924D01*
X4327Y13924D01*
X4315Y13932D01*
X4305Y13940D01*
X4296Y13948D01*
X4288Y13955D01*
X4282Y13963D01*
X4278Y13968D01*
X4275Y13972D01*
X4274Y13973D01*
X4267Y13984D01*
X4261Y13996D01*
X4257Y14006D01*
X4253Y14016D01*
X4251Y14026D01*
X4249Y14032D01*
X4248Y14037D01*
Y14038D01*
X4246Y14054D01*
X4244Y14071D01*
X4243Y14089D01*
X4242Y14108D01*
X4241Y14124D01*
Y14401D01*
X4872D01*
Y14128D01*
D02*
G37*
G36*
X4759Y13798D02*
X4769Y13797D01*
X4788Y13792D01*
X4804Y13786D01*
X4818Y13779D01*
X4829Y13771D01*
X4837Y13765D01*
X4843Y13761D01*
X4844Y13759D01*
X4845D01*
X4857Y13742D01*
X4866Y13724D01*
X4873Y13706D01*
X4877Y13688D01*
X4880Y13672D01*
X4881Y13665D01*
Y13659D01*
X4882Y13654D01*
Y13648D01*
X4881Y13633D01*
X4879Y13618D01*
X4877Y13606D01*
X4875Y13595D01*
X4872Y13586D01*
X4869Y13578D01*
X4868Y13574D01*
X4867Y13572D01*
X4861Y13559D01*
X4855Y13546D01*
X4846Y13535D01*
X4839Y13525D01*
X4833Y13517D01*
X4827Y13511D01*
X4824Y13507D01*
X4823Y13505D01*
X4826Y13505D01*
X4831Y13503D01*
X4835Y13502D01*
X4835Y13501D01*
X4836D01*
X4845Y13498D01*
X4852Y13496D01*
X4858Y13494D01*
X4863Y13493D01*
X4866Y13491D01*
X4870Y13490D01*
X4871Y13489D01*
X4872D01*
Y13370D01*
X4860Y13375D01*
X4849Y13380D01*
X4839Y13383D01*
X4830Y13387D01*
X4823Y13389D01*
X4816Y13391D01*
X4813Y13392D01*
X4812D01*
X4800Y13393D01*
X4785Y13394D01*
X4771Y13396D01*
X4756D01*
X4743Y13397D01*
X4732D01*
X4728D01*
X4725D01*
X4723D01*
X4722D01*
X4581Y13395D01*
X4567D01*
X4554Y13396D01*
X4542Y13397D01*
X4531Y13398D01*
X4521Y13399D01*
X4512Y13401D01*
X4504Y13402D01*
X4497Y13403D01*
X4491Y13405D01*
X4487Y13406D01*
X4478Y13409D01*
X4475Y13411D01*
X4473Y13412D01*
X4463Y13419D01*
X4453Y13427D01*
X4445Y13436D01*
X4437Y13446D01*
X4432Y13454D01*
X4428Y13462D01*
X4425Y13466D01*
X4425Y13467D01*
Y13468D01*
X4421Y13476D01*
X4418Y13484D01*
X4413Y13504D01*
X4409Y13524D01*
X4407Y13543D01*
X4405Y13561D01*
Y13568D01*
X4405Y13575D01*
Y13605D01*
X4406Y13619D01*
X4407Y13634D01*
X4410Y13647D01*
X4412Y13659D01*
X4415Y13670D01*
X4418Y13680D01*
X4421Y13689D01*
X4424Y13697D01*
X4427Y13704D01*
X4430Y13709D01*
X4432Y13715D01*
X4435Y13719D01*
X4435Y13721D01*
X4437Y13722D01*
Y13723D01*
X4451Y13739D01*
X4466Y13751D01*
X4483Y13762D01*
X4498Y13771D01*
X4513Y13778D01*
X4519Y13781D01*
X4525Y13782D01*
X4529Y13784D01*
X4533Y13785D01*
X4535Y13786D01*
X4536D01*
X4556Y13678D01*
X4545Y13673D01*
X4536Y13668D01*
X4528Y13664D01*
X4521Y13658D01*
X4517Y13655D01*
X4514Y13651D01*
X4512Y13649D01*
X4511Y13648D01*
X4507Y13641D01*
X4503Y13633D01*
X4501Y13624D01*
X4499Y13616D01*
X4498Y13608D01*
X4497Y13603D01*
Y13597D01*
X4498Y13581D01*
X4500Y13567D01*
X4502Y13556D01*
X4505Y13547D01*
X4508Y13541D01*
X4510Y13536D01*
X4512Y13534D01*
X4513Y13533D01*
X4519Y13526D01*
X4527Y13522D01*
X4535Y13519D01*
X4543Y13516D01*
X4551Y13515D01*
X4558Y13515D01*
X4561D01*
X4563D01*
X4575D01*
X4578Y13521D01*
X4580Y13529D01*
X4586Y13546D01*
X4590Y13566D01*
X4595Y13586D01*
X4599Y13604D01*
X4601Y13612D01*
X4602Y13619D01*
X4603Y13625D01*
X4604Y13629D01*
X4605Y13632D01*
Y13633D01*
X4609Y13655D01*
X4614Y13675D01*
X4619Y13691D01*
X4623Y13705D01*
X4628Y13716D01*
X4630Y13723D01*
X4632Y13728D01*
X4633Y13730D01*
X4640Y13741D01*
X4647Y13751D01*
X4655Y13761D01*
X4662Y13767D01*
X4669Y13773D01*
X4674Y13777D01*
X4678Y13780D01*
X4680Y13781D01*
X4691Y13787D01*
X4703Y13791D01*
X4714Y13794D01*
X4725Y13796D01*
X4734Y13798D01*
X4742Y13799D01*
X4746D01*
X4748D01*
X4759Y13798D01*
D02*
G37*
G36*
X4511Y13270D02*
X4711D01*
X4722D01*
X4732D01*
X4743D01*
X4751Y13269D01*
X4765D01*
X4777Y13269D01*
X4786Y13268D01*
X4792D01*
X4795Y13267D01*
X4796D01*
X4806Y13265D01*
X4815Y13262D01*
X4824Y13259D01*
X4830Y13257D01*
X4835Y13254D01*
X4839Y13252D01*
X4842Y13251D01*
X4843Y13250D01*
X4849Y13245D01*
X4855Y13239D01*
X4864Y13226D01*
X4866Y13220D01*
X4869Y13216D01*
X4870Y13212D01*
X4871Y13211D01*
X4875Y13201D01*
X4877Y13191D01*
X4879Y13181D01*
X4880Y13172D01*
X4881Y13164D01*
X4882Y13157D01*
Y13152D01*
X4881Y13133D01*
X4879Y13115D01*
X4876Y13098D01*
X4873Y13085D01*
X4870Y13073D01*
X4867Y13064D01*
X4865Y13058D01*
X4865Y13057D01*
Y13056D01*
X4771Y13067D01*
X4774Y13078D01*
X4777Y13088D01*
X4779Y13096D01*
X4780Y13104D01*
X4781Y13109D01*
X4782Y13113D01*
Y13116D01*
X4781Y13125D01*
X4779Y13131D01*
X4777Y13135D01*
X4776Y13136D01*
X4771Y13142D01*
X4766Y13145D01*
X4763Y13146D01*
X4761Y13147D01*
X4759D01*
X4755Y13148D01*
X4747D01*
X4736D01*
X4725Y13149D01*
X4714D01*
X4705D01*
X4702D01*
X4699D01*
X4697D01*
X4696D01*
X4511D01*
Y13066D01*
X4415D01*
Y13149D01*
X4252D01*
X4323Y13270D01*
X4415D01*
Y13326D01*
X4511D01*
Y13270D01*
D02*
G37*
G36*
X4664Y13017D02*
X4681Y13016D01*
X4697Y13013D01*
X4712Y13011D01*
X4726Y13008D01*
X4739Y13003D01*
X4751Y13000D01*
X4762Y12995D01*
X4772Y12992D01*
X4780Y12987D01*
X4787Y12983D01*
X4794Y12981D01*
X4798Y12977D01*
X4802Y12975D01*
X4804Y12974D01*
X4804Y12973D01*
X4818Y12962D01*
X4830Y12950D01*
X4840Y12936D01*
X4849Y12921D01*
X4856Y12907D01*
X4863Y12892D01*
X4868Y12878D01*
X4872Y12863D01*
X4876Y12850D01*
X4877Y12838D01*
X4879Y12826D01*
X4881Y12816D01*
Y12808D01*
X4882Y12802D01*
Y12797D01*
X4880Y12770D01*
X4876Y12746D01*
X4871Y12725D01*
X4865Y12706D01*
X4861Y12698D01*
X4858Y12692D01*
X4855Y12686D01*
X4853Y12681D01*
X4850Y12677D01*
X4849Y12674D01*
X4847Y12673D01*
Y12672D01*
X4833Y12655D01*
X4817Y12639D01*
X4800Y12626D01*
X4784Y12616D01*
X4769Y12608D01*
X4763Y12605D01*
X4757Y12603D01*
X4753Y12601D01*
X4749Y12599D01*
X4747Y12598D01*
X4746D01*
X4726Y12718D01*
X4738Y12723D01*
X4749Y12727D01*
X4757Y12732D01*
X4764Y12737D01*
X4770Y12741D01*
X4773Y12745D01*
X4775Y12747D01*
X4776Y12748D01*
X4782Y12756D01*
X4785Y12764D01*
X4788Y12772D01*
X4790Y12779D01*
X4791Y12786D01*
X4792Y12791D01*
Y12796D01*
X4791Y12810D01*
X4787Y12824D01*
X4783Y12837D01*
X4777Y12847D01*
X4772Y12855D01*
X4767Y12860D01*
X4763Y12865D01*
X4763Y12866D01*
X4751Y12875D01*
X4737Y12881D01*
X4722Y12887D01*
X4710Y12890D01*
X4697Y12892D01*
X4688Y12893D01*
X4684Y12894D01*
X4681D01*
X4680D01*
X4679D01*
Y12592D01*
X4653D01*
X4630Y12594D01*
X4609Y12596D01*
X4589Y12600D01*
X4569Y12604D01*
X4553Y12609D01*
X4538Y12614D01*
X4524Y12620D01*
X4512Y12625D01*
X4501Y12631D01*
X4493Y12635D01*
X4486Y12640D01*
X4480Y12644D01*
X4476Y12646D01*
X4474Y12648D01*
X4473Y12649D01*
X4461Y12660D01*
X4450Y12673D01*
X4441Y12686D01*
X4434Y12698D01*
X4426Y12712D01*
X4421Y12726D01*
X4416Y12738D01*
X4413Y12751D01*
X4410Y12763D01*
X4408Y12774D01*
X4406Y12784D01*
X4405Y12792D01*
X4405Y12799D01*
Y12809D01*
X4405Y12826D01*
X4407Y12841D01*
X4411Y12857D01*
X4415Y12870D01*
X4419Y12884D01*
X4425Y12896D01*
X4431Y12908D01*
X4436Y12918D01*
X4443Y12927D01*
X4449Y12935D01*
X4455Y12942D01*
X4459Y12948D01*
X4463Y12952D01*
X4466Y12956D01*
X4468Y12958D01*
X4469Y12959D01*
X4482Y12969D01*
X4496Y12978D01*
X4509Y12986D01*
X4524Y12993D01*
X4539Y12999D01*
X4554Y13003D01*
X4582Y13011D01*
X4596Y13013D01*
X4608Y13015D01*
X4619Y13016D01*
X4628Y13017D01*
X4636Y13018D01*
X4642D01*
X4646D01*
X4647D01*
X4664Y13017D01*
D02*
G37*
G36*
X4872Y12377D02*
X4732D01*
X4711D01*
X4691D01*
X4674Y12376D01*
X4659Y12375D01*
X4644D01*
X4632Y12374D01*
X4620Y12373D01*
X4611Y12372D01*
X4603Y12371D01*
X4596Y12370D01*
X4590Y12369D01*
X4586D01*
X4583Y12369D01*
X4580Y12368D01*
X4579D01*
X4566Y12364D01*
X4555Y12359D01*
X4546Y12355D01*
X4539Y12350D01*
X4534Y12347D01*
X4530Y12343D01*
X4528Y12341D01*
X4528Y12340D01*
X4523Y12333D01*
X4519Y12326D01*
X4517Y12318D01*
X4515Y12312D01*
X4514Y12307D01*
X4513Y12301D01*
Y12297D01*
X4514Y12287D01*
X4516Y12277D01*
X4519Y12268D01*
X4523Y12259D01*
X4527Y12252D01*
X4530Y12246D01*
X4532Y12242D01*
X4533Y12241D01*
X4428Y12203D01*
X4420Y12217D01*
X4415Y12231D01*
X4410Y12245D01*
X4407Y12257D01*
X4405Y12267D01*
X4405Y12276D01*
Y12283D01*
X4405Y12294D01*
X4406Y12303D01*
X4409Y12312D01*
X4412Y12319D01*
X4415Y12326D01*
X4416Y12331D01*
X4418Y12334D01*
X4419Y12335D01*
X4425Y12344D01*
X4435Y12352D01*
X4445Y12361D01*
X4455Y12369D01*
X4465Y12376D01*
X4473Y12381D01*
X4478Y12385D01*
X4479Y12386D01*
X4415D01*
Y12498D01*
X4872D01*
Y12377D01*
D02*
G37*
G36*
Y12030D02*
X4415D01*
Y12151D01*
X4872D01*
Y12030D01*
D02*
G37*
G36*
X4354D02*
X4241D01*
Y12151D01*
X4354D01*
Y12030D01*
D02*
G37*
G36*
X4759Y11937D02*
X4769Y11936D01*
X4788Y11931D01*
X4804Y11925D01*
X4818Y11918D01*
X4829Y11910D01*
X4837Y11904D01*
X4843Y11899D01*
X4844Y11898D01*
X4845D01*
X4857Y11881D01*
X4866Y11863D01*
X4873Y11845D01*
X4877Y11826D01*
X4880Y11811D01*
X4881Y11804D01*
Y11798D01*
X4882Y11793D01*
Y11786D01*
X4881Y11772D01*
X4879Y11757D01*
X4877Y11744D01*
X4875Y11734D01*
X4872Y11724D01*
X4869Y11717D01*
X4868Y11713D01*
X4867Y11711D01*
X4861Y11698D01*
X4855Y11685D01*
X4846Y11674D01*
X4839Y11664D01*
X4833Y11656D01*
X4827Y11650D01*
X4824Y11646D01*
X4823Y11644D01*
X4826Y11643D01*
X4831Y11642D01*
X4835Y11641D01*
X4835Y11640D01*
X4836D01*
X4845Y11637D01*
X4852Y11635D01*
X4858Y11633D01*
X4863Y11631D01*
X4866Y11630D01*
X4870Y11629D01*
X4871Y11628D01*
X4872D01*
Y11509D01*
X4860Y11514D01*
X4849Y11519D01*
X4839Y11522D01*
X4830Y11526D01*
X4823Y11528D01*
X4816Y11529D01*
X4813Y11530D01*
X4812D01*
X4800Y11532D01*
X4785Y11533D01*
X4771Y11535D01*
X4756D01*
X4743Y11536D01*
X4732D01*
X4728D01*
X4725D01*
X4723D01*
X4722D01*
X4581Y11534D01*
X4567D01*
X4554Y11535D01*
X4542Y11536D01*
X4531Y11537D01*
X4521Y11538D01*
X4512Y11539D01*
X4504Y11540D01*
X4497Y11542D01*
X4491Y11544D01*
X4487Y11545D01*
X4478Y11548D01*
X4475Y11550D01*
X4473Y11550D01*
X4463Y11558D01*
X4453Y11566D01*
X4445Y11575D01*
X4437Y11585D01*
X4432Y11593D01*
X4428Y11601D01*
X4425Y11605D01*
X4425Y11606D01*
Y11607D01*
X4421Y11615D01*
X4418Y11623D01*
X4413Y11642D01*
X4409Y11662D01*
X4407Y11682D01*
X4405Y11700D01*
Y11707D01*
X4405Y11713D01*
Y11744D01*
X4406Y11758D01*
X4407Y11773D01*
X4410Y11785D01*
X4412Y11798D01*
X4415Y11809D01*
X4418Y11819D01*
X4421Y11828D01*
X4424Y11836D01*
X4427Y11843D01*
X4430Y11848D01*
X4432Y11854D01*
X4435Y11857D01*
X4435Y11860D01*
X4437Y11861D01*
Y11862D01*
X4451Y11877D01*
X4466Y11890D01*
X4483Y11901D01*
X4498Y11910D01*
X4513Y11917D01*
X4519Y11919D01*
X4525Y11921D01*
X4529Y11923D01*
X4533Y11924D01*
X4535Y11925D01*
X4536D01*
X4556Y11816D01*
X4545Y11812D01*
X4536Y11807D01*
X4528Y11803D01*
X4521Y11797D01*
X4517Y11794D01*
X4514Y11790D01*
X4512Y11788D01*
X4511Y11787D01*
X4507Y11780D01*
X4503Y11772D01*
X4501Y11763D01*
X4499Y11754D01*
X4498Y11747D01*
X4497Y11742D01*
Y11736D01*
X4498Y11720D01*
X4500Y11706D01*
X4502Y11695D01*
X4505Y11686D01*
X4508Y11680D01*
X4510Y11675D01*
X4512Y11672D01*
X4513Y11672D01*
X4519Y11665D01*
X4527Y11661D01*
X4535Y11658D01*
X4543Y11655D01*
X4551Y11654D01*
X4558Y11653D01*
X4561D01*
X4563D01*
X4575D01*
X4578Y11660D01*
X4580Y11668D01*
X4586Y11685D01*
X4590Y11705D01*
X4595Y11724D01*
X4599Y11743D01*
X4601Y11751D01*
X4602Y11758D01*
X4603Y11764D01*
X4604Y11768D01*
X4605Y11771D01*
Y11772D01*
X4609Y11794D01*
X4614Y11814D01*
X4619Y11830D01*
X4623Y11844D01*
X4628Y11855D01*
X4630Y11862D01*
X4632Y11867D01*
X4633Y11868D01*
X4640Y11880D01*
X4647Y11890D01*
X4655Y11899D01*
X4662Y11906D01*
X4669Y11912D01*
X4674Y11916D01*
X4678Y11918D01*
X4680Y11919D01*
X4691Y11926D01*
X4703Y11930D01*
X4714Y11933D01*
X4725Y11935D01*
X4734Y11937D01*
X4742Y11938D01*
X4746D01*
X4748D01*
X4759Y11937D01*
D02*
G37*
G36*
X6998Y16148D02*
X7015Y16146D01*
X7033Y16143D01*
X7047Y16138D01*
X7062Y16134D01*
X7075Y16128D01*
X7087Y16123D01*
X7098Y16117D01*
X7108Y16111D01*
X7116Y16105D01*
X7124Y16099D01*
X7130Y16095D01*
X7135Y16090D01*
X7138Y16087D01*
X7140Y16086D01*
X7141Y16085D01*
X7151Y16072D01*
X7160Y16059D01*
X7168Y16046D01*
X7176Y16031D01*
X7181Y16016D01*
X7186Y16002D01*
X7193Y15974D01*
X7196Y15960D01*
X7197Y15948D01*
X7198Y15937D01*
X7199Y15927D01*
X7200Y15920D01*
Y15913D01*
Y15910D01*
Y15909D01*
X7199Y15889D01*
X7197Y15869D01*
X7195Y15851D01*
X7191Y15834D01*
X7187Y15819D01*
X7181Y15804D01*
X7177Y15791D01*
X7170Y15780D01*
X7165Y15769D01*
X7160Y15759D01*
X7155Y15752D01*
X7150Y15746D01*
X7146Y15740D01*
X7144Y15737D01*
X7142Y15735D01*
X7141Y15734D01*
X7129Y15723D01*
X7117Y15713D01*
X7105Y15705D01*
X7091Y15698D01*
X7078Y15691D01*
X7064Y15687D01*
X7052Y15682D01*
X7039Y15679D01*
X7027Y15677D01*
X7016Y15675D01*
X7006Y15673D01*
X6998Y15672D01*
X6992Y15671D01*
X6982D01*
X6965Y15672D01*
X6951Y15673D01*
X6936Y15675D01*
X6922Y15677D01*
X6910Y15680D01*
X6899Y15684D01*
X6888Y15688D01*
X6879Y15692D01*
X6870Y15696D01*
X6862Y15699D01*
X6856Y15703D01*
X6850Y15706D01*
X6847Y15708D01*
X6844Y15710D01*
X6842Y15712D01*
X6841D01*
X6832Y15720D01*
X6823Y15729D01*
X6808Y15749D01*
X6795Y15769D01*
X6786Y15790D01*
X6778Y15808D01*
X6776Y15816D01*
X6773Y15822D01*
X6771Y15828D01*
X6770Y15832D01*
X6769Y15835D01*
Y15836D01*
X6888Y15856D01*
X6891Y15840D01*
X6897Y15825D01*
X6901Y15813D01*
X6907Y15804D01*
X6912Y15797D01*
X6916Y15792D01*
X6919Y15790D01*
X6920Y15789D01*
X6929Y15782D01*
X6938Y15778D01*
X6947Y15774D01*
X6956Y15772D01*
X6964Y15770D01*
X6971Y15769D01*
X6976D01*
X6992Y15771D01*
X7007Y15775D01*
X7019Y15780D01*
X7030Y15786D01*
X7038Y15792D01*
X7044Y15797D01*
X7048Y15800D01*
X7049Y15802D01*
X7054Y15810D01*
X7058Y15817D01*
X7064Y15834D01*
X7070Y15853D01*
X7073Y15872D01*
X7074Y15891D01*
X7075Y15898D01*
Y15904D01*
X7076Y15910D01*
Y15914D01*
Y15917D01*
Y15918D01*
Y15931D01*
X7075Y15943D01*
X7074Y15954D01*
X7072Y15965D01*
X7070Y15974D01*
X7068Y15983D01*
X7063Y15997D01*
X7058Y16008D01*
X7054Y16015D01*
X7051Y16020D01*
X7050Y16022D01*
X7039Y16033D01*
X7027Y16040D01*
X7015Y16046D01*
X7004Y16050D01*
X6993Y16052D01*
X6985Y16053D01*
X6980Y16054D01*
X6978D01*
X6966Y16053D01*
X6955Y16051D01*
X6946Y16048D01*
X6938Y16045D01*
X6931Y16041D01*
X6927Y16038D01*
X6924Y16036D01*
X6923Y16036D01*
X6916Y16028D01*
X6910Y16020D01*
X6905Y16011D01*
X6900Y16003D01*
X6898Y15995D01*
X6896Y15988D01*
X6895Y15984D01*
Y15983D01*
X6776Y16005D01*
X6785Y16030D01*
X6796Y16052D01*
X6808Y16070D01*
X6819Y16086D01*
X6830Y16097D01*
X6839Y16106D01*
X6842Y16108D01*
X6845Y16110D01*
X6846Y16112D01*
X6847D01*
X6867Y16124D01*
X6889Y16133D01*
X6910Y16139D01*
X6931Y16144D01*
X6941Y16146D01*
X6951Y16147D01*
X6959Y16148D01*
X6966D01*
X6972Y16148D01*
X6980D01*
X6998Y16148D01*
D02*
G37*
G36*
X8057Y15849D02*
X8056Y15826D01*
X8054Y15806D01*
X8051Y15789D01*
X8048Y15774D01*
X8046Y15762D01*
X8043Y15754D01*
X8041Y15749D01*
X8040Y15748D01*
X8033Y15735D01*
X8025Y15723D01*
X8016Y15714D01*
X8007Y15706D01*
X8000Y15699D01*
X7993Y15695D01*
X7989Y15692D01*
X7987Y15691D01*
X7974Y15685D01*
X7959Y15679D01*
X7945Y15676D01*
X7932Y15674D01*
X7921Y15672D01*
X7913Y15671D01*
X7904D01*
X7888Y15672D01*
X7873Y15674D01*
X7858Y15677D01*
X7845Y15681D01*
X7834Y15685D01*
X7826Y15688D01*
X7821Y15690D01*
X7819Y15691D01*
X7804Y15699D01*
X7791Y15709D01*
X7780Y15718D01*
X7770Y15729D01*
X7762Y15737D01*
X7757Y15743D01*
X7753Y15748D01*
X7752Y15749D01*
Y15681D01*
X7640D01*
Y16138D01*
X7761D01*
Y15945D01*
Y15928D01*
Y15913D01*
X7762Y15898D01*
X7763Y15885D01*
Y15873D01*
X7764Y15863D01*
X7765Y15855D01*
X7766Y15847D01*
X7767Y15841D01*
X7768Y15836D01*
X7769Y15831D01*
Y15828D01*
X7770Y15823D01*
Y15822D01*
X7774Y15813D01*
X7780Y15805D01*
X7785Y15799D01*
X7791Y15792D01*
X7796Y15787D01*
X7801Y15783D01*
X7803Y15781D01*
X7804Y15780D01*
X7813Y15775D01*
X7823Y15771D01*
X7832Y15768D01*
X7842Y15766D01*
X7849Y15765D01*
X7854Y15764D01*
X7860D01*
X7870Y15765D01*
X7878Y15766D01*
X7886Y15768D01*
X7893Y15770D01*
X7898Y15772D01*
X7902Y15774D01*
X7904Y15775D01*
X7905Y15776D01*
X7912Y15781D01*
X7916Y15787D01*
X7921Y15792D01*
X7924Y15798D01*
X7926Y15803D01*
X7928Y15807D01*
X7929Y15810D01*
Y15811D01*
X7930Y15815D01*
X7931Y15821D01*
X7932Y15830D01*
X7933Y15838D01*
X7934Y15857D01*
X7934Y15878D01*
X7935Y15897D01*
Y15905D01*
Y15913D01*
Y15919D01*
Y15923D01*
Y15927D01*
Y15928D01*
Y16138D01*
X8057D01*
Y15849D01*
D02*
G37*
G36*
X6526Y16148D02*
X6542Y16146D01*
X6557Y16142D01*
X6571Y16138D01*
X6584Y16134D01*
X6596Y16128D01*
X6608Y16122D01*
X6618Y16117D01*
X6627Y16110D01*
X6635Y16104D01*
X6643Y16098D01*
X6648Y16094D01*
X6653Y16090D01*
X6656Y16087D01*
X6658Y16085D01*
X6659Y16084D01*
X6669Y16071D01*
X6678Y16057D01*
X6686Y16044D01*
X6694Y16029D01*
X6699Y16014D01*
X6704Y15999D01*
X6711Y15971D01*
X6714Y15957D01*
X6716Y15945D01*
X6716Y15934D01*
X6717Y15925D01*
X6718Y15917D01*
Y15911D01*
Y15907D01*
Y15906D01*
X6717Y15889D01*
X6716Y15872D01*
X6714Y15856D01*
X6711Y15841D01*
X6708Y15827D01*
X6704Y15814D01*
X6700Y15802D01*
X6696Y15791D01*
X6692Y15781D01*
X6687Y15773D01*
X6684Y15766D01*
X6681Y15759D01*
X6677Y15755D01*
X6675Y15751D01*
X6675Y15749D01*
X6674Y15749D01*
X6662Y15735D01*
X6650Y15723D01*
X6636Y15713D01*
X6622Y15704D01*
X6607Y15697D01*
X6593Y15690D01*
X6578Y15685D01*
X6563Y15681D01*
X6551Y15677D01*
X6538Y15676D01*
X6526Y15674D01*
X6516Y15672D01*
X6508D01*
X6502Y15671D01*
X6497D01*
X6470Y15673D01*
X6446Y15677D01*
X6425Y15682D01*
X6407Y15688D01*
X6399Y15692D01*
X6392Y15695D01*
X6386Y15698D01*
X6381Y15700D01*
X6378Y15703D01*
X6374Y15704D01*
X6373Y15706D01*
X6372D01*
X6355Y15720D01*
X6339Y15736D01*
X6327Y15753D01*
X6317Y15769D01*
X6308Y15784D01*
X6306Y15790D01*
X6303Y15796D01*
X6301Y15800D01*
X6299Y15804D01*
X6298Y15806D01*
Y15807D01*
X6419Y15827D01*
X6423Y15815D01*
X6428Y15804D01*
X6432Y15796D01*
X6438Y15789D01*
X6441Y15783D01*
X6445Y15780D01*
X6448Y15778D01*
X6449Y15777D01*
X6456Y15771D01*
X6464Y15768D01*
X6472Y15765D01*
X6480Y15763D01*
X6486Y15762D01*
X6491Y15761D01*
X6496D01*
X6511Y15762D01*
X6524Y15766D01*
X6537Y15770D01*
X6547Y15776D01*
X6555Y15781D01*
X6561Y15786D01*
X6565Y15790D01*
X6566Y15790D01*
X6575Y15802D01*
X6582Y15816D01*
X6587Y15831D01*
X6591Y15843D01*
X6593Y15856D01*
X6593Y15865D01*
X6594Y15869D01*
Y15872D01*
Y15873D01*
Y15874D01*
X6292D01*
Y15900D01*
X6294Y15923D01*
X6296Y15944D01*
X6300Y15964D01*
X6305Y15984D01*
X6309Y16000D01*
X6315Y16015D01*
X6320Y16029D01*
X6326Y16041D01*
X6331Y16052D01*
X6336Y16060D01*
X6340Y16067D01*
X6344Y16073D01*
X6347Y16077D01*
X6348Y16079D01*
X6349Y16080D01*
X6360Y16092D01*
X6373Y16103D01*
X6386Y16112D01*
X6399Y16119D01*
X6412Y16127D01*
X6426Y16132D01*
X6439Y16137D01*
X6451Y16140D01*
X6463Y16143D01*
X6474Y16145D01*
X6484Y16147D01*
X6492Y16148D01*
X6500Y16148D01*
X6510D01*
X6526Y16148D01*
D02*
G37*
G36*
X7317D02*
X7326Y16147D01*
X7335Y16144D01*
X7342Y16141D01*
X7349Y16138D01*
X7354Y16137D01*
X7357Y16135D01*
X7358Y16134D01*
X7367Y16128D01*
X7375Y16118D01*
X7384Y16108D01*
X7392Y16098D01*
X7399Y16088D01*
X7404Y16080D01*
X7408Y16075D01*
X7409Y16074D01*
Y16138D01*
X7521D01*
Y15681D01*
X7400D01*
Y15821D01*
Y15842D01*
Y15862D01*
X7399Y15879D01*
X7398Y15894D01*
Y15909D01*
X7397Y15921D01*
X7396Y15933D01*
X7395Y15942D01*
X7394Y15950D01*
X7393Y15957D01*
X7392Y15963D01*
Y15967D01*
X7392Y15970D01*
X7391Y15973D01*
Y15974D01*
X7387Y15987D01*
X7382Y15998D01*
X7378Y16007D01*
X7373Y16014D01*
X7370Y16019D01*
X7366Y16023D01*
X7364Y16025D01*
X7363Y16025D01*
X7356Y16030D01*
X7349Y16034D01*
X7341Y16036D01*
X7335Y16038D01*
X7330Y16039D01*
X7324Y16040D01*
X7320D01*
X7310Y16039D01*
X7300Y16037D01*
X7291Y16034D01*
X7282Y16030D01*
X7275Y16026D01*
X7269Y16023D01*
X7265Y16021D01*
X7264Y16020D01*
X7226Y16125D01*
X7240Y16133D01*
X7254Y16138D01*
X7268Y16143D01*
X7280Y16146D01*
X7290Y16148D01*
X7299Y16148D01*
X7306D01*
X7317Y16148D01*
D02*
G37*
G36*
X5951Y15681D02*
X5824D01*
Y16312D01*
X5951D01*
Y15681D01*
D02*
G37*
G36*
X5208Y16205D02*
X5021D01*
Y15681D01*
X4894D01*
Y16205D01*
X4708D01*
Y16312D01*
X5208D01*
Y16205D01*
D02*
G37*
G36*
X8410Y16148D02*
X8433Y16144D01*
X8454Y16139D01*
X8472Y16134D01*
X8479Y16130D01*
X8487Y16128D01*
X8493Y16126D01*
X8497Y16123D01*
X8502Y16121D01*
X8505Y16119D01*
X8507Y16118D01*
X8507D01*
X8527Y16106D01*
X8543Y16092D01*
X8558Y16077D01*
X8569Y16064D01*
X8579Y16051D01*
X8586Y16041D01*
X8589Y16037D01*
X8589Y16035D01*
X8591Y16033D01*
Y16032D01*
X8601Y16011D01*
X8608Y15990D01*
X8613Y15971D01*
X8617Y15954D01*
X8619Y15938D01*
X8620Y15932D01*
Y15926D01*
X8620Y15923D01*
Y15919D01*
Y15917D01*
Y15916D01*
X8620Y15888D01*
X8616Y15862D01*
X8611Y15839D01*
X8609Y15829D01*
X8606Y15820D01*
X8603Y15811D01*
X8600Y15804D01*
X8598Y15798D01*
X8596Y15792D01*
X8594Y15788D01*
X8592Y15785D01*
X8591Y15783D01*
Y15782D01*
X8579Y15763D01*
X8565Y15747D01*
X8550Y15732D01*
X8537Y15720D01*
X8524Y15711D01*
X8514Y15705D01*
X8510Y15702D01*
X8507Y15700D01*
X8506Y15699D01*
X8505D01*
X8483Y15690D01*
X8462Y15683D01*
X8442Y15678D01*
X8423Y15675D01*
X8407Y15673D01*
X8401Y15672D01*
X8395D01*
X8391Y15671D01*
X8385D01*
X8365Y15672D01*
X8348Y15674D01*
X8331Y15677D01*
X8315Y15682D01*
X8300Y15687D01*
X8286Y15692D01*
X8273Y15698D01*
X8262Y15705D01*
X8251Y15711D01*
X8242Y15718D01*
X8234Y15723D01*
X8228Y15728D01*
X8222Y15732D01*
X8219Y15736D01*
X8217Y15738D01*
X8216Y15739D01*
X8204Y15752D01*
X8194Y15766D01*
X8185Y15780D01*
X8177Y15794D01*
X8170Y15809D01*
X8165Y15823D01*
X8160Y15837D01*
X8157Y15851D01*
X8154Y15862D01*
X8152Y15874D01*
X8150Y15884D01*
X8149Y15893D01*
X8149Y15901D01*
Y15906D01*
Y15910D01*
Y15911D01*
X8149Y15930D01*
X8151Y15948D01*
X8155Y15964D01*
X8159Y15981D01*
X8164Y15995D01*
X8170Y16010D01*
X8176Y16023D01*
X8181Y16035D01*
X8188Y16045D01*
X8194Y16055D01*
X8200Y16062D01*
X8205Y16069D01*
X8209Y16074D01*
X8212Y16078D01*
X8214Y16080D01*
X8215Y16081D01*
X8228Y16093D01*
X8241Y16103D01*
X8255Y16112D01*
X8270Y16120D01*
X8284Y16127D01*
X8298Y16132D01*
X8312Y16137D01*
X8325Y16140D01*
X8337Y16143D01*
X8349Y16145D01*
X8359Y16147D01*
X8368Y16148D01*
X8375Y16148D01*
X8385D01*
X8410Y16148D01*
D02*
G37*
G36*
X5520D02*
X5543Y16144D01*
X5564Y16139D01*
X5582Y16134D01*
X5590Y16130D01*
X5597Y16128D01*
X5603Y16126D01*
X5608Y16123D01*
X5612Y16121D01*
X5615Y16119D01*
X5617Y16118D01*
X5618D01*
X5637Y16106D01*
X5653Y16092D01*
X5668Y16077D01*
X5680Y16064D01*
X5689Y16051D01*
X5696Y16041D01*
X5699Y16037D01*
X5700Y16035D01*
X5702Y16033D01*
Y16032D01*
X5712Y16011D01*
X5718Y15990D01*
X5723Y15971D01*
X5727Y15954D01*
X5729Y15938D01*
X5730Y15932D01*
Y15926D01*
X5731Y15923D01*
Y15919D01*
Y15917D01*
Y15916D01*
X5730Y15888D01*
X5726Y15862D01*
X5722Y15839D01*
X5719Y15829D01*
X5716Y15820D01*
X5713Y15811D01*
X5711Y15804D01*
X5708Y15798D01*
X5706Y15792D01*
X5704Y15788D01*
X5703Y15785D01*
X5702Y15783D01*
Y15782D01*
X5689Y15763D01*
X5675Y15747D01*
X5661Y15732D01*
X5647Y15720D01*
X5634Y15711D01*
X5624Y15705D01*
X5621Y15702D01*
X5618Y15700D01*
X5616Y15699D01*
X5615D01*
X5593Y15690D01*
X5572Y15683D01*
X5552Y15678D01*
X5533Y15675D01*
X5518Y15673D01*
X5511Y15672D01*
X5506D01*
X5501Y15671D01*
X5495D01*
X5476Y15672D01*
X5458Y15674D01*
X5441Y15677D01*
X5426Y15682D01*
X5410Y15687D01*
X5396Y15692D01*
X5384Y15698D01*
X5372Y15705D01*
X5362Y15711D01*
X5353Y15718D01*
X5344Y15723D01*
X5338Y15728D01*
X5333Y15732D01*
X5329Y15736D01*
X5327Y15738D01*
X5326Y15739D01*
X5314Y15752D01*
X5304Y15766D01*
X5295Y15780D01*
X5287Y15794D01*
X5281Y15809D01*
X5275Y15823D01*
X5271Y15837D01*
X5267Y15851D01*
X5264Y15862D01*
X5263Y15874D01*
X5261Y15884D01*
X5260Y15893D01*
X5259Y15901D01*
Y15906D01*
Y15910D01*
Y15911D01*
X5260Y15930D01*
X5262Y15948D01*
X5265Y15964D01*
X5269Y15981D01*
X5274Y15995D01*
X5280Y16010D01*
X5286Y16023D01*
X5292Y16035D01*
X5298Y16045D01*
X5304Y16055D01*
X5310Y16062D01*
X5315Y16069D01*
X5319Y16074D01*
X5323Y16078D01*
X5324Y16080D01*
X5325Y16081D01*
X5338Y16093D01*
X5352Y16103D01*
X5365Y16112D01*
X5380Y16120D01*
X5395Y16127D01*
X5408Y16132D01*
X5422Y16137D01*
X5436Y16140D01*
X5447Y16143D01*
X5459Y16145D01*
X5469Y16147D01*
X5478Y16148D01*
X5486Y16148D01*
X5496D01*
X5520Y16148D01*
D02*
G37*
G36*
X8986Y16322D02*
X9009Y16320D01*
X9030Y16316D01*
X9049Y16312D01*
X9057Y16310D01*
X9064Y16308D01*
X9070Y16306D01*
X9075Y16304D01*
X9079Y16302D01*
X9081Y16302D01*
X9083Y16301D01*
X9084D01*
X9102Y16292D01*
X9118Y16281D01*
X9132Y16271D01*
X9142Y16261D01*
X9152Y16251D01*
X9157Y16244D01*
X9162Y16239D01*
X9162Y16238D01*
Y16237D01*
X9172Y16221D01*
X9178Y16205D01*
X9183Y16189D01*
X9185Y16176D01*
X9187Y16164D01*
X9189Y16155D01*
Y16151D01*
Y16148D01*
Y16148D01*
Y16147D01*
X9188Y16133D01*
X9186Y16119D01*
X9183Y16107D01*
X9180Y16096D01*
X9171Y16074D01*
X9160Y16055D01*
X9155Y16046D01*
X9150Y16040D01*
X9145Y16034D01*
X9141Y16028D01*
X9137Y16025D01*
X9134Y16022D01*
X9132Y16020D01*
X9132Y16019D01*
X9123Y16013D01*
X9113Y16006D01*
X9103Y16000D01*
X9091Y15995D01*
X9069Y15984D01*
X9045Y15974D01*
X9033Y15971D01*
X9023Y15967D01*
X9013Y15964D01*
X9005Y15962D01*
X8999Y15960D01*
X8993Y15958D01*
X8989Y15957D01*
X8988D01*
X8974Y15954D01*
X8961Y15950D01*
X8949Y15947D01*
X8938Y15944D01*
X8929Y15942D01*
X8921Y15940D01*
X8914Y15937D01*
X8907Y15935D01*
X8902Y15934D01*
X8897Y15933D01*
X8891Y15931D01*
X8887Y15929D01*
X8886D01*
X8875Y15924D01*
X8866Y15920D01*
X8857Y15915D01*
X8851Y15911D01*
X8846Y15907D01*
X8844Y15904D01*
X8842Y15903D01*
X8841Y15902D01*
X8836Y15895D01*
X8833Y15889D01*
X8831Y15882D01*
X8829Y15877D01*
X8828Y15872D01*
X8827Y15867D01*
Y15864D01*
Y15863D01*
X8828Y15851D01*
X8832Y15840D01*
X8837Y15829D01*
X8843Y15820D01*
X8849Y15812D01*
X8854Y15807D01*
X8857Y15803D01*
X8859Y15802D01*
X8872Y15794D01*
X8886Y15788D01*
X8902Y15783D01*
X8917Y15780D01*
X8930Y15779D01*
X8941Y15777D01*
X8951D01*
X8972Y15778D01*
X8990Y15781D01*
X9006Y15786D01*
X9019Y15791D01*
X9030Y15797D01*
X9038Y15801D01*
X9042Y15805D01*
X9044Y15806D01*
X9056Y15819D01*
X9065Y15832D01*
X9073Y15848D01*
X9079Y15863D01*
X9083Y15877D01*
X9087Y15888D01*
X9088Y15892D01*
Y15895D01*
X9089Y15897D01*
Y15898D01*
X9213Y15886D01*
X9210Y15867D01*
X9206Y15849D01*
X9201Y15831D01*
X9196Y15816D01*
X9190Y15801D01*
X9183Y15788D01*
X9177Y15776D01*
X9171Y15765D01*
X9164Y15756D01*
X9158Y15748D01*
X9152Y15740D01*
X9147Y15734D01*
X9143Y15729D01*
X9140Y15727D01*
X9138Y15725D01*
X9137Y15724D01*
X9124Y15714D01*
X9111Y15706D01*
X9096Y15698D01*
X9081Y15692D01*
X9066Y15688D01*
X9050Y15683D01*
X9020Y15677D01*
X9007Y15674D01*
X8994Y15672D01*
X8983Y15671D01*
X8973Y15670D01*
X8965Y15669D01*
X8953D01*
X8924Y15670D01*
X8897Y15673D01*
X8874Y15677D01*
X8864Y15678D01*
X8854Y15681D01*
X8845Y15683D01*
X8838Y15685D01*
X8832Y15687D01*
X8826Y15688D01*
X8822Y15690D01*
X8819Y15691D01*
X8817Y15692D01*
X8816D01*
X8796Y15702D01*
X8780Y15713D01*
X8764Y15724D01*
X8753Y15736D01*
X8743Y15746D01*
X8736Y15755D01*
X8733Y15760D01*
X8731Y15761D01*
Y15762D01*
X8721Y15780D01*
X8712Y15798D01*
X8707Y15815D01*
X8703Y15831D01*
X8702Y15844D01*
X8701Y15851D01*
X8700Y15855D01*
Y15859D01*
Y15862D01*
Y15863D01*
Y15864D01*
X8701Y15886D01*
X8703Y15905D01*
X8708Y15923D01*
X8712Y15937D01*
X8717Y15949D01*
X8722Y15957D01*
X8724Y15963D01*
X8725Y15964D01*
X8735Y15979D01*
X8747Y15992D01*
X8759Y16003D01*
X8770Y16012D01*
X8780Y16019D01*
X8788Y16025D01*
X8794Y16028D01*
X8794Y16029D01*
X8795D01*
X8804Y16034D01*
X8814Y16038D01*
X8835Y16046D01*
X8858Y16054D01*
X8880Y16061D01*
X8890Y16064D01*
X8900Y16066D01*
X8909Y16069D01*
X8917Y16071D01*
X8923Y16073D01*
X8927Y16074D01*
X8931Y16075D01*
X8932D01*
X8948Y16079D01*
X8963Y16083D01*
X8977Y16087D01*
X8989Y16090D01*
X8999Y16094D01*
X9009Y16097D01*
X9018Y16101D01*
X9025Y16104D01*
X9031Y16107D01*
X9036Y16109D01*
X9040Y16111D01*
X9043Y16113D01*
X9048Y16116D01*
X9049Y16117D01*
X9055Y16123D01*
X9060Y16129D01*
X9062Y16136D01*
X9064Y16142D01*
X9066Y16147D01*
X9067Y16151D01*
Y16154D01*
Y16155D01*
X9066Y16164D01*
X9064Y16171D01*
X9060Y16179D01*
X9057Y16184D01*
X9053Y16189D01*
X9050Y16191D01*
X9048Y16193D01*
X9047Y16194D01*
X9034Y16202D01*
X9020Y16208D01*
X9006Y16212D01*
X8992Y16215D01*
X8980Y16217D01*
X8970Y16218D01*
X8961D01*
X8942Y16217D01*
X8926Y16214D01*
X8912Y16210D01*
X8901Y16207D01*
X8892Y16203D01*
X8886Y16199D01*
X8882Y16197D01*
X8881Y16196D01*
X8872Y16187D01*
X8864Y16176D01*
X8857Y16165D01*
X8853Y16153D01*
X8849Y16143D01*
X8847Y16135D01*
X8845Y16128D01*
Y16128D01*
Y16127D01*
X8718Y16131D01*
X8719Y16148D01*
X8722Y16162D01*
X8725Y16177D01*
X8730Y16189D01*
X8734Y16202D01*
X8740Y16214D01*
X8745Y16224D01*
X8751Y16234D01*
X8757Y16242D01*
X8763Y16250D01*
X8768Y16256D01*
X8773Y16261D01*
X8776Y16265D01*
X8779Y16268D01*
X8781Y16270D01*
X8782Y16271D01*
X8794Y16280D01*
X8806Y16288D01*
X8820Y16295D01*
X8835Y16302D01*
X8849Y16306D01*
X8864Y16311D01*
X8893Y16317D01*
X8906Y16319D01*
X8918Y16321D01*
X8930Y16322D01*
X8940Y16322D01*
X8948Y16323D01*
X8959D01*
X8986Y16322D01*
D02*
G37*
G36*
X14138Y4869D02*
X13940D01*
X13962Y4840D01*
X13981Y4809D01*
X13990Y4794D01*
X13998Y4779D01*
X14005Y4765D01*
X14012Y4752D01*
X14018Y4740D01*
X14023Y4729D01*
X14028Y4718D01*
X14032Y4710D01*
X14034Y4703D01*
X14036Y4698D01*
X14037Y4695D01*
X14038Y4693D01*
X14045Y4675D01*
X14051Y4657D01*
X14055Y4639D01*
X14060Y4622D01*
X14063Y4605D01*
X14066Y4590D01*
X14069Y4575D01*
X14071Y4561D01*
X14073Y4548D01*
X14074Y4536D01*
X14075Y4527D01*
X14076Y4518D01*
Y4511D01*
X14077Y4506D01*
Y4503D01*
Y4502D01*
X13993D01*
X13992Y4525D01*
X13990Y4548D01*
X13987Y4571D01*
X13986Y4582D01*
X13984Y4592D01*
X13982Y4601D01*
X13980Y4611D01*
X13978Y4618D01*
X13977Y4624D01*
X13976Y4630D01*
X13974Y4634D01*
X13974Y4637D01*
Y4637D01*
X13965Y4666D01*
X13956Y4693D01*
X13951Y4705D01*
X13946Y4717D01*
X13942Y4728D01*
X13937Y4739D01*
X13932Y4748D01*
X13929Y4756D01*
X13925Y4764D01*
X13922Y4770D01*
X13919Y4775D01*
X13917Y4779D01*
X13916Y4781D01*
X13915Y4782D01*
X13908Y4794D01*
X13901Y4806D01*
X13894Y4817D01*
X13888Y4827D01*
X13881Y4836D01*
X13875Y4845D01*
X13869Y4853D01*
X13864Y4860D01*
X13858Y4866D01*
X13854Y4872D01*
X13850Y4876D01*
X13847Y4880D01*
X13844Y4883D01*
X13842Y4885D01*
X13841Y4886D01*
X13840Y4887D01*
Y4950D01*
X14138D01*
Y4869D01*
D02*
G37*
G36*
X14308Y4661D02*
Y4651D01*
X14308Y4642D01*
X14309Y4634D01*
X14310Y4626D01*
X14311Y4620D01*
X14312Y4614D01*
X14313Y4609D01*
X14314Y4604D01*
X14317Y4597D01*
X14319Y4592D01*
X14320Y4589D01*
X14321Y4588D01*
X14326Y4582D01*
X14333Y4578D01*
X14340Y4575D01*
X14347Y4573D01*
X14353Y4572D01*
X14358Y4571D01*
X14363D01*
X14374Y4573D01*
X14383Y4575D01*
X14391Y4579D01*
X14397Y4584D01*
X14402Y4588D01*
X14405Y4592D01*
X14407Y4594D01*
X14408Y4596D01*
X14411Y4603D01*
X14414Y4611D01*
X14416Y4620D01*
X14417Y4629D01*
X14419Y4637D01*
Y4644D01*
X14419Y4647D01*
Y4649D01*
Y4650D01*
Y4651D01*
X14506Y4641D01*
X14506Y4628D01*
X14505Y4615D01*
X14503Y4603D01*
X14501Y4593D01*
X14498Y4583D01*
X14495Y4574D01*
X14492Y4566D01*
X14488Y4558D01*
X14485Y4552D01*
X14482Y4546D01*
X14479Y4542D01*
X14476Y4538D01*
X14474Y4534D01*
X14472Y4533D01*
X14471Y4531D01*
X14470Y4531D01*
X14463Y4524D01*
X14455Y4518D01*
X14447Y4514D01*
X14439Y4509D01*
X14430Y4506D01*
X14422Y4502D01*
X14405Y4498D01*
X14397Y4496D01*
X14390Y4495D01*
X14384Y4494D01*
X14378Y4494D01*
X14373Y4493D01*
X14367D01*
X14346Y4494D01*
X14328Y4497D01*
X14312Y4500D01*
X14306Y4503D01*
X14299Y4505D01*
X14294Y4507D01*
X14289Y4510D01*
X14285Y4512D01*
X14281Y4513D01*
X14278Y4515D01*
X14276Y4515D01*
X14276Y4517D01*
X14275D01*
X14262Y4527D01*
X14253Y4537D01*
X14244Y4548D01*
X14238Y4557D01*
X14232Y4567D01*
X14229Y4574D01*
X14228Y4576D01*
X14227Y4578D01*
X14226Y4580D01*
Y4580D01*
X14223Y4593D01*
X14220Y4607D01*
X14218Y4622D01*
X14217Y4636D01*
X14217Y4648D01*
X14216Y4654D01*
Y4658D01*
Y4662D01*
Y4665D01*
Y4667D01*
Y4668D01*
Y4956D01*
X14308D01*
Y4661D01*
D02*
G37*
G36*
X1193Y4956D02*
X1206Y4954D01*
X1218Y4952D01*
X1229Y4948D01*
X1240Y4944D01*
X1250Y4939D01*
X1259Y4934D01*
X1267Y4929D01*
X1275Y4924D01*
X1281Y4919D01*
X1286Y4914D01*
X1291Y4910D01*
X1295Y4906D01*
X1298Y4904D01*
X1299Y4902D01*
X1300Y4901D01*
X1307Y4890D01*
X1315Y4878D01*
X1321Y4864D01*
X1326Y4850D01*
X1330Y4835D01*
X1334Y4820D01*
X1338Y4805D01*
X1340Y4790D01*
X1342Y4777D01*
X1343Y4763D01*
X1344Y4752D01*
X1345Y4741D01*
X1345Y4733D01*
Y4726D01*
Y4724D01*
Y4722D01*
Y4721D01*
Y4721D01*
X1345Y4699D01*
X1344Y4678D01*
X1342Y4659D01*
X1338Y4642D01*
X1335Y4626D01*
X1332Y4611D01*
X1328Y4599D01*
X1323Y4587D01*
X1319Y4577D01*
X1315Y4569D01*
X1312Y4561D01*
X1308Y4555D01*
X1305Y4551D01*
X1303Y4548D01*
X1302Y4546D01*
X1302Y4545D01*
X1293Y4536D01*
X1284Y4527D01*
X1275Y4520D01*
X1265Y4514D01*
X1256Y4509D01*
X1246Y4505D01*
X1237Y4501D01*
X1228Y4498D01*
X1220Y4496D01*
X1212Y4494D01*
X1205Y4494D01*
X1199Y4493D01*
X1195D01*
X1191Y4492D01*
X1188D01*
X1176Y4493D01*
X1165Y4494D01*
X1155Y4496D01*
X1145Y4498D01*
X1135Y4502D01*
X1126Y4505D01*
X1119Y4509D01*
X1111Y4513D01*
X1105Y4517D01*
X1099Y4521D01*
X1094Y4524D01*
X1090Y4527D01*
X1087Y4530D01*
X1085Y4532D01*
X1084Y4533D01*
X1083Y4534D01*
X1076Y4542D01*
X1069Y4551D01*
X1064Y4560D01*
X1059Y4569D01*
X1055Y4578D01*
X1052Y4588D01*
X1047Y4606D01*
X1045Y4614D01*
X1044Y4622D01*
X1043Y4628D01*
X1042Y4634D01*
X1042Y4639D01*
Y4643D01*
Y4645D01*
Y4646D01*
X1042Y4658D01*
X1044Y4670D01*
X1046Y4681D01*
X1048Y4691D01*
X1051Y4700D01*
X1054Y4709D01*
X1058Y4718D01*
X1061Y4725D01*
X1065Y4731D01*
X1069Y4737D01*
X1072Y4742D01*
X1075Y4746D01*
X1077Y4750D01*
X1079Y4752D01*
X1080Y4753D01*
X1081Y4754D01*
X1088Y4761D01*
X1096Y4767D01*
X1104Y4773D01*
X1112Y4778D01*
X1120Y4782D01*
X1128Y4785D01*
X1142Y4790D01*
X1149Y4792D01*
X1155Y4794D01*
X1160Y4794D01*
X1165Y4795D01*
X1169Y4796D01*
X1174D01*
X1183Y4795D01*
X1192Y4794D01*
X1200Y4792D01*
X1208Y4790D01*
X1221Y4783D01*
X1233Y4777D01*
X1242Y4769D01*
X1246Y4766D01*
X1250Y4763D01*
X1252Y4760D01*
X1254Y4759D01*
X1255Y4758D01*
X1256Y4757D01*
X1254Y4771D01*
X1253Y4784D01*
X1252Y4796D01*
X1250Y4806D01*
X1248Y4815D01*
X1246Y4824D01*
X1244Y4831D01*
X1241Y4838D01*
X1239Y4843D01*
X1238Y4848D01*
X1236Y4852D01*
X1235Y4855D01*
X1233Y4857D01*
X1232Y4859D01*
X1231Y4860D01*
X1224Y4868D01*
X1216Y4874D01*
X1208Y4879D01*
X1201Y4882D01*
X1195Y4883D01*
X1189Y4884D01*
X1186Y4885D01*
X1185D01*
X1178Y4884D01*
X1170Y4883D01*
X1164Y4881D01*
X1160Y4879D01*
X1156Y4876D01*
X1153Y4874D01*
X1151Y4873D01*
X1151Y4872D01*
X1146Y4867D01*
X1143Y4861D01*
X1139Y4855D01*
X1138Y4849D01*
X1136Y4843D01*
X1135Y4838D01*
X1134Y4836D01*
Y4834D01*
X1050Y4843D01*
X1055Y4863D01*
X1061Y4880D01*
X1069Y4894D01*
X1076Y4906D01*
X1083Y4916D01*
X1086Y4919D01*
X1089Y4922D01*
X1091Y4924D01*
X1093Y4926D01*
X1094Y4927D01*
X1094D01*
X1101Y4933D01*
X1107Y4937D01*
X1122Y4945D01*
X1136Y4950D01*
X1149Y4953D01*
X1161Y4956D01*
X1166Y4956D01*
X1171D01*
X1174Y4957D01*
X1180D01*
X1193Y4956D01*
D02*
G37*
G36*
X1515Y4660D02*
Y4650D01*
X1516Y4641D01*
X1517Y4633D01*
X1517Y4625D01*
X1519Y4618D01*
X1519Y4613D01*
X1521Y4607D01*
X1522Y4603D01*
X1525Y4596D01*
X1527Y4591D01*
X1528Y4588D01*
X1529Y4587D01*
X1534Y4581D01*
X1540Y4577D01*
X1548Y4574D01*
X1555Y4572D01*
X1561Y4571D01*
X1566Y4570D01*
X1571D01*
X1582Y4571D01*
X1591Y4574D01*
X1599Y4578D01*
X1605Y4582D01*
X1610Y4586D01*
X1613Y4590D01*
X1615Y4593D01*
X1616Y4594D01*
X1619Y4601D01*
X1622Y4609D01*
X1624Y4618D01*
X1625Y4628D01*
X1626Y4636D01*
Y4643D01*
X1627Y4645D01*
Y4647D01*
Y4649D01*
Y4649D01*
X1714Y4639D01*
X1714Y4626D01*
X1713Y4614D01*
X1711Y4602D01*
X1708Y4592D01*
X1706Y4582D01*
X1703Y4573D01*
X1700Y4565D01*
X1696Y4557D01*
X1692Y4551D01*
X1689Y4545D01*
X1687Y4540D01*
X1684Y4536D01*
X1681Y4533D01*
X1679Y4531D01*
X1679Y4530D01*
X1678Y4529D01*
X1671Y4523D01*
X1663Y4517D01*
X1655Y4512D01*
X1647Y4508D01*
X1638Y4504D01*
X1630Y4501D01*
X1612Y4496D01*
X1605Y4495D01*
X1597Y4494D01*
X1591Y4493D01*
X1586Y4493D01*
X1581Y4492D01*
X1574D01*
X1554Y4493D01*
X1536Y4496D01*
X1520Y4499D01*
X1513Y4502D01*
X1507Y4504D01*
X1502Y4506D01*
X1496Y4508D01*
X1492Y4510D01*
X1489Y4512D01*
X1486Y4514D01*
X1484Y4514D01*
X1483Y4515D01*
X1483D01*
X1470Y4525D01*
X1460Y4536D01*
X1452Y4546D01*
X1445Y4556D01*
X1440Y4565D01*
X1437Y4573D01*
X1435Y4575D01*
X1435Y4577D01*
X1434Y4578D01*
Y4579D01*
X1431Y4592D01*
X1428Y4606D01*
X1426Y4620D01*
X1425Y4634D01*
X1424Y4647D01*
X1424Y4653D01*
Y4657D01*
Y4661D01*
Y4664D01*
Y4666D01*
Y4666D01*
Y4954D01*
X1515D01*
Y4660D01*
D02*
G37*
G36*
X1214Y13224D02*
X1226Y13223D01*
X1238Y13220D01*
X1248Y13217D01*
X1256Y13215D01*
X1262Y13212D01*
X1266Y13211D01*
X1267Y13210D01*
X1267D01*
X1278Y13204D01*
X1288Y13198D01*
X1296Y13191D01*
X1302Y13185D01*
X1307Y13179D01*
X1311Y13175D01*
X1314Y13172D01*
X1315Y13171D01*
X1321Y13161D01*
X1326Y13151D01*
X1330Y13139D01*
X1334Y13129D01*
X1336Y13119D01*
X1338Y13112D01*
X1339Y13109D01*
Y13107D01*
X1340Y13105D01*
Y13105D01*
X1260Y13092D01*
X1258Y13102D01*
X1255Y13111D01*
X1252Y13119D01*
X1249Y13125D01*
X1246Y13130D01*
X1243Y13134D01*
X1241Y13136D01*
X1241Y13137D01*
X1235Y13142D01*
X1228Y13146D01*
X1221Y13149D01*
X1216Y13151D01*
X1210Y13152D01*
X1206Y13153D01*
X1202D01*
X1195Y13152D01*
X1187Y13151D01*
X1181Y13148D01*
X1176Y13146D01*
X1171Y13143D01*
X1168Y13141D01*
X1166Y13139D01*
X1166Y13139D01*
X1161Y13133D01*
X1158Y13127D01*
X1155Y13121D01*
X1154Y13115D01*
X1153Y13110D01*
X1152Y13106D01*
Y13103D01*
Y13102D01*
X1153Y13092D01*
X1155Y13084D01*
X1158Y13076D01*
X1161Y13071D01*
X1165Y13065D01*
X1168Y13062D01*
X1170Y13059D01*
X1171Y13059D01*
X1179Y13053D01*
X1187Y13050D01*
X1197Y13047D01*
X1205Y13045D01*
X1213Y13044D01*
X1220Y13044D01*
X1225D01*
X1235Y12973D01*
X1226Y12975D01*
X1219Y12977D01*
X1212Y12979D01*
X1206Y12979D01*
X1201Y12980D01*
X1195D01*
X1185Y12979D01*
X1178Y12977D01*
X1170Y12974D01*
X1164Y12970D01*
X1159Y12967D01*
X1155Y12964D01*
X1153Y12961D01*
X1152Y12960D01*
X1146Y12952D01*
X1141Y12944D01*
X1138Y12935D01*
X1136Y12927D01*
X1134Y12919D01*
X1134Y12913D01*
Y12909D01*
Y12908D01*
Y12908D01*
X1134Y12895D01*
X1136Y12884D01*
X1139Y12874D01*
X1143Y12866D01*
X1147Y12861D01*
X1149Y12856D01*
X1152Y12853D01*
X1153Y12852D01*
X1160Y12846D01*
X1168Y12840D01*
X1175Y12837D01*
X1182Y12834D01*
X1189Y12833D01*
X1193Y12832D01*
X1197Y12832D01*
X1198D01*
X1207Y12832D01*
X1215Y12834D01*
X1222Y12837D01*
X1229Y12840D01*
X1233Y12843D01*
X1237Y12846D01*
X1240Y12847D01*
X1241Y12848D01*
X1246Y12855D01*
X1252Y12863D01*
X1255Y12872D01*
X1258Y12880D01*
X1260Y12887D01*
X1262Y12893D01*
X1262Y12897D01*
Y12897D01*
Y12898D01*
X1346Y12887D01*
X1345Y12877D01*
X1342Y12867D01*
X1336Y12849D01*
X1329Y12833D01*
X1324Y12826D01*
X1321Y12820D01*
X1317Y12814D01*
X1313Y12809D01*
X1309Y12805D01*
X1306Y12802D01*
X1303Y12799D01*
X1302Y12797D01*
X1300Y12796D01*
X1300Y12795D01*
X1292Y12789D01*
X1283Y12783D01*
X1275Y12779D01*
X1266Y12775D01*
X1249Y12768D01*
X1233Y12764D01*
X1225Y12763D01*
X1219Y12762D01*
X1213Y12761D01*
X1208Y12760D01*
X1203Y12760D01*
X1197D01*
X1185Y12760D01*
X1174Y12762D01*
X1163Y12764D01*
X1153Y12766D01*
X1143Y12769D01*
X1134Y12773D01*
X1126Y12777D01*
X1119Y12781D01*
X1112Y12785D01*
X1105Y12788D01*
X1101Y12792D01*
X1096Y12795D01*
X1093Y12798D01*
X1090Y12800D01*
X1089Y12801D01*
X1088Y12802D01*
X1080Y12809D01*
X1074Y12818D01*
X1068Y12826D01*
X1063Y12835D01*
X1059Y12844D01*
X1055Y12853D01*
X1050Y12868D01*
X1048Y12876D01*
X1047Y12883D01*
X1046Y12889D01*
X1045Y12894D01*
X1044Y12898D01*
Y12901D01*
Y12903D01*
Y12904D01*
X1046Y12919D01*
X1048Y12932D01*
X1052Y12945D01*
X1056Y12954D01*
X1061Y12963D01*
X1064Y12969D01*
X1067Y12973D01*
X1068Y12974D01*
X1077Y12984D01*
X1088Y12992D01*
X1098Y12999D01*
X1108Y13004D01*
X1117Y13008D01*
X1124Y13010D01*
X1126Y13011D01*
X1128D01*
X1130Y13012D01*
X1130D01*
X1119Y13019D01*
X1109Y13027D01*
X1100Y13034D01*
X1092Y13042D01*
X1086Y13050D01*
X1080Y13058D01*
X1077Y13066D01*
X1073Y13073D01*
X1070Y13080D01*
X1068Y13087D01*
X1067Y13093D01*
X1066Y13098D01*
X1065Y13102D01*
X1065Y13105D01*
Y13107D01*
Y13108D01*
X1065Y13116D01*
X1066Y13123D01*
X1070Y13137D01*
X1075Y13151D01*
X1080Y13162D01*
X1086Y13171D01*
X1092Y13177D01*
X1094Y13180D01*
X1096Y13182D01*
X1096Y13183D01*
X1097Y13183D01*
X1104Y13191D01*
X1113Y13197D01*
X1120Y13202D01*
X1129Y13207D01*
X1138Y13212D01*
X1147Y13215D01*
X1163Y13219D01*
X1170Y13221D01*
X1178Y13223D01*
X1183Y13223D01*
X1189Y13224D01*
X1194Y13225D01*
X1200D01*
X1214Y13224D01*
D02*
G37*
G36*
X1513Y12928D02*
Y12918D01*
X1513Y12908D01*
X1514Y12901D01*
X1515Y12893D01*
X1516Y12886D01*
X1517Y12880D01*
X1518Y12875D01*
X1519Y12870D01*
X1522Y12863D01*
X1524Y12859D01*
X1525Y12855D01*
X1526Y12855D01*
X1531Y12849D01*
X1538Y12845D01*
X1545Y12842D01*
X1552Y12840D01*
X1558Y12838D01*
X1563Y12838D01*
X1569D01*
X1579Y12839D01*
X1588Y12842D01*
X1596Y12846D01*
X1602Y12850D01*
X1607Y12854D01*
X1611Y12858D01*
X1612Y12861D01*
X1613Y12862D01*
X1616Y12869D01*
X1619Y12877D01*
X1621Y12886D01*
X1622Y12895D01*
X1624Y12904D01*
Y12910D01*
X1624Y12913D01*
Y12915D01*
Y12916D01*
Y12917D01*
X1712Y12907D01*
X1711Y12894D01*
X1710Y12882D01*
X1708Y12870D01*
X1706Y12859D01*
X1703Y12849D01*
X1700Y12840D01*
X1697Y12832D01*
X1693Y12825D01*
X1690Y12819D01*
X1687Y12813D01*
X1684Y12808D01*
X1681Y12804D01*
X1679Y12801D01*
X1677Y12799D01*
X1676Y12798D01*
X1675Y12797D01*
X1668Y12790D01*
X1660Y12785D01*
X1652Y12780D01*
X1644Y12775D01*
X1635Y12772D01*
X1627Y12769D01*
X1610Y12764D01*
X1602Y12763D01*
X1595Y12762D01*
X1589Y12761D01*
X1583Y12760D01*
X1578Y12760D01*
X1572D01*
X1551Y12761D01*
X1533Y12764D01*
X1517Y12767D01*
X1511Y12769D01*
X1504Y12771D01*
X1499Y12773D01*
X1494Y12776D01*
X1490Y12778D01*
X1487Y12779D01*
X1483Y12781D01*
X1481Y12782D01*
X1481Y12783D01*
X1480D01*
X1468Y12793D01*
X1458Y12804D01*
X1449Y12814D01*
X1443Y12824D01*
X1437Y12833D01*
X1434Y12840D01*
X1433Y12843D01*
X1432Y12845D01*
X1431Y12846D01*
Y12847D01*
X1428Y12859D01*
X1426Y12874D01*
X1424Y12888D01*
X1422Y12902D01*
X1422Y12914D01*
X1421Y12920D01*
Y12925D01*
Y12929D01*
Y12931D01*
Y12933D01*
Y12934D01*
Y13222D01*
X1513D01*
Y12928D01*
D02*
G37*
G36*
X1202Y8893D02*
X1213Y8893D01*
X1233Y8889D01*
X1250Y8884D01*
X1258Y8881D01*
X1265Y8878D01*
X1272Y8876D01*
X1277Y8872D01*
X1282Y8870D01*
X1286Y8868D01*
X1289Y8865D01*
X1291Y8864D01*
X1293Y8863D01*
X1293Y8862D01*
X1301Y8856D01*
X1307Y8849D01*
X1313Y8841D01*
X1318Y8833D01*
X1326Y8816D01*
X1333Y8800D01*
X1335Y8791D01*
X1337Y8784D01*
X1339Y8777D01*
X1339Y8771D01*
X1341Y8766D01*
Y8763D01*
X1341Y8760D01*
Y8759D01*
X1255Y8751D01*
X1253Y8764D01*
X1251Y8775D01*
X1248Y8785D01*
X1245Y8792D01*
X1242Y8798D01*
X1240Y8802D01*
X1238Y8805D01*
X1237Y8805D01*
X1230Y8811D01*
X1223Y8815D01*
X1216Y8818D01*
X1209Y8820D01*
X1203Y8821D01*
X1198Y8822D01*
X1193D01*
X1183Y8821D01*
X1175Y8819D01*
X1167Y8817D01*
X1161Y8814D01*
X1156Y8811D01*
X1152Y8809D01*
X1150Y8807D01*
X1150Y8806D01*
X1144Y8800D01*
X1140Y8792D01*
X1138Y8785D01*
X1136Y8778D01*
X1135Y8771D01*
X1134Y8765D01*
Y8762D01*
Y8761D01*
Y8761D01*
X1135Y8751D01*
X1137Y8742D01*
X1140Y8733D01*
X1143Y8725D01*
X1146Y8717D01*
X1150Y8712D01*
X1152Y8709D01*
X1152Y8708D01*
X1155Y8704D01*
X1159Y8699D01*
X1164Y8693D01*
X1169Y8688D01*
X1181Y8676D01*
X1193Y8663D01*
X1205Y8651D01*
X1210Y8646D01*
X1215Y8642D01*
X1219Y8638D01*
X1222Y8636D01*
X1224Y8634D01*
X1224Y8633D01*
X1238Y8620D01*
X1249Y8609D01*
X1261Y8597D01*
X1270Y8588D01*
X1280Y8578D01*
X1287Y8569D01*
X1295Y8561D01*
X1301Y8553D01*
X1306Y8546D01*
X1310Y8540D01*
X1314Y8536D01*
X1317Y8531D01*
X1320Y8529D01*
X1321Y8526D01*
X1322Y8525D01*
Y8524D01*
X1331Y8509D01*
X1337Y8493D01*
X1343Y8479D01*
X1346Y8466D01*
X1349Y8454D01*
X1350Y8449D01*
X1350Y8445D01*
X1351Y8442D01*
X1352Y8439D01*
Y8438D01*
Y8437D01*
X1047D01*
Y8518D01*
X1220D01*
X1215Y8527D01*
X1209Y8534D01*
X1206Y8537D01*
X1204Y8540D01*
X1203Y8541D01*
X1202Y8542D01*
X1200Y8544D01*
X1197Y8548D01*
X1189Y8555D01*
X1181Y8563D01*
X1172Y8572D01*
X1163Y8580D01*
X1156Y8586D01*
X1154Y8589D01*
X1152Y8591D01*
X1150Y8592D01*
X1150Y8592D01*
X1135Y8606D01*
X1123Y8617D01*
X1114Y8628D01*
X1106Y8636D01*
X1100Y8642D01*
X1096Y8647D01*
X1093Y8650D01*
X1093Y8651D01*
X1084Y8662D01*
X1077Y8672D01*
X1071Y8682D01*
X1066Y8691D01*
X1062Y8698D01*
X1060Y8704D01*
X1058Y8707D01*
X1058Y8708D01*
X1054Y8719D01*
X1051Y8729D01*
X1049Y8739D01*
X1048Y8748D01*
X1047Y8756D01*
X1047Y8761D01*
Y8765D01*
Y8767D01*
X1047Y8777D01*
X1049Y8786D01*
X1050Y8796D01*
X1053Y8804D01*
X1059Y8819D01*
X1066Y8832D01*
X1070Y8838D01*
X1073Y8843D01*
X1076Y8847D01*
X1079Y8851D01*
X1082Y8853D01*
X1083Y8856D01*
X1085Y8857D01*
X1085Y8857D01*
X1093Y8864D01*
X1101Y8870D01*
X1109Y8874D01*
X1118Y8878D01*
X1135Y8885D01*
X1152Y8889D01*
X1160Y8891D01*
X1167Y8892D01*
X1174Y8893D01*
X1180Y8893D01*
X1184Y8894D01*
X1191D01*
X1202Y8893D01*
D02*
G37*
G36*
X1510Y8597D02*
Y8587D01*
X1511Y8578D01*
X1512Y8570D01*
X1512Y8562D01*
X1514Y8555D01*
X1514Y8550D01*
X1516Y8544D01*
X1517Y8540D01*
X1520Y8533D01*
X1522Y8528D01*
X1523Y8525D01*
X1524Y8524D01*
X1529Y8518D01*
X1535Y8514D01*
X1543Y8511D01*
X1550Y8509D01*
X1556Y8508D01*
X1561Y8507D01*
X1566D01*
X1577Y8508D01*
X1586Y8511D01*
X1594Y8515D01*
X1600Y8519D01*
X1605Y8523D01*
X1608Y8527D01*
X1610Y8530D01*
X1611Y8531D01*
X1614Y8538D01*
X1617Y8546D01*
X1619Y8555D01*
X1620Y8565D01*
X1621Y8573D01*
Y8580D01*
X1622Y8582D01*
Y8584D01*
Y8586D01*
Y8586D01*
X1709Y8576D01*
X1709Y8563D01*
X1708Y8551D01*
X1706Y8539D01*
X1703Y8529D01*
X1701Y8519D01*
X1698Y8510D01*
X1695Y8502D01*
X1691Y8494D01*
X1688Y8488D01*
X1684Y8482D01*
X1682Y8477D01*
X1679Y8473D01*
X1676Y8470D01*
X1674Y8468D01*
X1674Y8467D01*
X1673Y8466D01*
X1666Y8460D01*
X1658Y8454D01*
X1650Y8449D01*
X1642Y8445D01*
X1633Y8441D01*
X1625Y8438D01*
X1608Y8433D01*
X1600Y8432D01*
X1592Y8431D01*
X1587Y8430D01*
X1581Y8430D01*
X1576Y8429D01*
X1570D01*
X1549Y8430D01*
X1531Y8433D01*
X1515Y8436D01*
X1508Y8439D01*
X1502Y8441D01*
X1497Y8443D01*
X1491Y8445D01*
X1488Y8447D01*
X1484Y8449D01*
X1481Y8451D01*
X1479Y8451D01*
X1478Y8452D01*
X1478D01*
X1465Y8462D01*
X1455Y8473D01*
X1447Y8483D01*
X1440Y8493D01*
X1435Y8502D01*
X1432Y8510D01*
X1430Y8512D01*
X1430Y8514D01*
X1429Y8515D01*
Y8516D01*
X1426Y8529D01*
X1423Y8543D01*
X1421Y8557D01*
X1420Y8571D01*
X1419Y8584D01*
X1419Y8590D01*
Y8594D01*
Y8598D01*
Y8601D01*
Y8603D01*
Y8603D01*
Y8891D01*
X1510D01*
Y8597D01*
D02*
G37*
G36*
X7356Y6724D02*
X7340Y6718D01*
X7327Y6709D01*
X7314Y6700D01*
X7303Y6691D01*
X7295Y6683D01*
X7288Y6676D01*
X7285Y6673D01*
X7283Y6671D01*
X7283Y6670D01*
X7282Y6669D01*
X7272Y6655D01*
X7262Y6641D01*
X7255Y6628D01*
X7250Y6617D01*
X7246Y6608D01*
X7243Y6601D01*
X7242Y6599D01*
X7241Y6597D01*
X7241Y6596D01*
Y6596D01*
X7162D01*
X7171Y6619D01*
X7181Y6640D01*
X7186Y6650D01*
X7192Y6659D01*
X7197Y6668D01*
X7203Y6676D01*
X7208Y6683D01*
X7213Y6689D01*
X7217Y6695D01*
X7220Y6699D01*
X7224Y6703D01*
X7226Y6706D01*
X7227Y6707D01*
X7228Y6708D01*
X6899D01*
Y6795D01*
X7356D01*
Y6724D01*
D02*
G37*
G36*
X7353Y6411D02*
X7047D01*
X7353Y6223D01*
Y6134D01*
X6899D01*
Y6219D01*
X7198D01*
X6899Y6403D01*
Y6495D01*
X7353D01*
Y6411D01*
D02*
G37*
G36*
Y5953D02*
X7047D01*
X7353Y5765D01*
Y5677D01*
X6899D01*
Y5761D01*
X7198D01*
X6899Y5945D01*
Y6037D01*
X7353D01*
Y5953D01*
D02*
G37*
G36*
X7146Y5604D02*
X7165Y5602D01*
X7182Y5599D01*
X7199Y5595D01*
X7215Y5591D01*
X7229Y5585D01*
X7242Y5580D01*
X7253Y5574D01*
X7264Y5568D01*
X7273Y5563D01*
X7281Y5558D01*
X7287Y5553D01*
X7292Y5550D01*
X7296Y5547D01*
X7298Y5545D01*
X7299Y5544D01*
X7310Y5532D01*
X7320Y5520D01*
X7328Y5507D01*
X7335Y5494D01*
X7341Y5480D01*
X7346Y5467D01*
X7350Y5453D01*
X7354Y5441D01*
X7356Y5429D01*
X7358Y5418D01*
X7360Y5408D01*
X7361Y5400D01*
Y5393D01*
X7361Y5388D01*
Y5383D01*
X7361Y5364D01*
X7359Y5345D01*
X7356Y5328D01*
X7352Y5314D01*
X7350Y5308D01*
X7349Y5302D01*
X7348Y5297D01*
X7346Y5293D01*
X7345Y5290D01*
X7344Y5288D01*
X7343Y5286D01*
Y5286D01*
X7338Y5274D01*
X7331Y5263D01*
X7324Y5253D01*
X7318Y5244D01*
X7312Y5237D01*
X7306Y5231D01*
X7303Y5228D01*
X7302Y5227D01*
X7302Y5227D01*
X7291Y5217D01*
X7280Y5209D01*
X7270Y5202D01*
X7260Y5196D01*
X7252Y5191D01*
X7245Y5187D01*
X7243Y5186D01*
X7241Y5185D01*
X7240Y5185D01*
X7239D01*
X7221Y5178D01*
X7201Y5173D01*
X7182Y5169D01*
X7163Y5167D01*
X7155Y5166D01*
X7147Y5166D01*
X7140Y5165D01*
X7135D01*
X7129Y5164D01*
X7126D01*
X7123D01*
X7123D01*
X7103Y5165D01*
X7084Y5167D01*
X7066Y5169D01*
X7050Y5173D01*
X7035Y5178D01*
X7021Y5183D01*
X7008Y5188D01*
X6997Y5194D01*
X6986Y5200D01*
X6978Y5205D01*
X6970Y5210D01*
X6963Y5215D01*
X6959Y5219D01*
X6955Y5221D01*
X6953Y5223D01*
X6952Y5224D01*
X6941Y5236D01*
X6932Y5248D01*
X6923Y5261D01*
X6917Y5274D01*
X6911Y5288D01*
X6906Y5301D01*
X6902Y5314D01*
X6898Y5327D01*
X6896Y5339D01*
X6894Y5350D01*
X6892Y5360D01*
X6892Y5368D01*
X6891Y5375D01*
X6890Y5380D01*
Y5385D01*
X6891Y5403D01*
X6893Y5420D01*
X6896Y5436D01*
X6900Y5452D01*
X6905Y5466D01*
X6910Y5479D01*
X6915Y5491D01*
X6921Y5502D01*
X6927Y5511D01*
X6932Y5520D01*
X6938Y5527D01*
X6942Y5533D01*
X6946Y5538D01*
X6950Y5541D01*
X6951Y5543D01*
X6952Y5544D01*
X6965Y5555D01*
X6978Y5564D01*
X6992Y5572D01*
X7005Y5579D01*
X7020Y5585D01*
X7034Y5590D01*
X7049Y5594D01*
X7062Y5597D01*
X7075Y5599D01*
X7087Y5601D01*
X7098Y5602D01*
X7107Y5604D01*
X7115D01*
X7121Y5604D01*
X7124D01*
X7125D01*
X7146Y5604D01*
D02*
G37*
G36*
X7066Y5015D02*
X7048Y5009D01*
X7033Y5003D01*
X7020Y4998D01*
X7010Y4991D01*
X7002Y4986D01*
X6997Y4981D01*
X6993Y4978D01*
X6992Y4977D01*
X6984Y4966D01*
X6979Y4956D01*
X6975Y4945D01*
X6972Y4936D01*
X6971Y4927D01*
X6970Y4920D01*
X6969Y4918D01*
Y4914D01*
X6970Y4905D01*
X6971Y4897D01*
X6975Y4881D01*
X6980Y4867D01*
X6988Y4856D01*
X6994Y4847D01*
X6999Y4840D01*
X7002Y4838D01*
X7004Y4836D01*
X7005Y4835D01*
X7005Y4834D01*
X7013Y4829D01*
X7021Y4824D01*
X7030Y4820D01*
X7040Y4817D01*
X7060Y4811D01*
X7081Y4807D01*
X7091Y4806D01*
X7099Y4805D01*
X7108Y4804D01*
X7115D01*
X7120Y4803D01*
X7125D01*
X7128D01*
X7129D01*
X7144Y4804D01*
X7157Y4805D01*
X7170Y4806D01*
X7182Y4808D01*
X7192Y4811D01*
X7202Y4813D01*
X7211Y4816D01*
X7218Y4819D01*
X7225Y4822D01*
X7231Y4824D01*
X7236Y4827D01*
X7239Y4830D01*
X7243Y4832D01*
X7245Y4833D01*
X7246Y4834D01*
X7247D01*
X7253Y4840D01*
X7259Y4847D01*
X7264Y4853D01*
X7268Y4860D01*
X7274Y4874D01*
X7279Y4887D01*
X7281Y4899D01*
X7282Y4904D01*
X7283Y4908D01*
X7283Y4912D01*
Y4916D01*
X7283Y4929D01*
X7280Y4941D01*
X7277Y4952D01*
X7273Y4961D01*
X7269Y4968D01*
X7266Y4973D01*
X7263Y4977D01*
X7262Y4978D01*
X7255Y4986D01*
X7245Y4994D01*
X7236Y5000D01*
X7227Y5005D01*
X7219Y5008D01*
X7213Y5010D01*
X7211Y5011D01*
X7209D01*
X7208Y5012D01*
X7207D01*
X7229Y5103D01*
X7248Y5096D01*
X7264Y5089D01*
X7279Y5081D01*
X7291Y5074D01*
X7300Y5066D01*
X7304Y5064D01*
X7307Y5061D01*
X7309Y5059D01*
X7311Y5057D01*
X7312Y5057D01*
Y5056D01*
X7321Y5046D01*
X7329Y5035D01*
X7335Y5024D01*
X7340Y5013D01*
X7346Y5002D01*
X7350Y4990D01*
X7353Y4979D01*
X7356Y4969D01*
X7358Y4959D01*
X7359Y4950D01*
X7360Y4942D01*
X7361Y4935D01*
X7361Y4929D01*
Y4921D01*
X7361Y4904D01*
X7359Y4887D01*
X7356Y4872D01*
X7352Y4857D01*
X7347Y4843D01*
X7342Y4830D01*
X7336Y4819D01*
X7330Y4809D01*
X7324Y4799D01*
X7318Y4791D01*
X7313Y4784D01*
X7308Y4778D01*
X7304Y4773D01*
X7301Y4770D01*
X7299Y4768D01*
X7299Y4767D01*
X7286Y4757D01*
X7273Y4748D01*
X7259Y4740D01*
X7245Y4734D01*
X7230Y4728D01*
X7215Y4723D01*
X7201Y4719D01*
X7187Y4716D01*
X7173Y4714D01*
X7161Y4712D01*
X7150Y4711D01*
X7141Y4710D01*
X7133D01*
X7127Y4709D01*
X7123D01*
X7123D01*
X7122D01*
X7102Y4710D01*
X7084Y4712D01*
X7066Y4714D01*
X7051Y4718D01*
X7035Y4722D01*
X7021Y4727D01*
X7009Y4733D01*
X6997Y4738D01*
X6987Y4743D01*
X6978Y4748D01*
X6971Y4754D01*
X6964Y4757D01*
X6959Y4761D01*
X6955Y4764D01*
X6953Y4766D01*
X6953Y4767D01*
X6942Y4778D01*
X6932Y4790D01*
X6924Y4802D01*
X6917Y4815D01*
X6911Y4827D01*
X6906Y4839D01*
X6902Y4851D01*
X6899Y4862D01*
X6896Y4874D01*
X6894Y4883D01*
X6893Y4893D01*
X6892Y4900D01*
X6892Y4906D01*
X6891Y4911D01*
Y4915D01*
X6892Y4929D01*
X6892Y4941D01*
X6894Y4954D01*
X6897Y4965D01*
X6900Y4975D01*
X6902Y4985D01*
X6906Y4994D01*
X6910Y5003D01*
X6913Y5010D01*
X6916Y5017D01*
X6919Y5023D01*
X6921Y5027D01*
X6924Y5031D01*
X6926Y5034D01*
X6927Y5035D01*
X6927Y5036D01*
X6934Y5044D01*
X6942Y5052D01*
X6960Y5066D01*
X6978Y5078D01*
X6996Y5087D01*
X7005Y5091D01*
X7013Y5095D01*
X7020Y5097D01*
X7026Y5100D01*
X7031Y5102D01*
X7035Y5103D01*
X7037Y5104D01*
X7038D01*
X7066Y5015D01*
D02*
G37*
%LPC*%
G36*
X5365Y7952D02*
X5192Y7834D01*
X5365D01*
Y7952D01*
D02*
G37*
G36*
X4490Y5109D02*
X4344D01*
Y4982D01*
X4345Y4972D01*
Y4948D01*
X4346Y4943D01*
Y4933D01*
X4347Y4929D01*
Y4928D01*
X4349Y4917D01*
X4352Y4907D01*
X4355Y4899D01*
X4359Y4892D01*
X4363Y4887D01*
X4366Y4883D01*
X4368Y4881D01*
X4369Y4880D01*
X4376Y4875D01*
X4384Y4871D01*
X4392Y4867D01*
X4399Y4866D01*
X4406Y4865D01*
X4412Y4864D01*
X4415D01*
X4416D01*
X4427Y4865D01*
X4437Y4866D01*
X4446Y4870D01*
X4453Y4873D01*
X4459Y4877D01*
X4463Y4880D01*
X4466Y4882D01*
X4466Y4883D01*
X4473Y4890D01*
X4477Y4898D01*
X4481Y4907D01*
X4484Y4915D01*
X4487Y4923D01*
X4487Y4928D01*
X4488Y4932D01*
Y4938D01*
X4489Y4943D01*
Y4971D01*
X4490Y4987D01*
Y5109D01*
D02*
G37*
G36*
X4763D02*
X4595D01*
Y4977D01*
X4596Y4964D01*
X4597Y4953D01*
Y4942D01*
X4598Y4933D01*
X4599Y4925D01*
X4599Y4918D01*
X4600Y4912D01*
X4601Y4907D01*
X4602Y4900D01*
X4604Y4896D01*
Y4895D01*
X4608Y4886D01*
X4612Y4877D01*
X4617Y4870D01*
X4622Y4865D01*
X4626Y4860D01*
X4630Y4857D01*
X4632Y4856D01*
X4633Y4855D01*
X4641Y4850D01*
X4650Y4846D01*
X4657Y4844D01*
X4665Y4842D01*
X4671Y4841D01*
X4677Y4840D01*
X4681D01*
X4681D01*
X4693Y4841D01*
X4704Y4843D01*
X4713Y4846D01*
X4721Y4849D01*
X4727Y4853D01*
X4732Y4856D01*
X4734Y4857D01*
X4735Y4858D01*
X4742Y4866D01*
X4747Y4873D01*
X4752Y4881D01*
X4755Y4888D01*
X4757Y4895D01*
X4759Y4900D01*
X4760Y4904D01*
Y4905D01*
X4761Y4908D01*
Y4914D01*
X4762Y4926D01*
X4763Y4940D01*
Y4955D01*
X4763Y4969D01*
Y5109D01*
D02*
G37*
G36*
X4492Y14273D02*
X4346D01*
Y14147D01*
X4347Y14137D01*
Y14113D01*
X4348Y14108D01*
Y14098D01*
X4349Y14094D01*
Y14093D01*
X4351Y14082D01*
X4354Y14072D01*
X4357Y14064D01*
X4361Y14057D01*
X4364Y14052D01*
X4368Y14047D01*
X4370Y14046D01*
X4371Y14045D01*
X4378Y14039D01*
X4386Y14036D01*
X4394Y14032D01*
X4401Y14030D01*
X4408Y14029D01*
X4414Y14028D01*
X4417D01*
X4418D01*
X4429Y14029D01*
X4439Y14031D01*
X4447Y14035D01*
X4455Y14037D01*
X4461Y14041D01*
X4465Y14045D01*
X4467Y14047D01*
X4468Y14047D01*
X4475Y14055D01*
X4479Y14063D01*
X4483Y14071D01*
X4486Y14079D01*
X4488Y14088D01*
X4489Y14093D01*
X4490Y14097D01*
Y14102D01*
X4491Y14108D01*
Y14136D01*
X4492Y14151D01*
Y14273D01*
D02*
G37*
G36*
X4765D02*
X4597D01*
Y14141D01*
X4598Y14129D01*
X4599Y14118D01*
Y14107D01*
X4599Y14098D01*
X4600Y14089D01*
X4601Y14083D01*
X4602Y14077D01*
X4603Y14072D01*
X4604Y14065D01*
X4606Y14060D01*
Y14059D01*
X4609Y14050D01*
X4614Y14042D01*
X4619Y14035D01*
X4624Y14029D01*
X4628Y14025D01*
X4631Y14022D01*
X4634Y14020D01*
X4635Y14019D01*
X4643Y14015D01*
X4651Y14011D01*
X4659Y14008D01*
X4667Y14006D01*
X4673Y14006D01*
X4679Y14005D01*
X4682D01*
X4683D01*
X4695Y14006D01*
X4706Y14007D01*
X4715Y14010D01*
X4722Y14014D01*
X4729Y14017D01*
X4733Y14020D01*
X4736Y14022D01*
X4737Y14023D01*
X4743Y14030D01*
X4749Y14037D01*
X4753Y14046D01*
X4757Y14053D01*
X4759Y14059D01*
X4761Y14065D01*
X4762Y14068D01*
Y14069D01*
X4763Y14073D01*
Y14078D01*
X4763Y14090D01*
X4764Y14105D01*
Y14119D01*
X4765Y14133D01*
Y14273D01*
D02*
G37*
G36*
X4740Y13678D02*
X4736D01*
X4735D01*
X4726Y13677D01*
X4718Y13674D01*
X4711Y13670D01*
X4704Y13666D01*
X4700Y13662D01*
X4696Y13658D01*
X4694Y13656D01*
X4693Y13655D01*
X4690Y13648D01*
X4685Y13638D01*
X4681Y13628D01*
X4679Y13617D01*
X4676Y13606D01*
X4674Y13597D01*
X4673Y13594D01*
X4672Y13591D01*
Y13589D01*
X4669Y13571D01*
X4665Y13556D01*
X4661Y13543D01*
X4659Y13533D01*
X4656Y13525D01*
X4655Y13519D01*
X4653Y13515D01*
Y13515D01*
X4678D01*
X4692D01*
X4705Y13515D01*
X4715Y13516D01*
X4723Y13517D01*
X4729Y13518D01*
X4733Y13519D01*
X4735Y13520D01*
X4736D01*
X4744Y13523D01*
X4753Y13527D01*
X4759Y13532D01*
X4765Y13536D01*
X4770Y13541D01*
X4773Y13545D01*
X4775Y13547D01*
X4776Y13548D01*
X4784Y13559D01*
X4788Y13571D01*
X4792Y13581D01*
X4794Y13591D01*
X4796Y13599D01*
X4797Y13606D01*
Y13611D01*
X4796Y13621D01*
X4794Y13631D01*
X4792Y13639D01*
X4788Y13646D01*
X4784Y13652D01*
X4782Y13656D01*
X4780Y13658D01*
X4779Y13659D01*
X4772Y13666D01*
X4764Y13670D01*
X4757Y13673D01*
X4750Y13675D01*
X4744Y13677D01*
X4740Y13678D01*
D02*
G37*
G36*
X4605Y12892D02*
X4588Y12891D01*
X4572Y12889D01*
X4558Y12885D01*
X4548Y12880D01*
X4538Y12875D01*
X4532Y12870D01*
X4528Y12868D01*
X4527Y12867D01*
X4517Y12857D01*
X4509Y12846D01*
X4505Y12835D01*
X4501Y12825D01*
X4499Y12816D01*
X4497Y12809D01*
Y12802D01*
X4498Y12788D01*
X4502Y12777D01*
X4507Y12766D01*
X4511Y12757D01*
X4517Y12749D01*
X4521Y12744D01*
X4525Y12740D01*
X4526Y12739D01*
X4537Y12731D01*
X4549Y12724D01*
X4563Y12719D01*
X4576Y12716D01*
X4587Y12714D01*
X4597Y12713D01*
X4600Y12712D01*
X4602D01*
X4604D01*
X4605D01*
Y12892D01*
D02*
G37*
G36*
X4740Y11816D02*
X4736D01*
X4735D01*
X4726Y11816D01*
X4718Y11813D01*
X4711Y11809D01*
X4704Y11805D01*
X4700Y11801D01*
X4696Y11797D01*
X4694Y11795D01*
X4693Y11794D01*
X4690Y11786D01*
X4685Y11777D01*
X4681Y11766D01*
X4679Y11755D01*
X4676Y11744D01*
X4674Y11736D01*
X4673Y11733D01*
X4672Y11730D01*
Y11728D01*
X4669Y11710D01*
X4665Y11695D01*
X4661Y11682D01*
X4659Y11672D01*
X4656Y11663D01*
X4655Y11658D01*
X4653Y11654D01*
Y11653D01*
X4678D01*
X4692D01*
X4705Y11654D01*
X4715Y11655D01*
X4723Y11656D01*
X4729Y11657D01*
X4733Y11658D01*
X4735Y11659D01*
X4736D01*
X4744Y11662D01*
X4753Y11666D01*
X4759Y11671D01*
X4765Y11675D01*
X4770Y11680D01*
X4773Y11683D01*
X4775Y11686D01*
X4776Y11687D01*
X4784Y11698D01*
X4788Y11710D01*
X4792Y11720D01*
X4794Y11730D01*
X4796Y11738D01*
X4797Y11744D01*
Y11750D01*
X4796Y11760D01*
X4794Y11770D01*
X4792Y11778D01*
X4788Y11785D01*
X4784Y11791D01*
X4782Y11795D01*
X4780Y11797D01*
X4779Y11798D01*
X4772Y11805D01*
X4764Y11809D01*
X4757Y11812D01*
X4750Y11814D01*
X4744Y11816D01*
X4740Y11816D01*
D02*
G37*
G36*
X6509Y16056D02*
X6502D01*
X6489Y16055D01*
X6477Y16051D01*
X6466Y16046D01*
X6457Y16042D01*
X6450Y16036D01*
X6444Y16032D01*
X6440Y16028D01*
X6440Y16027D01*
X6431Y16016D01*
X6424Y16004D01*
X6419Y15990D01*
X6416Y15977D01*
X6414Y15966D01*
X6413Y15956D01*
X6412Y15953D01*
Y15951D01*
Y15949D01*
Y15948D01*
X6593D01*
X6592Y15965D01*
X6589Y15981D01*
X6585Y15995D01*
X6580Y16005D01*
X6575Y16015D01*
X6571Y16021D01*
X6568Y16025D01*
X6567Y16026D01*
X6557Y16036D01*
X6546Y16044D01*
X6535Y16048D01*
X6525Y16052D01*
X6516Y16054D01*
X6509Y16056D01*
D02*
G37*
G36*
X8389Y16050D02*
X8385D01*
X8367Y16048D01*
X8352Y16045D01*
X8339Y16038D01*
X8327Y16032D01*
X8318Y16025D01*
X8311Y16019D01*
X8307Y16015D01*
X8305Y16014D01*
X8294Y15999D01*
X8286Y15982D01*
X8281Y15964D01*
X8276Y15948D01*
X8274Y15933D01*
X8273Y15926D01*
Y15921D01*
X8272Y15916D01*
Y15913D01*
Y15911D01*
Y15910D01*
X8274Y15886D01*
X8278Y15864D01*
X8282Y15847D01*
X8289Y15831D01*
X8295Y15821D01*
X8300Y15811D01*
X8303Y15807D01*
X8305Y15805D01*
X8318Y15793D01*
X8331Y15784D01*
X8344Y15779D01*
X8357Y15774D01*
X8368Y15771D01*
X8376Y15770D01*
X8380Y15769D01*
X8385D01*
X8402Y15771D01*
X8417Y15775D01*
X8431Y15780D01*
X8442Y15788D01*
X8452Y15794D01*
X8459Y15800D01*
X8463Y15803D01*
X8465Y15805D01*
X8476Y15820D01*
X8483Y15837D01*
X8488Y15854D01*
X8493Y15872D01*
X8495Y15886D01*
X8496Y15892D01*
Y15899D01*
X8497Y15903D01*
Y15907D01*
Y15909D01*
Y15910D01*
X8495Y15933D01*
X8491Y15954D01*
X8487Y15973D01*
X8480Y15987D01*
X8475Y15998D01*
X8469Y16007D01*
X8466Y16012D01*
X8465Y16014D01*
X8452Y16025D01*
X8438Y16035D01*
X8425Y16041D01*
X8412Y16046D01*
X8401Y16048D01*
X8393Y16049D01*
X8389Y16050D01*
D02*
G37*
G36*
X5499D02*
X5495D01*
X5477Y16048D01*
X5462Y16045D01*
X5449Y16038D01*
X5437Y16032D01*
X5428Y16025D01*
X5421Y16019D01*
X5417Y16015D01*
X5416Y16014D01*
X5405Y15999D01*
X5396Y15982D01*
X5391Y15964D01*
X5386Y15948D01*
X5385Y15933D01*
X5384Y15926D01*
Y15921D01*
X5383Y15916D01*
Y15913D01*
Y15911D01*
Y15910D01*
X5385Y15886D01*
X5388Y15864D01*
X5393Y15847D01*
X5399Y15831D01*
X5406Y15821D01*
X5410Y15811D01*
X5414Y15807D01*
X5416Y15805D01*
X5428Y15793D01*
X5441Y15784D01*
X5455Y15779D01*
X5467Y15774D01*
X5478Y15771D01*
X5487Y15770D01*
X5490Y15769D01*
X5495D01*
X5512Y15771D01*
X5528Y15775D01*
X5541Y15780D01*
X5552Y15788D01*
X5562Y15794D01*
X5570Y15800D01*
X5573Y15803D01*
X5575Y15805D01*
X5586Y15820D01*
X5593Y15837D01*
X5599Y15854D01*
X5603Y15872D01*
X5605Y15886D01*
X5606Y15892D01*
Y15899D01*
X5607Y15903D01*
Y15907D01*
Y15909D01*
Y15910D01*
X5605Y15933D01*
X5601Y15954D01*
X5597Y15973D01*
X5590Y15987D01*
X5585Y15998D01*
X5580Y16007D01*
X5576Y16012D01*
X5575Y16014D01*
X5562Y16025D01*
X5549Y16035D01*
X5535Y16041D01*
X5522Y16046D01*
X5511Y16048D01*
X5503Y16049D01*
X5499Y16050D01*
D02*
G37*
G36*
X1192Y4731D02*
X1188D01*
X1179Y4731D01*
X1170Y4728D01*
X1163Y4725D01*
X1157Y4721D01*
X1151Y4717D01*
X1148Y4714D01*
X1145Y4711D01*
X1145Y4710D01*
X1139Y4702D01*
X1134Y4691D01*
X1132Y4680D01*
X1129Y4670D01*
X1128Y4660D01*
X1127Y4652D01*
Y4649D01*
Y4647D01*
Y4645D01*
Y4645D01*
X1128Y4630D01*
X1130Y4617D01*
X1132Y4606D01*
X1135Y4597D01*
X1138Y4591D01*
X1141Y4586D01*
X1143Y4583D01*
X1143Y4582D01*
X1150Y4576D01*
X1157Y4572D01*
X1164Y4569D01*
X1170Y4567D01*
X1176Y4565D01*
X1180Y4564D01*
X1184D01*
X1193Y4565D01*
X1202Y4568D01*
X1209Y4571D01*
X1216Y4576D01*
X1221Y4580D01*
X1225Y4584D01*
X1228Y4586D01*
X1229Y4587D01*
X1235Y4596D01*
X1240Y4607D01*
X1243Y4618D01*
X1245Y4628D01*
X1246Y4638D01*
X1248Y4645D01*
Y4649D01*
Y4651D01*
Y4652D01*
Y4653D01*
X1247Y4666D01*
X1245Y4678D01*
X1242Y4688D01*
X1239Y4697D01*
X1236Y4702D01*
X1233Y4707D01*
X1231Y4710D01*
X1231Y4711D01*
X1224Y4718D01*
X1217Y4723D01*
X1210Y4726D01*
X1203Y4729D01*
X1197Y4730D01*
X1192Y4731D01*
D02*
G37*
G36*
X7135Y5510D02*
X7131D01*
X7128D01*
X7127D01*
X7113Y5509D01*
X7099Y5509D01*
X7087Y5507D01*
X7075Y5505D01*
X7064Y5502D01*
X7054Y5499D01*
X7046Y5495D01*
X7038Y5492D01*
X7031Y5489D01*
X7025Y5486D01*
X7020Y5483D01*
X7015Y5480D01*
X7012Y5478D01*
X7010Y5476D01*
X7009Y5475D01*
X7008Y5474D01*
X7001Y5468D01*
X6995Y5461D01*
X6990Y5453D01*
X6985Y5446D01*
X6982Y5438D01*
X6978Y5431D01*
X6974Y5416D01*
X6971Y5404D01*
X6970Y5398D01*
X6969Y5394D01*
X6969Y5390D01*
Y5385D01*
X6969Y5375D01*
X6971Y5365D01*
X6972Y5356D01*
X6975Y5347D01*
X6981Y5331D01*
X6989Y5319D01*
X6992Y5313D01*
X6996Y5309D01*
X6999Y5304D01*
X7003Y5301D01*
X7005Y5298D01*
X7007Y5296D01*
X7008Y5295D01*
X7009Y5294D01*
X7016Y5288D01*
X7025Y5282D01*
X7034Y5278D01*
X7044Y5274D01*
X7063Y5267D01*
X7082Y5263D01*
X7091Y5262D01*
X7099Y5261D01*
X7107Y5260D01*
X7114Y5259D01*
X7119Y5259D01*
X7123D01*
X7125D01*
X7126D01*
X7140Y5259D01*
X7154Y5260D01*
X7166Y5262D01*
X7178Y5264D01*
X7188Y5267D01*
X7198Y5269D01*
X7207Y5272D01*
X7215Y5276D01*
X7222Y5279D01*
X7228Y5282D01*
X7232Y5285D01*
X7237Y5288D01*
X7240Y5289D01*
X7242Y5291D01*
X7243Y5292D01*
X7244Y5293D01*
X7251Y5299D01*
X7257Y5307D01*
X7262Y5314D01*
X7267Y5322D01*
X7271Y5330D01*
X7274Y5337D01*
X7279Y5352D01*
X7281Y5365D01*
X7282Y5370D01*
X7283Y5375D01*
X7283Y5379D01*
Y5385D01*
X7283Y5395D01*
X7281Y5405D01*
X7280Y5414D01*
X7278Y5423D01*
X7271Y5438D01*
X7268Y5445D01*
X7264Y5451D01*
X7260Y5457D01*
X7257Y5461D01*
X7254Y5465D01*
X7251Y5469D01*
X7248Y5472D01*
X7247Y5474D01*
X7245Y5474D01*
X7245Y5475D01*
X7237Y5481D01*
X7228Y5487D01*
X7220Y5492D01*
X7210Y5495D01*
X7190Y5501D01*
X7171Y5505D01*
X7163Y5507D01*
X7154Y5508D01*
X7147Y5509D01*
X7140Y5509D01*
X7135Y5510D01*
D02*
G37*
%LPD*%
D12*
X-394Y7047D02*
X3307D01*
Y10594D01*
X-394Y7047D02*
Y10594D01*
X3307D01*
X-394Y11181D02*
X3307D01*
Y14728D01*
X-394Y11181D02*
Y14728D01*
X3307D01*
X-394Y2913D02*
X3307D01*
Y6461D01*
X-394Y2913D02*
Y6461D01*
X3307D01*
X12244D02*
X15945D01*
X12244Y2913D02*
Y6461D01*
X15945Y2913D02*
Y6461D01*
X12244Y2913D02*
X15945D01*
X5720Y4740D02*
X6720D01*
X5720D02*
Y6740D01*
X6720D01*
Y4740D02*
Y6740D01*
D76*
X3445Y12205D02*
X4035D01*
X3740Y11909D02*
Y12500D01*
Y13409D02*
Y14000D01*
X3445Y8071D02*
X4035D01*
X3740Y7776D02*
Y8366D01*
Y9276D02*
Y9866D01*
X3445Y3937D02*
X4035D01*
X3740Y3642D02*
Y4232D01*
Y5142D02*
Y5732D01*
X11811Y3642D02*
Y4232D01*
Y5142D02*
Y5732D01*
X11516Y5437D02*
X12106D01*
M02*
