M48
;Layer_Color=9474304
;FILE_FORMAT=2:4
INCH,LZ
;TYPE=PLATED
T01F00S00C0.0276
T02F00S00C0.0354
T03F00S00C0.0551
T04F00S00C0.1260
%
T01
X01122Y001969
X012008
X006102
X004921
X00374
X00622Y009055
X007677Y010039
X007087Y011417
X00878Y011535
X007362Y013406
Y014409
X00815Y015394
X007638Y01811
X006102Y018898
X004921
X00374
X00378Y014567
X004724Y015374
X001581Y015748
X001575Y016535
X009685Y015748
X012402
Y01752
X015118Y015748
Y013032
X013386Y013189
X012205
X011496
X011614Y010063
Y009276
X012402
Y008488
X011614
T02
X00622Y00524
Y00624
T03
X002756Y003937
Y005437
Y008071
Y009571
Y012205
Y013705
X012795Y005437
Y003937
T04
X014173Y001378
X001378
Y018307
X014173
M30
