G04*
G04 #@! TF.GenerationSoftware,Altium Limited,Altium Designer,24.9.1 (31)*
G04*
G04 Layer_Color=8388736*
%FSLAX24Y24*%
%MOIN*%
G70*
G04*
G04 #@! TF.SameCoordinates,EFE55B14-B155-4399-AD63-722DAA59AC23*
G04*
G04*
G04 #@! TF.FilePolarity,Negative*
G04*
G01*
G75*
%ADD24R,0.0606X0.0197*%
G04:AMPARAMS|DCode=25|XSize=60.6mil|YSize=19.7mil|CornerRadius=9.8mil|HoleSize=0mil|Usage=FLASHONLY|Rotation=0.000|XOffset=0mil|YOffset=0mil|HoleType=Round|Shape=RoundedRectangle|*
%AMROUNDEDRECTD25*
21,1,0.0606,0.0000,0,0,0.0*
21,1,0.0409,0.0197,0,0,0.0*
1,1,0.0197,0.0205,0.0000*
1,1,0.0197,-0.0205,0.0000*
1,1,0.0197,-0.0205,0.0000*
1,1,0.0197,0.0205,0.0000*
%
%ADD25ROUNDEDRECTD25*%
G04:AMPARAMS|DCode=26|XSize=64.5mil|YSize=19.7mil|CornerRadius=9.8mil|HoleSize=0mil|Usage=FLASHONLY|Rotation=0.000|XOffset=0mil|YOffset=0mil|HoleType=Round|Shape=RoundedRectangle|*
%AMROUNDEDRECTD26*
21,1,0.0645,0.0000,0,0,0.0*
21,1,0.0448,0.0197,0,0,0.0*
1,1,0.0197,0.0224,0.0000*
1,1,0.0197,-0.0224,0.0000*
1,1,0.0197,-0.0224,0.0000*
1,1,0.0197,0.0224,0.0000*
%
%ADD26ROUNDEDRECTD26*%
%ADD27R,0.0645X0.0197*%
G04:AMPARAMS|DCode=43|XSize=68.6mil|YSize=27.7mil|CornerRadius=13.8mil|HoleSize=0mil|Usage=FLASHONLY|Rotation=180.000|XOffset=0mil|YOffset=0mil|HoleType=Round|Shape=RoundedRectangle|*
%AMROUNDEDRECTD43*
21,1,0.0686,0.0000,0,0,180.0*
21,1,0.0409,0.0277,0,0,180.0*
1,1,0.0277,-0.0205,0.0000*
1,1,0.0277,0.0205,0.0000*
1,1,0.0277,0.0205,0.0000*
1,1,0.0277,-0.0205,0.0000*
%
%ADD43ROUNDEDRECTD43*%
%ADD44R,0.0686X0.0277*%
%ADD45R,0.0513X0.0316*%
%ADD46R,0.0552X0.0671*%
%ADD47R,0.0671X0.0552*%
%ADD48R,0.0671X0.0474*%
%ADD49R,0.0474X0.0671*%
%ADD50R,0.0631X0.0552*%
%ADD51R,0.0552X0.0631*%
%ADD52R,0.0710X0.0867*%
%ADD53R,0.0552X0.0631*%
%ADD54R,0.0631X0.0552*%
%ADD55R,0.1458X0.2324*%
%ADD56R,0.0560X0.0552*%
%ADD57R,0.0316X0.0513*%
%ADD58R,0.1457X0.0984*%
%ADD59R,0.1260X0.0984*%
%ADD60C,0.0946*%
%ADD61R,0.0946X0.0946*%
%ADD62R,0.0828X0.0828*%
%ADD63C,0.0828*%
%ADD64C,0.2442*%
D24*
X9646Y11106D02*
D03*
D25*
Y10732D02*
D03*
Y10358D02*
D03*
X10603D02*
D03*
Y10732D02*
D03*
Y11106D02*
D03*
D26*
X3609Y16122D02*
D03*
Y15374D02*
D03*
X2690D02*
D03*
Y15748D02*
D03*
D27*
Y16122D02*
D03*
D43*
X5512Y13032D02*
D03*
Y13780D02*
D03*
X6567D02*
D03*
Y13406D02*
D03*
D44*
Y13032D02*
D03*
D45*
X6575Y14409D02*
D03*
Y15149D02*
D03*
X5715Y14779D02*
D03*
X6962Y3567D02*
D03*
Y4307D02*
D03*
X6102Y3937D02*
D03*
X9606Y13032D02*
D03*
Y12292D02*
D03*
X10466Y12661D02*
D03*
X6962Y7701D02*
D03*
Y8441D02*
D03*
X6102Y8071D02*
D03*
D46*
X8622Y5831D02*
D03*
X9909D02*
D03*
X14083Y6496D02*
D03*
X12795D02*
D03*
X11510Y17520D02*
D03*
X10222D02*
D03*
X11510Y16654D02*
D03*
X10222D02*
D03*
D47*
X14370Y4146D02*
D03*
Y5433D02*
D03*
D48*
X9567Y8413D02*
D03*
Y7626D02*
D03*
X9331Y18110D02*
D03*
Y17323D02*
D03*
X11024Y5831D02*
D03*
Y5043D02*
D03*
X11496Y13898D02*
D03*
Y14685D02*
D03*
D49*
X12402Y7480D02*
D03*
X11614D02*
D03*
X8622Y4764D02*
D03*
X9409D02*
D03*
D50*
X5512Y12205D02*
D03*
Y11417D02*
D03*
Y16988D02*
D03*
Y16200D02*
D03*
X4724Y16988D02*
D03*
Y16200D02*
D03*
D51*
X984Y14567D02*
D03*
X1772D02*
D03*
X984Y13819D02*
D03*
X1772D02*
D03*
X13295Y8268D02*
D03*
X14083D02*
D03*
X13295Y9055D02*
D03*
X14083D02*
D03*
X11693Y11894D02*
D03*
X10906D02*
D03*
D52*
X10827Y9354D02*
D03*
X9646D02*
D03*
D53*
X8465Y3567D02*
D03*
X7677D02*
D03*
X10197D02*
D03*
X9409D02*
D03*
X8150Y14685D02*
D03*
X8937D02*
D03*
X8937Y13858D02*
D03*
X8150D02*
D03*
X10472Y14685D02*
D03*
X9685D02*
D03*
X8150Y13032D02*
D03*
X8937D02*
D03*
X8465Y6937D02*
D03*
X7677D02*
D03*
X13295Y7480D02*
D03*
X14083D02*
D03*
D54*
X11024Y3346D02*
D03*
Y4134D02*
D03*
X4528Y14567D02*
D03*
Y13780D02*
D03*
Y12992D02*
D03*
Y12205D02*
D03*
X6339Y11417D02*
D03*
Y12205D02*
D03*
X8346Y18110D02*
D03*
Y17323D02*
D03*
X3898Y17756D02*
D03*
Y16968D02*
D03*
X8622Y8413D02*
D03*
Y9201D02*
D03*
Y10732D02*
D03*
Y9945D02*
D03*
D55*
X14665Y11048D02*
D03*
X12815D02*
D03*
D56*
X7677Y4331D02*
D03*
Y5831D02*
D03*
Y7701D02*
D03*
Y9201D02*
D03*
D57*
X6220Y9872D02*
D03*
X6960D02*
D03*
X6590Y10732D02*
D03*
D58*
X4823Y8071D02*
D03*
Y10039D02*
D03*
Y3937D02*
D03*
Y5906D02*
D03*
D59*
X6575Y17953D02*
D03*
Y15984D02*
D03*
D60*
X2756Y9571D02*
D03*
Y13705D02*
D03*
Y5437D02*
D03*
X12795Y3937D02*
D03*
D61*
X2756Y8071D02*
D03*
Y12205D02*
D03*
Y3937D02*
D03*
X12795Y5437D02*
D03*
D62*
X6220Y5240D02*
D03*
D63*
Y6240D02*
D03*
D64*
X1378Y18307D02*
D03*
Y1378D02*
D03*
X14173D02*
D03*
Y18307D02*
D03*
M02*
