G04*
G04 #@! TF.GenerationSoftware,Altium Limited,Altium Designer,24.9.1 (31)*
G04*
G04 Layer_Physical_Order=2*
G04 Layer_Color=16711680*
%FSLAX24Y24*%
%MOIN*%
G70*
G04*
G04 #@! TF.SameCoordinates,EFE55B14-B155-4399-AD63-722DAA59AC23*
G04*
G04*
G04 #@! TF.FilePolarity,Positive*
G04*
G01*
G75*
%ADD65C,0.0197*%
%ADD66C,0.0236*%
%ADD67C,0.0472*%
%ADD70C,0.0866*%
%ADD71R,0.0866X0.0866*%
%ADD72R,0.0748X0.0748*%
%ADD73C,0.0748*%
%ADD74C,0.2362*%
%ADD75C,0.0551*%
G36*
X13469Y19461D02*
X13467Y19449D01*
X13301Y19328D01*
X13152Y19179D01*
X13028Y19009D01*
X12933Y18821D01*
X12868Y18621D01*
X12835Y18412D01*
Y18202D01*
X12866Y18001D01*
X12855Y17985D01*
X12691Y17881D01*
X12659Y17871D01*
X12569Y17923D01*
X12459Y17953D01*
X12345D01*
X12234Y17923D01*
X12223Y17917D01*
X8661D01*
X8559Y17903D01*
X8463Y17864D01*
X8381Y17800D01*
X4640Y14060D01*
X4577Y13978D01*
X4538Y13882D01*
X4524Y13780D01*
Y5709D01*
X4538Y5606D01*
X4577Y5510D01*
X4640Y5428D01*
X5109Y4959D01*
X5191Y4896D01*
X5287Y4857D01*
X5390Y4843D01*
X5689D01*
Y4709D01*
X6752D01*
Y5772D01*
X6752Y5772D01*
X6700Y6008D01*
X6716Y6035D01*
X6752Y6170D01*
Y6310D01*
X6716Y6445D01*
X6646Y6567D01*
X6547Y6665D01*
X6498Y6693D01*
Y8721D01*
X6567Y8789D01*
X6624Y8888D01*
X6654Y8998D01*
Y9112D01*
X6624Y9222D01*
X6567Y9321D01*
X6486Y9402D01*
X6388Y9459D01*
X6277Y9488D01*
X6163D01*
X6053Y9459D01*
X5955Y9402D01*
X5874Y9321D01*
X5817Y9222D01*
X5787Y9112D01*
Y8998D01*
X5817Y8888D01*
X5874Y8789D01*
X5943Y8721D01*
Y6693D01*
X5894Y6665D01*
X5795Y6567D01*
X5725Y6445D01*
X5689Y6310D01*
Y6170D01*
X5725Y6035D01*
X5741Y6008D01*
X5702Y5832D01*
X5466Y5778D01*
X5318Y5913D01*
Y13615D01*
X5974Y14271D01*
X6208Y14206D01*
X6225Y14188D01*
X6218Y14134D01*
Y13032D01*
X6228Y12960D01*
X6255Y12893D01*
X6300Y12835D01*
X6809Y12326D01*
Y11752D01*
X6740Y11683D01*
X6683Y11584D01*
X6654Y11474D01*
Y11360D01*
X6683Y11250D01*
X6740Y11151D01*
X6821Y11071D01*
X6919Y11014D01*
X7030Y10984D01*
X7144D01*
X7254Y11014D01*
X7353Y11071D01*
X7433Y11151D01*
X7490Y11250D01*
X7520Y11360D01*
Y11474D01*
X7490Y11584D01*
X7433Y11683D01*
X7365Y11752D01*
Y12441D01*
X7355Y12513D01*
X7327Y12580D01*
X7283Y12637D01*
X6774Y13147D01*
Y14019D01*
X6887Y14131D01*
X7028D01*
X7096Y14063D01*
X7195Y14006D01*
X7305Y13976D01*
X7419D01*
X7529Y14006D01*
X7628Y14063D01*
X7709Y14144D01*
X7766Y14242D01*
X7795Y14352D01*
Y14466D01*
X7766Y14577D01*
X7709Y14675D01*
X7628Y14756D01*
X7529Y14813D01*
X7419Y14843D01*
X7305D01*
X7195Y14813D01*
X7096Y14756D01*
X7028Y14687D01*
X6772D01*
X6718Y14680D01*
X6699Y14697D01*
X6635Y14932D01*
X8826Y17123D01*
X12223D01*
X12234Y17116D01*
X12345Y17087D01*
X12459D01*
X12569Y17116D01*
X12667Y17173D01*
X12748Y17254D01*
X12805Y17353D01*
X12835Y17463D01*
Y17478D01*
X13071Y17547D01*
X13152Y17435D01*
X13301Y17286D01*
X13472Y17162D01*
X13659Y17067D01*
X13860Y17001D01*
X14068Y16969D01*
X14279D01*
X14487Y17001D01*
X14687Y17067D01*
X14875Y17162D01*
X15045Y17286D01*
X15194Y17435D01*
X15315Y17601D01*
X15327Y17603D01*
X15551Y17543D01*
Y2142D01*
X15327Y2082D01*
X15315Y2084D01*
X15194Y2250D01*
X15045Y2399D01*
X14875Y2523D01*
X14687Y2618D01*
X14487Y2684D01*
X14279Y2717D01*
X14068D01*
X13860Y2684D01*
X13659Y2618D01*
X13472Y2523D01*
X13301Y2399D01*
X13152Y2250D01*
X13028Y2080D01*
X12933Y1892D01*
X12868Y1691D01*
X12835Y1483D01*
Y1273D01*
X12868Y1064D01*
X12933Y864D01*
X13028Y676D01*
X13152Y506D01*
X13301Y357D01*
X13467Y236D01*
X13469Y225D01*
X13409Y0D01*
X2142D01*
X2082Y225D01*
X2084Y236D01*
X2250Y357D01*
X2399Y506D01*
X2523Y676D01*
X2618Y864D01*
X2684Y1064D01*
X2717Y1273D01*
Y1483D01*
X2684Y1691D01*
X2618Y1892D01*
X2523Y2080D01*
X2399Y2250D01*
X2250Y2399D01*
X2080Y2523D01*
X1892Y2618D01*
X1691Y2684D01*
X1483Y2717D01*
X1273D01*
X1064Y2684D01*
X864Y2618D01*
X676Y2523D01*
X506Y2399D01*
X357Y2250D01*
X236Y2084D01*
X225Y2082D01*
X0Y2142D01*
Y17543D01*
X225Y17603D01*
X236Y17601D01*
X357Y17435D01*
X506Y17286D01*
X676Y17162D01*
X864Y17067D01*
X1064Y17001D01*
X1090Y16997D01*
X1138Y16929D01*
X1194Y16742D01*
X1171Y16703D01*
X1142Y16592D01*
Y16478D01*
X1171Y16368D01*
X1228Y16270D01*
X1309Y16189D01*
X1408Y16132D01*
X1518Y16102D01*
X1632D01*
X1742Y16132D01*
X1841Y16189D01*
X1921Y16270D01*
X1926Y16277D01*
X6063D01*
X6130Y16286D01*
X6192Y16312D01*
X6246Y16353D01*
X7572Y17680D01*
X7581Y17677D01*
X7695D01*
X7805Y17707D01*
X7904Y17764D01*
X7984Y17844D01*
X8041Y17943D01*
X8071Y18053D01*
Y18167D01*
X8041Y18277D01*
X7984Y18376D01*
X7904Y18457D01*
X7805Y18514D01*
X7695Y18543D01*
X7581D01*
X7471Y18514D01*
X7372Y18457D01*
X7291Y18376D01*
X7234Y18277D01*
X7205Y18167D01*
Y18053D01*
X7207Y18045D01*
X5956Y16794D01*
X2057D01*
X2003Y16880D01*
X2080Y17162D01*
X2250Y17286D01*
X2399Y17435D01*
X2523Y17606D01*
X2618Y17793D01*
X2684Y17994D01*
X2717Y18202D01*
Y18412D01*
X2684Y18621D01*
X2618Y18821D01*
X2523Y19009D01*
X2399Y19179D01*
X2250Y19328D01*
X2084Y19449D01*
X2082Y19461D01*
X2142Y19685D01*
X13409D01*
X13469Y19461D01*
D02*
G37*
%LPC*%
G36*
X4781Y15807D02*
X4667D01*
X4557Y15778D01*
X4459Y15721D01*
X4378Y15640D01*
X4321Y15541D01*
X4291Y15431D01*
Y15317D01*
X4321Y15207D01*
X4378Y15108D01*
X4459Y15027D01*
X4557Y14970D01*
X4667Y14941D01*
X4781D01*
X4892Y14970D01*
X4990Y15027D01*
X5071Y15108D01*
X5128Y15207D01*
X5157Y15317D01*
Y15431D01*
X5128Y15541D01*
X5071Y15640D01*
X4990Y15721D01*
X4892Y15778D01*
X4781Y15807D01*
D02*
G37*
G36*
X2874Y14283D02*
Y13823D01*
X3335D01*
X3324Y13877D01*
X3279Y13984D01*
X3215Y14081D01*
X3132Y14163D01*
X3036Y14228D01*
X2928Y14273D01*
X2874Y14283D01*
D02*
G37*
G36*
X2638Y14283D02*
X2584Y14273D01*
X2476Y14228D01*
X2379Y14163D01*
X2297Y14081D01*
X2233Y13984D01*
X2188Y13877D01*
X2177Y13823D01*
X2638D01*
Y14283D01*
D02*
G37*
G36*
Y13587D02*
X2177D01*
X2188Y13532D01*
X2233Y13425D01*
X2297Y13328D01*
X2379Y13246D01*
X2476Y13181D01*
X2584Y13137D01*
X2638Y13126D01*
Y13587D01*
D02*
G37*
G36*
X3335D02*
X2874D01*
Y13126D01*
X2928Y13137D01*
X3036Y13181D01*
X3132Y13246D01*
X3215Y13328D01*
X3279Y13425D01*
X3324Y13532D01*
X3335Y13587D01*
D02*
G37*
G36*
X12992Y14431D02*
X10236D01*
X10169Y14423D01*
X10107Y14397D01*
X10054Y14356D01*
X8597Y12899D01*
X8556Y12846D01*
X8530Y12783D01*
X8521Y12717D01*
Y11886D01*
X8514Y11882D01*
X8433Y11801D01*
X8376Y11703D01*
X8346Y11592D01*
Y11478D01*
X8376Y11368D01*
X8433Y11270D01*
X8514Y11189D01*
X8612Y11132D01*
X8723Y11102D01*
X8837D01*
X8855Y11107D01*
X9056Y10989D01*
X9091Y10943D01*
Y2756D01*
X9091Y2756D01*
X9104Y2694D01*
X9138Y2642D01*
X10320Y1461D01*
X10372Y1426D01*
X10433Y1414D01*
X10433Y1414D01*
X12205D01*
X12266Y1426D01*
X12318Y1461D01*
X12318Y1461D01*
X12515Y1658D01*
X12550Y1710D01*
X12562Y1772D01*
X12562Y1772D01*
Y2165D01*
X12550Y2227D01*
X12515Y2279D01*
X12515Y2279D01*
X12318Y2476D01*
X12266Y2511D01*
X12205Y2523D01*
X12205Y2523D01*
X11090D01*
X10397Y3216D01*
Y11941D01*
X11090Y12635D01*
X12402D01*
X12402Y12635D01*
X12463Y12647D01*
X12515Y12682D01*
X12515Y12682D01*
X12712Y12879D01*
X12712Y12879D01*
X12747Y12931D01*
X12753Y12964D01*
X12777Y12982D01*
X13023Y12951D01*
X13039Y12923D01*
X13120Y12842D01*
X13219Y12785D01*
X13329Y12756D01*
X13443D01*
X13553Y12785D01*
X13652Y12842D01*
X13732Y12923D01*
X13789Y13022D01*
X13819Y13132D01*
Y13246D01*
X13789Y13356D01*
X13732Y13455D01*
X13652Y13536D01*
X13644Y13540D01*
Y13780D01*
X13635Y13846D01*
X13609Y13909D01*
X13568Y13962D01*
X13175Y14356D01*
X13121Y14397D01*
X13059Y14423D01*
X12992Y14431D01*
D02*
G37*
G36*
X3346Y12795D02*
X2165D01*
Y11614D01*
X3346D01*
Y12795D01*
D02*
G37*
G36*
X2874Y10149D02*
Y9689D01*
X3335D01*
X3324Y9743D01*
X3279Y9851D01*
X3215Y9947D01*
X3132Y10030D01*
X3036Y10094D01*
X2928Y10139D01*
X2874Y10149D01*
D02*
G37*
G36*
X2638D02*
X2584Y10139D01*
X2476Y10094D01*
X2379Y10030D01*
X2297Y9947D01*
X2233Y9851D01*
X2188Y9743D01*
X2177Y9689D01*
X2638D01*
Y10149D01*
D02*
G37*
G36*
X3335Y9453D02*
X2874D01*
Y8992D01*
X2928Y9003D01*
X3036Y9048D01*
X3132Y9112D01*
X3215Y9194D01*
X3279Y9291D01*
X3324Y9399D01*
X3335Y9453D01*
D02*
G37*
G36*
X2638D02*
X2177D01*
X2188Y9399D01*
X2233Y9291D01*
X2297Y9194D01*
X2379Y9112D01*
X2476Y9048D01*
X2584Y9003D01*
X2638Y8992D01*
Y9453D01*
D02*
G37*
G36*
X3346Y8661D02*
X2165D01*
Y7480D01*
X3346D01*
Y8661D01*
D02*
G37*
G36*
X2874Y6016D02*
Y5555D01*
X3335D01*
X3324Y5609D01*
X3279Y5717D01*
X3215Y5813D01*
X3132Y5896D01*
X3036Y5960D01*
X2928Y6005D01*
X2874Y6016D01*
D02*
G37*
G36*
X2638Y6016D02*
X2584Y6005D01*
X2476Y5960D01*
X2379Y5896D01*
X2297Y5813D01*
X2233Y5717D01*
X2188Y5609D01*
X2177Y5555D01*
X2638D01*
Y6016D01*
D02*
G37*
G36*
X3335Y5319D02*
X2874D01*
Y4858D01*
X2928Y4869D01*
X3036Y4914D01*
X3132Y4978D01*
X3215Y5061D01*
X3279Y5157D01*
X3324Y5265D01*
X3335Y5319D01*
D02*
G37*
G36*
X2638D02*
X2177D01*
X2188Y5265D01*
X2233Y5157D01*
X2297Y5061D01*
X2379Y4978D01*
X2476Y4914D01*
X2584Y4869D01*
X2638Y4858D01*
Y5319D01*
D02*
G37*
G36*
X13386Y6028D02*
X12205D01*
Y4846D01*
X13386D01*
Y6028D01*
D02*
G37*
G36*
X12913Y4516D02*
Y4055D01*
X13374D01*
X13363Y4109D01*
X13319Y4217D01*
X13254Y4313D01*
X13172Y4396D01*
X13075Y4460D01*
X12968Y4505D01*
X12913Y4516D01*
D02*
G37*
G36*
X12677Y4516D02*
X12623Y4505D01*
X12516Y4460D01*
X12419Y4396D01*
X12337Y4313D01*
X12272Y4217D01*
X12227Y4109D01*
X12217Y4055D01*
X12677D01*
Y4516D01*
D02*
G37*
G36*
Y3819D02*
X12217D01*
X12227Y3765D01*
X12272Y3657D01*
X12337Y3561D01*
X12419Y3478D01*
X12516Y3414D01*
X12623Y3369D01*
X12677Y3358D01*
Y3819D01*
D02*
G37*
G36*
X13374D02*
X12913D01*
Y3358D01*
X12968Y3369D01*
X13075Y3414D01*
X13172Y3478D01*
X13254Y3561D01*
X13319Y3657D01*
X13363Y3765D01*
X13374Y3819D01*
D02*
G37*
G36*
X3346Y4528D02*
X2165D01*
Y3346D01*
X3346D01*
Y4528D01*
D02*
G37*
%LPD*%
G36*
X12598Y13386D02*
Y12992D01*
X12402Y12795D01*
X11024D01*
X10236Y12008D01*
Y3150D01*
X11024Y2362D01*
X12205D01*
X12402Y2165D01*
Y1772D01*
X12205Y1575D01*
X10433D01*
X9252Y2756D01*
Y12402D01*
X10433Y13583D01*
X12402D01*
X12598Y13386D01*
D02*
G37*
D65*
X13386Y13189D02*
Y13780D01*
X10236Y14173D02*
X12992D01*
X13386Y13780D01*
X8780Y12717D02*
X10236Y14173D01*
X8780Y11535D02*
Y12717D01*
X6063Y16535D02*
X7638Y18110D01*
X1575Y16535D02*
X6063D01*
D66*
X6496Y13032D02*
Y14134D01*
X6772Y14409D01*
X7362D01*
X7087Y11417D02*
Y12441D01*
X6496Y13032D02*
X7087Y12441D01*
X6220Y6240D02*
Y9055D01*
D67*
X5390Y5240D02*
X6220D01*
X4921Y5709D02*
X5390Y5240D01*
X4921Y5709D02*
Y13780D01*
X8661Y17520D01*
X12402D01*
D70*
X2756Y9571D02*
D03*
Y13705D02*
D03*
Y5437D02*
D03*
X12795Y3937D02*
D03*
D71*
X2756Y8071D02*
D03*
Y12205D02*
D03*
Y3937D02*
D03*
X12795Y5437D02*
D03*
D72*
X6220Y5240D02*
D03*
D73*
Y6240D02*
D03*
D74*
X1378Y18307D02*
D03*
Y1378D02*
D03*
X14173D02*
D03*
Y18307D02*
D03*
D75*
X15118Y13032D02*
D03*
Y15748D02*
D03*
X12402D02*
D03*
X3740Y1969D02*
D03*
X4921D02*
D03*
X6102D02*
D03*
X11614Y9276D02*
D03*
X12402Y8488D02*
D03*
X9685Y15748D02*
D03*
X6102Y18898D02*
D03*
X4921D02*
D03*
X3740D02*
D03*
X3780Y14567D02*
D03*
X12402Y17520D02*
D03*
X7362Y13406D02*
D03*
X8780Y11535D02*
D03*
X7087Y11417D02*
D03*
X7677Y10039D02*
D03*
X13386Y13189D02*
D03*
X12008Y1969D02*
D03*
X7638Y18110D02*
D03*
X1575Y16535D02*
D03*
X1581Y15748D02*
D03*
X11220Y1969D02*
D03*
X12205Y13189D02*
D03*
X11496D02*
D03*
X4724Y15374D02*
D03*
X6220Y9055D02*
D03*
X8150Y15394D02*
D03*
X7362Y14409D02*
D03*
X12402Y9276D02*
D03*
X11614Y10063D02*
D03*
Y8488D02*
D03*
M02*
