G04*
G04 #@! TF.GenerationSoftware,Altium Limited,Altium Designer,24.9.1 (31)*
G04*
G04 Layer_Physical_Order=1*
G04 Layer_Color=255*
%FSLAX24Y24*%
%MOIN*%
G70*
G04*
G04 #@! TF.SameCoordinates,EFE55B14-B155-4399-AD63-722DAA59AC23*
G04*
G04*
G04 #@! TF.FilePolarity,Positive*
G04*
G01*
G75*
%ADD24R,0.0606X0.0197*%
G04:AMPARAMS|DCode=25|XSize=60.6mil|YSize=19.7mil|CornerRadius=9.8mil|HoleSize=0mil|Usage=FLASHONLY|Rotation=0.000|XOffset=0mil|YOffset=0mil|HoleType=Round|Shape=RoundedRectangle|*
%AMROUNDEDRECTD25*
21,1,0.0606,0.0000,0,0,0.0*
21,1,0.0409,0.0197,0,0,0.0*
1,1,0.0197,0.0205,0.0000*
1,1,0.0197,-0.0205,0.0000*
1,1,0.0197,-0.0205,0.0000*
1,1,0.0197,0.0205,0.0000*
%
%ADD25ROUNDEDRECTD25*%
G04:AMPARAMS|DCode=26|XSize=64.5mil|YSize=19.7mil|CornerRadius=9.8mil|HoleSize=0mil|Usage=FLASHONLY|Rotation=0.000|XOffset=0mil|YOffset=0mil|HoleType=Round|Shape=RoundedRectangle|*
%AMROUNDEDRECTD26*
21,1,0.0645,0.0000,0,0,0.0*
21,1,0.0448,0.0197,0,0,0.0*
1,1,0.0197,0.0224,0.0000*
1,1,0.0197,-0.0224,0.0000*
1,1,0.0197,-0.0224,0.0000*
1,1,0.0197,0.0224,0.0000*
%
%ADD26ROUNDEDRECTD26*%
%ADD27R,0.0645X0.0197*%
%ADD28R,0.0433X0.0236*%
%ADD29R,0.0472X0.0591*%
%ADD30R,0.0591X0.0472*%
%ADD31R,0.0591X0.0394*%
%ADD32R,0.0394X0.0591*%
%ADD33R,0.0551X0.0472*%
%ADD34R,0.0472X0.0551*%
%ADD35R,0.0630X0.0787*%
%ADD36R,0.0472X0.0551*%
%ADD37R,0.0551X0.0472*%
%ADD38R,0.1378X0.2244*%
%ADD39R,0.0480X0.0472*%
%ADD40R,0.0236X0.0433*%
%ADD41R,0.1378X0.0906*%
%ADD42R,0.1181X0.0906*%
%ADD65C,0.0197*%
%ADD66C,0.0236*%
%ADD67C,0.0472*%
%ADD68C,0.0315*%
%ADD69C,0.0413*%
%ADD70C,0.0866*%
%ADD71R,0.0866X0.0866*%
%ADD72R,0.0748X0.0748*%
%ADD73C,0.0748*%
%ADD74C,0.2362*%
%ADD75C,0.0551*%
G36*
X13543Y19488D02*
X13472Y19452D01*
X13301Y19328D01*
X13152Y19179D01*
X13028Y19009D01*
X12933Y18821D01*
X12868Y18621D01*
X12835Y18412D01*
Y18202D01*
X12868Y17994D01*
X12898Y17900D01*
X12881Y17887D01*
X12719Y17815D01*
X12667Y17866D01*
X12569Y17923D01*
X12459Y17953D01*
X12345D01*
X12234Y17923D01*
X12223Y17917D01*
X11904D01*
Y17972D01*
X11116D01*
Y17545D01*
X11113Y17520D01*
X11116Y17494D01*
Y17067D01*
Y16679D01*
X11113Y16654D01*
X11116Y16628D01*
Y16201D01*
X11904D01*
Y16256D01*
X13103D01*
X13815Y15544D01*
Y13650D01*
X13735Y13594D01*
X13619Y13555D01*
X13553Y13593D01*
X13443Y13622D01*
X13329D01*
X13219Y13593D01*
X13120Y13536D01*
X13039Y13455D01*
X12982Y13356D01*
X12953Y13246D01*
X12759Y13253D01*
Y13386D01*
X12747Y13447D01*
X12712Y13499D01*
X12712Y13499D01*
X12554Y13657D01*
X12502Y13692D01*
X12441Y13704D01*
X12441Y13704D01*
X11949D01*
Y14134D01*
X11949Y14252D01*
X11949Y14449D01*
Y15039D01*
X11043D01*
Y15039D01*
X10866Y15087D01*
Y15118D01*
X10276D01*
X10079Y15118D01*
X9882Y15118D01*
X9803D01*
Y14685D01*
Y14252D01*
X9882D01*
X10079Y14252D01*
X10276Y14252D01*
X10846D01*
X10866Y14252D01*
X11043Y14204D01*
X11043Y14134D01*
Y13543D01*
X11043Y13543D01*
X11060Y13386D01*
X11060Y13386D01*
Y13314D01*
X10804Y13059D01*
X10466D01*
X10364Y13045D01*
X10268Y13005D01*
X10263Y13002D01*
X10034Y13027D01*
X10019Y13035D01*
X9980Y13088D01*
Y13307D01*
X9624D01*
X9606Y13309D01*
X9331D01*
Y13425D01*
Y14252D01*
X9567D01*
Y14685D01*
Y15118D01*
X9215D01*
Y15669D01*
X9206Y15741D01*
X9178Y15808D01*
X9134Y15866D01*
X8860Y16139D01*
X8861Y16149D01*
X8928Y16336D01*
X9829D01*
Y16201D01*
X10616D01*
Y17067D01*
Y17972D01*
X10430D01*
X10067Y18335D01*
X10001Y18385D01*
X9925Y18417D01*
X9843Y18428D01*
X9783D01*
Y18465D01*
X8878D01*
X8878Y18465D01*
X8780Y18504D01*
X8780Y18504D01*
X8697Y18504D01*
X7913D01*
X7913Y18504D01*
X7729Y18534D01*
X7695Y18543D01*
X7581D01*
X7520Y18527D01*
X7323Y18563D01*
Y18563D01*
X6693D01*
Y17953D01*
Y17343D01*
X7323D01*
Y17565D01*
X7382Y17622D01*
X7520Y17694D01*
X7581Y17677D01*
X7695D01*
X7717Y17683D01*
X7893Y17574D01*
X7913Y17542D01*
Y16971D01*
X7244D01*
X7162Y16960D01*
X7085Y16929D01*
X7019Y16878D01*
X6736Y16594D01*
X5945D01*
Y16869D01*
X5512D01*
Y16988D01*
X5394D01*
Y17381D01*
X4843D01*
Y16988D01*
X4606D01*
Y17381D01*
X4480D01*
X4331Y17381D01*
X4331Y17543D01*
Y17638D01*
X3465D01*
Y17559D01*
X3465Y17362D01*
X3465D01*
Y17362D01*
X3465D01*
Y16575D01*
X3385Y16454D01*
X3359Y16392D01*
X3170Y16378D01*
X3170Y16378D01*
X3170Y16378D01*
X2707D01*
X2690Y16380D01*
X2449D01*
X2112Y16718D01*
X2058Y16759D01*
X1996Y16785D01*
X1929Y16794D01*
X1875Y16970D01*
X1876Y16990D01*
X1904Y17073D01*
X2080Y17162D01*
X2250Y17286D01*
X2399Y17435D01*
X2523Y17606D01*
X2618Y17793D01*
X2684Y17994D01*
X2717Y18202D01*
Y18412D01*
X2684Y18621D01*
X2618Y18821D01*
X2523Y19009D01*
X2399Y19179D01*
X2250Y19328D01*
X2080Y19452D01*
X2008Y19488D01*
X2056Y19685D01*
X13496D01*
X13543Y19488D01*
D02*
G37*
G36*
X15551Y17629D02*
Y12508D01*
X15512Y12327D01*
X15354Y12327D01*
X14610D01*
Y15709D01*
X14596Y15811D01*
X14556Y15907D01*
X14493Y15989D01*
X13606Y16877D01*
X13712Y17050D01*
X13860Y17001D01*
X14068Y16969D01*
X14279D01*
X14487Y17001D01*
X14687Y17067D01*
X14875Y17162D01*
X15045Y17286D01*
X15194Y17435D01*
X15318Y17606D01*
X15354Y17677D01*
X15551Y17629D01*
D02*
G37*
G36*
X233Y17606D02*
X357Y17435D01*
X506Y17286D01*
X676Y17162D01*
X864Y17067D01*
X1064Y17001D01*
X1138Y16990D01*
X1194Y16874D01*
X1215Y16778D01*
X1171Y16703D01*
X1142Y16592D01*
Y16478D01*
X1171Y16368D01*
X1228Y16270D01*
X1309Y16189D01*
X1408Y16132D01*
X1518Y16102D01*
X1632D01*
X1742Y16132D01*
X1841Y16189D01*
X1876Y16224D01*
X2087Y16012D01*
X2210Y15866D01*
Y15866D01*
X2326D01*
X2343Y15864D01*
X2343Y15864D01*
X2690D01*
Y15632D01*
X2185D01*
X2185Y15632D01*
X2168Y15630D01*
X2118D01*
X2056Y15598D01*
X2003Y15557D01*
X1589Y15143D01*
X1548Y15090D01*
X1543Y15077D01*
X1432Y15025D01*
X1365Y15004D01*
X1340Y15000D01*
X1181Y15000D01*
X1102D01*
Y14567D01*
X984D01*
Y14449D01*
X591D01*
Y14134D01*
Y13937D01*
X984D01*
Y13819D01*
X1102D01*
Y13386D01*
X1181D01*
X1378Y13386D01*
X1454Y13220D01*
Y12480D01*
X1465Y12398D01*
X1497Y12321D01*
X1547Y12256D01*
X1823Y11980D01*
X1888Y11930D01*
X1965Y11898D01*
X2047Y11887D01*
X2165D01*
Y11614D01*
X3346D01*
Y11837D01*
X4094D01*
Y11811D01*
X4882D01*
X4961Y11811D01*
X5079Y11663D01*
Y11535D01*
X5512D01*
Y11417D01*
X5630D01*
Y11024D01*
X6315D01*
Y10750D01*
X6313Y10732D01*
X6315Y10714D01*
Y10358D01*
X6164Y10246D01*
X5945D01*
Y9890D01*
X5943Y9872D01*
Y9390D01*
X5874Y9321D01*
X5817Y9222D01*
X5787Y9112D01*
Y8998D01*
X5817Y8888D01*
X5874Y8789D01*
X5955Y8709D01*
X5926Y8497D01*
X5906Y8468D01*
X5669D01*
Y8681D01*
X3976D01*
Y8468D01*
X3346D01*
Y8661D01*
X2165D01*
Y7480D01*
X3346D01*
Y7674D01*
X3976D01*
Y7461D01*
X5669D01*
Y7674D01*
X6102D01*
X6205Y7687D01*
X6301Y7727D01*
X6305Y7730D01*
X6534Y7706D01*
X6549Y7697D01*
X6588Y7645D01*
Y7425D01*
X6944D01*
X6962Y7423D01*
X7280D01*
Y7307D01*
X7283D01*
Y6504D01*
X7874D01*
X8071Y6504D01*
Y6504D01*
X8071D01*
Y6504D01*
X8346D01*
Y6937D01*
X8465D01*
D01*
X8346D01*
Y7370D01*
X8242D01*
X8075Y7370D01*
X8075Y7502D01*
Y7870D01*
X8189Y8020D01*
X8272Y8020D01*
X8934D01*
X9065Y7991D01*
X9114Y7847D01*
Y7744D01*
X9567D01*
X10020D01*
Y7862D01*
X10020Y7980D01*
X10020Y8177D01*
Y8768D01*
X10118Y8803D01*
Y9906D01*
X9963D01*
Y10128D01*
X9979Y10135D01*
X9998Y10149D01*
X10057Y10176D01*
X10191D01*
X10251Y10149D01*
X10269Y10135D01*
X10331Y10109D01*
X10381Y10102D01*
X10368Y9906D01*
X10354D01*
Y9473D01*
X10827D01*
X11299D01*
Y9906D01*
X10837D01*
X10824Y10102D01*
X10874Y10109D01*
X10936Y10135D01*
X10990Y10176D01*
X11031Y10229D01*
X11057Y10292D01*
X11066Y10358D01*
X11241Y10469D01*
X11863D01*
X11965Y10367D01*
Y9921D01*
X11969Y9906D01*
Y9768D01*
X12089D01*
X12126Y9761D01*
X13504D01*
X13541Y9768D01*
X13565D01*
X13673Y9629D01*
X13598Y9488D01*
X13492Y9488D01*
X13413D01*
Y9055D01*
X13295D01*
Y8937D01*
X12902D01*
Y8622D01*
Y8386D01*
X13295D01*
Y8150D01*
X12902D01*
Y8057D01*
X12756Y7933D01*
X12165D01*
X12047Y7933D01*
X11850Y7933D01*
X11732D01*
Y7480D01*
Y7028D01*
X11850D01*
X11969Y7028D01*
X12237Y7028D01*
X12402Y6949D01*
X12402Y6831D01*
Y6522D01*
X12398Y6496D01*
Y6036D01*
X12205Y6028D01*
Y6028D01*
X12008Y5999D01*
X11895Y6112D01*
X11813Y6175D01*
X11717Y6214D01*
X11614Y6228D01*
X10303D01*
Y6283D01*
X9516D01*
Y5857D01*
X9512Y5831D01*
X9516Y5805D01*
Y5413D01*
X9516Y5378D01*
X9430Y5217D01*
X9055Y5217D01*
X9019Y5398D01*
Y5831D01*
X9016Y5857D01*
Y6283D01*
X8228D01*
Y6228D01*
X7169D01*
X7067Y6214D01*
X6971Y6175D01*
X6941Y6152D01*
X6775Y6228D01*
X6752Y6252D01*
Y6310D01*
X6716Y6445D01*
X6646Y6567D01*
X6547Y6665D01*
X6426Y6735D01*
X6290Y6772D01*
X6151D01*
X6015Y6735D01*
X5894Y6665D01*
X5830Y6602D01*
X5728Y6547D01*
X5619Y6516D01*
X5550Y6516D01*
X4941D01*
Y5906D01*
Y5295D01*
X5492D01*
X5669Y5295D01*
X5689Y5107D01*
Y4736D01*
X5685Y4702D01*
X5603Y4547D01*
X3976D01*
Y4334D01*
X3346D01*
Y4528D01*
X2165D01*
Y3346D01*
X3346D01*
Y3540D01*
X3976D01*
Y3327D01*
X5669D01*
Y3540D01*
X6102D01*
X6205Y3553D01*
X6301Y3593D01*
X6305Y3596D01*
X6534Y3572D01*
X6549Y3564D01*
X6588Y3511D01*
Y3291D01*
X6944D01*
X6962Y3289D01*
X7283D01*
Y3134D01*
X7874D01*
X8071Y3134D01*
Y3134D01*
X8071D01*
Y3134D01*
X8346D01*
Y3567D01*
X8583D01*
Y3134D01*
X8819D01*
X8858Y3134D01*
X9016D01*
X9055Y3134D01*
X9606D01*
X9803Y3134D01*
X10000Y3134D01*
X10079D01*
Y3567D01*
Y4000D01*
X10000D01*
X9856Y4000D01*
X9727Y4166D01*
X9764Y4311D01*
X9764D01*
Y5181D01*
X9764Y5217D01*
X9849Y5378D01*
X10303D01*
Y5378D01*
X10374Y5390D01*
X10571Y5241D01*
Y4716D01*
X10571Y4689D01*
X10571D01*
X10591Y4528D01*
X10591D01*
Y4197D01*
X10591Y4000D01*
X10394Y4000D01*
X10315D01*
Y3567D01*
Y3134D01*
X10394D01*
X10553Y3134D01*
X10591Y2953D01*
X10628D01*
X10628Y2953D01*
X10906D01*
Y3346D01*
X11024D01*
Y3465D01*
X11457D01*
Y3543D01*
X11457Y3740D01*
X11457Y3937D01*
Y4528D01*
X11457D01*
X11476Y4689D01*
X11476D01*
X11476Y4716D01*
Y5129D01*
X11673Y5210D01*
X11721Y5162D01*
X11804Y5099D01*
X11899Y5059D01*
X12002Y5046D01*
X12205D01*
Y4846D01*
X13386D01*
Y5040D01*
X13917D01*
Y5039D01*
X14823D01*
Y5824D01*
X14823Y5827D01*
X14830Y6021D01*
X15157D01*
X15157Y6021D01*
X15219Y6033D01*
X15271Y6068D01*
X15354Y6151D01*
X15551Y6069D01*
Y2056D01*
X15354Y2008D01*
X15318Y2080D01*
X15194Y2250D01*
X15045Y2399D01*
X14875Y2523D01*
X14687Y2618D01*
X14487Y2684D01*
X14279Y2717D01*
X14068D01*
X14045Y2713D01*
X13951Y2897D01*
X14806Y3752D01*
X14823D01*
Y3769D01*
X14877Y3823D01*
X14912Y3876D01*
X14924Y3937D01*
X14924Y3937D01*
Y4331D01*
X14924Y4331D01*
X14912Y4392D01*
X14877Y4444D01*
X14877Y4444D01*
X14823Y4499D01*
Y4539D01*
X14782D01*
X14759Y4562D01*
X14707Y4597D01*
X14646Y4609D01*
X14646Y4609D01*
X14094D01*
X14094Y4609D01*
X14033Y4597D01*
X13981Y4562D01*
X13981Y4562D01*
X13958Y4539D01*
X13917D01*
Y4499D01*
X13863Y4444D01*
X13828Y4392D01*
X13816Y4331D01*
X13816Y4331D01*
Y4200D01*
X13583Y3967D01*
X13495Y3980D01*
X13377Y4040D01*
X13363Y4109D01*
X13319Y4217D01*
X13254Y4313D01*
X13172Y4396D01*
X13075Y4460D01*
X12968Y4505D01*
X12913Y4516D01*
Y3937D01*
X12795D01*
Y3819D01*
X12217D01*
X12227Y3765D01*
X12272Y3657D01*
X12337Y3561D01*
X12419Y3478D01*
X12516Y3414D01*
X12623Y3369D01*
X12692Y3355D01*
X12753Y3237D01*
X12765Y3150D01*
X12138Y2523D01*
X11024D01*
X10962Y2511D01*
X10910Y2476D01*
X10910Y2476D01*
X10713Y2279D01*
X10678Y2227D01*
X10666Y2165D01*
X10666Y2165D01*
Y1772D01*
X10666Y1772D01*
X10678Y1710D01*
X10713Y1658D01*
X10910Y1461D01*
X10910Y1461D01*
X10962Y1426D01*
X11024Y1414D01*
X11024Y1414D01*
X12402D01*
X12463Y1426D01*
X12515Y1461D01*
X12515Y1461D01*
X12654Y1600D01*
X12838Y1506D01*
X12835Y1483D01*
Y1273D01*
X12868Y1064D01*
X12933Y864D01*
X13028Y676D01*
X13152Y506D01*
X13301Y357D01*
X13472Y233D01*
X13543Y197D01*
X13496Y0D01*
X2056D01*
X2008Y197D01*
X2080Y233D01*
X2250Y357D01*
X2399Y506D01*
X2523Y676D01*
X2618Y864D01*
X2684Y1064D01*
X2717Y1273D01*
Y1483D01*
X2684Y1691D01*
X2618Y1892D01*
X2523Y2080D01*
X2399Y2250D01*
X2250Y2399D01*
X2080Y2523D01*
X1892Y2618D01*
X1691Y2684D01*
X1483Y2717D01*
X1273D01*
X1064Y2684D01*
X864Y2618D01*
X676Y2523D01*
X506Y2399D01*
X357Y2250D01*
X233Y2080D01*
X197Y2008D01*
X0Y2056D01*
Y17629D01*
X197Y17677D01*
X233Y17606D01*
D02*
G37*
G36*
X5827Y15374D02*
X6128D01*
X6169Y15219D01*
X6044Y15055D01*
X6004D01*
X5341D01*
Y14504D01*
X6004D01*
X6089Y14504D01*
X6201Y14353D01*
Y14134D01*
X6201D01*
X6171Y13950D01*
X6148Y13920D01*
X6065Y13909D01*
X6014D01*
X5931Y13920D01*
X5899Y13962D01*
X5846Y14003D01*
X5783Y14029D01*
X5716Y14038D01*
X5307D01*
X5307Y14038D01*
X5101D01*
X4961Y14173D01*
X4961Y14370D01*
Y14449D01*
X4094D01*
Y14370D01*
X4094Y14173D01*
X4094Y13976D01*
Y13583D01*
X4094Y13386D01*
X4094D01*
Y13386D01*
X4094D01*
Y12795D01*
X4094Y12598D01*
X3909Y12572D01*
X3346D01*
Y12795D01*
X2165D01*
X2089Y12961D01*
Y13255D01*
X2267Y13331D01*
X2326Y13299D01*
X2379Y13246D01*
X2476Y13181D01*
X2584Y13137D01*
X2638Y13126D01*
Y13705D01*
Y14283D01*
X2584Y14273D01*
X2476Y14228D01*
X2379Y14163D01*
X2362Y14146D01*
X2165Y14228D01*
Y14989D01*
X2292Y15116D01*
X2915D01*
X2981Y15125D01*
X3044Y15150D01*
X3202Y15192D01*
X3256Y15150D01*
X3318Y15125D01*
X3385Y15116D01*
X3994D01*
X4094Y14961D01*
Y14685D01*
X4961D01*
Y14961D01*
X5071Y15108D01*
X5128Y15207D01*
X5157Y15317D01*
Y15431D01*
X5128Y15541D01*
X5088Y15610D01*
X5124Y15719D01*
X5183Y15806D01*
X5827D01*
Y15374D01*
D02*
G37*
G36*
X12598Y13386D02*
Y12992D01*
X12441Y12835D01*
X11339D01*
X11220Y12953D01*
Y13386D01*
X11378Y13543D01*
X12441D01*
X12598Y13386D01*
D02*
G37*
G36*
X13010Y12974D02*
X13039Y12923D01*
X13120Y12842D01*
X13219Y12785D01*
X13329Y12756D01*
X13443D01*
X13553Y12785D01*
X13619Y12823D01*
X13735Y12784D01*
X13815Y12728D01*
Y12430D01*
X13661Y12327D01*
X13619Y12327D01*
X11474D01*
X11393Y12524D01*
X11543Y12674D01*
X12441D01*
X12502Y12686D01*
X12554Y12721D01*
X12554Y12721D01*
X12712Y12879D01*
X12747Y12931D01*
X12759Y12992D01*
X12780Y13015D01*
X12854Y13018D01*
X13010Y12974D01*
D02*
G37*
G36*
X13504Y9921D02*
X12126D01*
Y10433D01*
X11929Y10630D01*
X10433D01*
Y10827D01*
X11024D01*
X11457Y11260D01*
Y12165D01*
X13504D01*
Y9921D01*
D02*
G37*
G36*
X15354Y6378D02*
X15157Y6181D01*
X13898D01*
X13858Y6220D01*
Y6811D01*
X14094Y7047D01*
X14476D01*
Y7362D01*
X14083D01*
Y7598D01*
X14476D01*
Y7835D01*
Y8150D01*
X14083D01*
Y8386D01*
X14476D01*
Y8622D01*
Y8937D01*
X14083D01*
Y9173D01*
X14476D01*
Y9488D01*
X14134D01*
X13976Y9646D01*
Y12165D01*
X15354D01*
Y6378D01*
D02*
G37*
G36*
X14764Y4331D02*
Y3937D01*
X12402Y1575D01*
X11024D01*
X10827Y1772D01*
Y2165D01*
X11024Y2362D01*
X12205D01*
X13976Y4134D01*
Y4331D01*
X14094Y4449D01*
X14646D01*
X14764Y4331D01*
D02*
G37*
%LPC*%
G36*
X6457Y18563D02*
X5827D01*
Y18071D01*
X6457D01*
Y18563D01*
D02*
G37*
G36*
X4331Y18150D02*
X4016D01*
Y17874D01*
X4331D01*
Y18150D01*
D02*
G37*
G36*
X3780D02*
X3465D01*
Y17874D01*
X3780D01*
Y18150D01*
D02*
G37*
G36*
X6457Y17835D02*
X5827D01*
Y17490D01*
X5827Y17381D01*
X5764Y17381D01*
X5630D01*
Y17106D01*
X5945D01*
Y17233D01*
X5945Y17343D01*
X6008Y17343D01*
X6457D01*
Y17835D01*
D02*
G37*
G36*
X866Y15000D02*
X591D01*
Y14685D01*
X866D01*
Y15000D01*
D02*
G37*
G36*
Y13701D02*
X591D01*
Y13386D01*
X866D01*
Y13701D01*
D02*
G37*
G36*
X5394Y11299D02*
X5079D01*
Y11024D01*
X5394D01*
Y11299D01*
D02*
G37*
G36*
X5669Y10650D02*
X4941D01*
Y10157D01*
X5669D01*
Y10650D01*
D02*
G37*
G36*
X4705D02*
X3976D01*
Y10157D01*
X4705D01*
Y10650D01*
D02*
G37*
G36*
X2874Y10149D02*
Y9689D01*
X3335D01*
X3324Y9743D01*
X3279Y9851D01*
X3215Y9947D01*
X3132Y10030D01*
X3036Y10094D01*
X2928Y10139D01*
X2874Y10149D01*
D02*
G37*
G36*
X2638D02*
X2584Y10139D01*
X2476Y10094D01*
X2379Y10030D01*
X2297Y9947D01*
X2233Y9851D01*
X2188Y9743D01*
X2177Y9689D01*
X2638D01*
Y10149D01*
D02*
G37*
G36*
X5669Y9921D02*
X4941D01*
Y9429D01*
X5669D01*
Y9921D01*
D02*
G37*
G36*
X4705D02*
X3976D01*
Y9429D01*
X4705D01*
Y9921D01*
D02*
G37*
G36*
X13177Y9488D02*
X12902D01*
Y9173D01*
X13177D01*
Y9488D01*
D02*
G37*
G36*
X3335Y9453D02*
X2874D01*
Y8992D01*
X2928Y9003D01*
X3036Y9048D01*
X3132Y9112D01*
X3215Y9194D01*
X3279Y9291D01*
X3324Y9399D01*
X3335Y9453D01*
D02*
G37*
G36*
X2638D02*
X2177D01*
X2188Y9399D01*
X2233Y9291D01*
X2297Y9194D01*
X2379Y9112D01*
X2476Y9048D01*
X2584Y9003D01*
X2638Y8992D01*
Y9453D01*
D02*
G37*
G36*
X11299Y9236D02*
X10945D01*
Y8803D01*
X11299D01*
Y9236D01*
D02*
G37*
G36*
X10709D02*
X10354D01*
Y8803D01*
X10709D01*
Y9236D01*
D02*
G37*
G36*
X11496Y7933D02*
X11260D01*
Y7598D01*
X11496D01*
Y7933D01*
D02*
G37*
G36*
X10020Y7508D02*
X9685D01*
Y7272D01*
X10020D01*
Y7508D01*
D02*
G37*
G36*
X9449D02*
X9114D01*
Y7272D01*
X9449D01*
Y7508D01*
D02*
G37*
G36*
X8583Y7370D02*
Y7055D01*
X8858D01*
Y7370D01*
X8583D01*
D02*
G37*
G36*
X11496Y7362D02*
X11260D01*
Y7028D01*
X11496D01*
Y7362D01*
D02*
G37*
G36*
X8858Y6819D02*
X8583D01*
Y6504D01*
X8858D01*
Y6819D01*
D02*
G37*
G36*
X4705Y6516D02*
X3976D01*
Y6024D01*
X4705D01*
Y6516D01*
D02*
G37*
G36*
X2874Y6016D02*
Y5555D01*
X3335D01*
X3324Y5609D01*
X3279Y5717D01*
X3215Y5813D01*
X3132Y5896D01*
X3036Y5960D01*
X2928Y6005D01*
X2874Y6016D01*
D02*
G37*
G36*
X2638Y6016D02*
X2584Y6005D01*
X2476Y5960D01*
X2379Y5896D01*
X2297Y5813D01*
X2233Y5717D01*
X2188Y5609D01*
X2177Y5555D01*
X2638D01*
Y6016D01*
D02*
G37*
G36*
X4705Y5787D02*
X3976D01*
Y5295D01*
X4705D01*
Y5787D01*
D02*
G37*
G36*
X3335Y5319D02*
X2874D01*
Y4858D01*
X2928Y4869D01*
X3036Y4914D01*
X3132Y4978D01*
X3215Y5061D01*
X3279Y5157D01*
X3324Y5265D01*
X3335Y5319D01*
D02*
G37*
G36*
X2638D02*
X2177D01*
X2188Y5265D01*
X2233Y5157D01*
X2297Y5061D01*
X2379Y4978D01*
X2476Y4914D01*
X2584Y4869D01*
X2638Y4858D01*
Y5319D01*
D02*
G37*
G36*
X12677Y4516D02*
X12623Y4505D01*
X12516Y4460D01*
X12419Y4396D01*
X12337Y4313D01*
X12272Y4217D01*
X12227Y4109D01*
X12217Y4055D01*
X12677D01*
Y4516D01*
D02*
G37*
G36*
X11457Y3228D02*
X11142D01*
Y2953D01*
X11457D01*
Y3228D01*
D02*
G37*
G36*
X2874Y14283D02*
Y13823D01*
X3335D01*
X3324Y13877D01*
X3279Y13984D01*
X3215Y14081D01*
X3132Y14163D01*
X3036Y14228D01*
X2928Y14273D01*
X2874Y14283D01*
D02*
G37*
G36*
X3335Y13587D02*
X2874D01*
Y13126D01*
X2928Y13137D01*
X3036Y13181D01*
X3132Y13246D01*
X3215Y13328D01*
X3279Y13425D01*
X3324Y13532D01*
X3335Y13587D01*
D02*
G37*
%LPD*%
D24*
X9646Y11106D02*
D03*
X6567Y13032D02*
D03*
D25*
X9646Y10732D02*
D03*
Y10358D02*
D03*
X10603D02*
D03*
Y10732D02*
D03*
Y11106D02*
D03*
X5512Y13032D02*
D03*
Y13780D02*
D03*
X6567D02*
D03*
Y13406D02*
D03*
D26*
X3609Y16122D02*
D03*
Y15374D02*
D03*
X2690D02*
D03*
Y15748D02*
D03*
D27*
Y16122D02*
D03*
D28*
X6575Y14409D02*
D03*
Y15149D02*
D03*
X5715Y14779D02*
D03*
X6962Y3567D02*
D03*
Y4307D02*
D03*
X6102Y3937D02*
D03*
X9606Y13032D02*
D03*
Y12292D02*
D03*
X10466Y12661D02*
D03*
X6962Y7701D02*
D03*
Y8441D02*
D03*
X6102Y8071D02*
D03*
D29*
X8622Y5831D02*
D03*
X9909D02*
D03*
X14083Y6496D02*
D03*
X12795D02*
D03*
X11510Y17520D02*
D03*
X10222D02*
D03*
X11510Y16654D02*
D03*
X10222D02*
D03*
D30*
X14370Y4146D02*
D03*
Y5433D02*
D03*
D31*
X9567Y8413D02*
D03*
Y7626D02*
D03*
X9331Y18110D02*
D03*
Y17323D02*
D03*
X11024Y5831D02*
D03*
Y5043D02*
D03*
X11496Y13898D02*
D03*
Y14685D02*
D03*
D32*
X12402Y7480D02*
D03*
X11614D02*
D03*
X8622Y4764D02*
D03*
X9409D02*
D03*
D33*
X5512Y12205D02*
D03*
Y11417D02*
D03*
Y16988D02*
D03*
Y16200D02*
D03*
X4724Y16988D02*
D03*
Y16200D02*
D03*
D34*
X984Y14567D02*
D03*
X1772D02*
D03*
X984Y13819D02*
D03*
X1772D02*
D03*
X13295Y8268D02*
D03*
X14083D02*
D03*
X13295Y9055D02*
D03*
X14083D02*
D03*
X11693Y11894D02*
D03*
X10906D02*
D03*
D35*
X10827Y9354D02*
D03*
X9646D02*
D03*
D36*
X8465Y3567D02*
D03*
X7677D02*
D03*
X10197D02*
D03*
X9409D02*
D03*
X8150Y14685D02*
D03*
X8937D02*
D03*
X8937Y13858D02*
D03*
X8150D02*
D03*
X10472Y14685D02*
D03*
X9685D02*
D03*
X8150Y13032D02*
D03*
X8937D02*
D03*
X8465Y6937D02*
D03*
X7677D02*
D03*
X13295Y7480D02*
D03*
X14083D02*
D03*
D37*
X11024Y3346D02*
D03*
Y4134D02*
D03*
X4528Y14567D02*
D03*
Y13780D02*
D03*
Y12992D02*
D03*
Y12205D02*
D03*
X6339Y11417D02*
D03*
Y12205D02*
D03*
X8346Y18110D02*
D03*
Y17323D02*
D03*
X3898Y17756D02*
D03*
Y16968D02*
D03*
X8622Y8413D02*
D03*
Y9201D02*
D03*
Y10732D02*
D03*
Y9945D02*
D03*
D38*
X14665Y11048D02*
D03*
X12815D02*
D03*
D39*
X7677Y4331D02*
D03*
Y5831D02*
D03*
Y7701D02*
D03*
Y9201D02*
D03*
D40*
X6220Y9872D02*
D03*
X6960D02*
D03*
X6590Y10732D02*
D03*
D41*
X4823Y8071D02*
D03*
Y10039D02*
D03*
Y3937D02*
D03*
Y5906D02*
D03*
D42*
X6575Y17953D02*
D03*
Y15984D02*
D03*
D65*
X11223Y10358D02*
X11518Y10063D01*
X11614D01*
X10603Y10358D02*
X11223D01*
X6567Y13406D02*
X7362D01*
X8780Y11535D02*
X9209Y11106D01*
X9646D01*
X10603D02*
Y11591D01*
X10906Y11894D01*
X3609Y16122D02*
Y16325D01*
X3898Y16614D01*
Y16968D01*
X1575Y16535D02*
X1929D01*
X2343Y16122D01*
X2690D01*
X1581Y15748D02*
X2690D01*
X12598Y7480D02*
X13295D01*
X6567Y13032D02*
X6929D01*
X7165Y12795D02*
X7913D01*
X6929Y13032D02*
X7165Y12795D01*
X5512Y12205D02*
Y13032D01*
X1772Y14567D02*
Y14961D01*
X3609Y15374D02*
X4724D01*
X1772Y14961D02*
X2185Y15374D01*
X2690D01*
X4528Y13780D02*
X5512D01*
X8150Y13032D02*
Y13858D01*
X7913Y12795D02*
X8150Y13032D01*
X8622Y10732D02*
X9646D01*
D66*
X3780Y14567D02*
X4528D01*
X6339Y11417D02*
X7087D01*
X7510Y9872D02*
X7677Y10039D01*
X13858Y13189D02*
X14094Y12953D01*
X13858Y13189D02*
X14094Y13425D01*
X13386Y13189D02*
X13858D01*
X6960Y9872D02*
X7510D01*
X11496Y13543D02*
X11654Y13386D01*
X11496Y13543D02*
Y13898D01*
X8346Y17323D02*
X9331D01*
X7638Y18110D02*
X8346D01*
X7480Y15354D02*
Y15669D01*
X7756Y15945D02*
X8661D01*
X7480Y15669D02*
X7756Y15945D01*
X6575Y15149D02*
X7275D01*
X7480Y15354D01*
X8150Y14685D02*
Y15394D01*
X6590Y10732D02*
X8622D01*
X6220Y9055D02*
Y9872D01*
X8937Y13032D02*
X9606D01*
X4528Y12992D02*
Y13780D01*
X6575Y14409D02*
X7362D01*
X8937Y14685D02*
Y15669D01*
Y13858D02*
Y14685D01*
X8661Y15945D02*
X8937Y15669D01*
X6575Y13819D02*
Y14409D01*
X8622Y8413D02*
X9567D01*
X8622Y9201D02*
Y9945D01*
X11024Y5043D02*
X11024Y5043D01*
Y4134D02*
Y5043D01*
X9409Y3567D02*
Y4764D01*
X7677Y6937D02*
Y7701D01*
X6962D02*
X7677D01*
Y3567D02*
Y4331D01*
X6962Y3567D02*
X7677D01*
D67*
X9909Y5831D02*
X11024D01*
X11614D01*
X12795Y5437D02*
Y6496D01*
Y5437D02*
X14370D01*
X12002Y5443D02*
X12790D01*
X11614Y5831D02*
X12002Y5443D01*
X11510Y17520D02*
X12402D01*
X12402Y17520D01*
X14213Y11500D02*
Y15709D01*
Y11500D02*
X14665Y11048D01*
X13268Y16654D02*
X14213Y15709D01*
X11510Y16654D02*
X13268D01*
X10969Y12661D02*
X11496Y13189D01*
X10466Y12661D02*
X10969D01*
X6962Y4307D02*
Y5053D01*
Y5427D02*
Y5624D01*
X6776Y5240D02*
X6962Y5053D01*
X6776Y5240D02*
X6962Y5427D01*
X6220Y5240D02*
X6776D01*
X6962Y5624D02*
X7169Y5831D01*
X7677D01*
X8622D01*
X9197Y9354D02*
X9646D01*
X8622Y9201D02*
X9043D01*
X7677D02*
X8622D01*
X9043D02*
X9197Y9354D01*
X6962Y8441D02*
Y8994D01*
X8622Y4764D02*
Y5831D01*
X6962Y8994D02*
X7169Y9201D01*
X7677D01*
X4823Y8071D02*
X6102D01*
X2756D02*
X4823D01*
Y3937D02*
X6102D01*
X2756D02*
X4823D01*
D68*
X9331Y18110D02*
X9843D01*
X10222Y17520D02*
Y17730D01*
Y16654D02*
Y17520D01*
X9843Y18110D02*
X10222Y17730D01*
X8346Y18110D02*
X8346Y18110D01*
X7244Y16654D02*
X10222D01*
X10472Y14685D02*
X11496D01*
X6575Y15984D02*
X7244Y16654D01*
X5512Y16200D02*
X6359D01*
X4724D02*
X5512D01*
X6359D02*
X6575Y15984D01*
X2047Y12205D02*
X2756D01*
X1772Y12480D02*
X2047Y12205D01*
X1772Y12480D02*
Y13819D01*
Y14567D01*
X4724Y15374D02*
Y16200D01*
X9646Y9354D02*
Y10276D01*
D69*
X2756Y12205D02*
X5512D01*
X6339D02*
X9616D01*
X5512D02*
X6339D01*
D70*
X2756Y9571D02*
D03*
Y13705D02*
D03*
Y5437D02*
D03*
X12795Y3937D02*
D03*
D71*
X2756Y8071D02*
D03*
Y12205D02*
D03*
Y3937D02*
D03*
X12795Y5437D02*
D03*
D72*
X6220Y5240D02*
D03*
D73*
Y6240D02*
D03*
D74*
X1378Y18307D02*
D03*
Y1378D02*
D03*
X14173D02*
D03*
Y18307D02*
D03*
D75*
X15118Y13032D02*
D03*
Y15748D02*
D03*
X12402D02*
D03*
X3740Y1969D02*
D03*
X4921D02*
D03*
X6102D02*
D03*
X11614Y9276D02*
D03*
X12402Y8488D02*
D03*
X9685Y15748D02*
D03*
X6102Y18898D02*
D03*
X4921D02*
D03*
X3740D02*
D03*
X3780Y14567D02*
D03*
X12402Y17520D02*
D03*
X7362Y13406D02*
D03*
X8780Y11535D02*
D03*
X7087Y11417D02*
D03*
X7677Y10039D02*
D03*
X13386Y13189D02*
D03*
X12008Y1969D02*
D03*
X7638Y18110D02*
D03*
X1575Y16535D02*
D03*
X1581Y15748D02*
D03*
X11220Y1969D02*
D03*
X12205Y13189D02*
D03*
X11496D02*
D03*
X4724Y15374D02*
D03*
X6220Y9055D02*
D03*
X8150Y15394D02*
D03*
X7362Y14409D02*
D03*
X12402Y9276D02*
D03*
X11614Y10063D02*
D03*
Y8488D02*
D03*
M02*
