G04*
G04 #@! TF.GenerationSoftware,Altium Limited,Altium Designer,25.0.2 (28)*
G04*
G04 Layer_Physical_Order=2*
G04 Layer_Color=16711680*
%FSLAX24Y24*%
%MOIN*%
G70*
G04*
G04 #@! TF.SameCoordinates,1A86E40C-C96F-40CC-892B-A9B6597BB8DF*
G04*
G04*
G04 #@! TF.FilePolarity,Positive*
G04*
G01*
G75*
%ADD65C,0.0197*%
%ADD66C,0.0236*%
%ADD67C,0.0472*%
%ADD70C,0.0866*%
%ADD71R,0.0866X0.0866*%
%ADD72R,0.0748X0.0748*%
%ADD73C,0.0748*%
%ADD74C,0.2362*%
%ADD75C,0.0551*%
G36*
X15551Y0D02*
X0D01*
Y19685D01*
X15551D01*
Y0D01*
D02*
G37*
%LPC*%
G36*
X7690Y18504D02*
X7586D01*
X7486Y18477D01*
X7396Y18425D01*
X7323Y18352D01*
X7271Y18262D01*
X7244Y18162D01*
Y18058D01*
X7250Y18035D01*
X5972Y16756D01*
X1902D01*
X1890Y16777D01*
X1817Y16850D01*
X1727Y16902D01*
X1627Y16929D01*
X1523D01*
X1423Y16902D01*
X1333Y16850D01*
X1260Y16777D01*
X1208Y16687D01*
X1181Y16587D01*
Y16484D01*
X1208Y16383D01*
X1260Y16294D01*
X1333Y16220D01*
X1423Y16169D01*
X1523Y16142D01*
X1627D01*
X1727Y16169D01*
X1817Y16220D01*
X1890Y16294D01*
X1902Y16315D01*
X6063D01*
X6147Y16331D01*
X6219Y16379D01*
X7563Y17723D01*
X7586Y17717D01*
X7690D01*
X7790Y17743D01*
X7880Y17795D01*
X7953Y17868D01*
X8005Y17958D01*
X8031Y18058D01*
Y18162D01*
X8005Y18262D01*
X7953Y18352D01*
X7880Y18425D01*
X7790Y18477D01*
X7690Y18504D01*
D02*
G37*
G36*
X12453Y17913D02*
X12350D01*
X12250Y17887D01*
X12233Y17877D01*
X8661D01*
X8569Y17865D01*
X8483Y17829D01*
X8409Y17772D01*
X4669Y14032D01*
X4612Y13958D01*
X4576Y13872D01*
X4564Y13780D01*
Y5709D01*
X4576Y5616D01*
X4612Y5530D01*
X4669Y5456D01*
X5137Y4987D01*
X5211Y4931D01*
X5297Y4895D01*
X5390Y4883D01*
X5728D01*
Y4748D01*
X6713D01*
Y5732D01*
X6483D01*
X6461Y5811D01*
X6523Y5846D01*
X6614Y5938D01*
X6679Y6050D01*
X6713Y6175D01*
Y6305D01*
X6679Y6430D01*
X6614Y6542D01*
X6523Y6634D01*
X6461Y6669D01*
Y8740D01*
X6462Y8740D01*
X6536Y8813D01*
X6587Y8903D01*
X6614Y9003D01*
Y9107D01*
X6587Y9207D01*
X6536Y9297D01*
X6462Y9370D01*
X6372Y9422D01*
X6272Y9449D01*
X6169D01*
X6069Y9422D01*
X5979Y9370D01*
X5905Y9297D01*
X5854Y9207D01*
X5827Y9107D01*
Y9003D01*
X5854Y8903D01*
X5905Y8813D01*
X5979Y8740D01*
X5980Y8740D01*
Y6669D01*
X5918Y6634D01*
X5827Y6542D01*
X5762Y6430D01*
X5728Y6305D01*
Y6175D01*
X5762Y6050D01*
X5827Y5938D01*
X5918Y5846D01*
X5980Y5811D01*
X5958Y5732D01*
X5728D01*
Y5598D01*
X5538D01*
X5279Y5857D01*
Y13631D01*
X8809Y17162D01*
X12233D01*
X12250Y17153D01*
X12350Y17126D01*
X12453D01*
X12554Y17153D01*
X12643Y17205D01*
X12717Y17278D01*
X12768Y17368D01*
X12795Y17468D01*
Y17572D01*
X12768Y17672D01*
X12717Y17761D01*
X12643Y17835D01*
X12554Y17887D01*
X12453Y17913D01*
D02*
G37*
G36*
X14275Y19606D02*
X14071D01*
X13869Y19574D01*
X13674Y19511D01*
X13492Y19418D01*
X13327Y19298D01*
X13182Y19153D01*
X13062Y18988D01*
X12969Y18806D01*
X12906Y18611D01*
X12874Y18409D01*
Y18205D01*
X12906Y18003D01*
X12969Y17808D01*
X13062Y17626D01*
X13182Y17461D01*
X13327Y17316D01*
X13492Y17196D01*
X13674Y17103D01*
X13869Y17040D01*
X14071Y17008D01*
X14275D01*
X14477Y17040D01*
X14672Y17103D01*
X14854Y17196D01*
X15020Y17316D01*
X15164Y17461D01*
X15284Y17626D01*
X15377Y17808D01*
X15440Y18003D01*
X15472Y18205D01*
Y18409D01*
X15440Y18611D01*
X15377Y18806D01*
X15284Y18988D01*
X15164Y19153D01*
X15020Y19298D01*
X14854Y19418D01*
X14672Y19511D01*
X14477Y19574D01*
X14275Y19606D01*
D02*
G37*
G36*
X1480D02*
X1276D01*
X1074Y19574D01*
X879Y19511D01*
X697Y19418D01*
X532Y19298D01*
X387Y19153D01*
X267Y18988D01*
X174Y18806D01*
X111Y18611D01*
X79Y18409D01*
Y18205D01*
X111Y18003D01*
X174Y17808D01*
X267Y17626D01*
X387Y17461D01*
X532Y17316D01*
X697Y17196D01*
X879Y17103D01*
X1074Y17040D01*
X1276Y17008D01*
X1480D01*
X1682Y17040D01*
X1877Y17103D01*
X2059Y17196D01*
X2224Y17316D01*
X2369Y17461D01*
X2489Y17626D01*
X2582Y17808D01*
X2645Y18003D01*
X2677Y18205D01*
Y18409D01*
X2645Y18611D01*
X2582Y18806D01*
X2489Y18988D01*
X2369Y19153D01*
X2224Y19298D01*
X2059Y19418D01*
X1877Y19511D01*
X1682Y19574D01*
X1480Y19606D01*
D02*
G37*
G36*
X4776Y15768D02*
X4673D01*
X4572Y15741D01*
X4483Y15689D01*
X4409Y15616D01*
X4358Y15526D01*
X4331Y15426D01*
Y15322D01*
X4358Y15222D01*
X4409Y15132D01*
X4483Y15059D01*
X4572Y15007D01*
X4673Y14980D01*
X4776D01*
X4876Y15007D01*
X4966Y15059D01*
X5039Y15132D01*
X5091Y15222D01*
X5118Y15322D01*
Y15426D01*
X5091Y15526D01*
X5039Y15616D01*
X4966Y15689D01*
X4876Y15741D01*
X4776Y15768D01*
D02*
G37*
G36*
X7414Y14803D02*
X7310D01*
X7210Y14776D01*
X7120Y14724D01*
X7047Y14651D01*
X7047Y14650D01*
X6772D01*
X6679Y14632D01*
X6601Y14580D01*
X6326Y14304D01*
X6274Y14226D01*
X6255Y14134D01*
Y13032D01*
X6274Y12939D01*
X6326Y12861D01*
X6846Y12341D01*
Y11733D01*
X6845Y11732D01*
X6772Y11659D01*
X6720Y11569D01*
X6693Y11469D01*
Y11365D01*
X6720Y11265D01*
X6772Y11176D01*
X6845Y11102D01*
X6935Y11050D01*
X7035Y11024D01*
X7138D01*
X7239Y11050D01*
X7328Y11102D01*
X7402Y11176D01*
X7453Y11265D01*
X7480Y11365D01*
Y11469D01*
X7453Y11569D01*
X7402Y11659D01*
X7328Y11732D01*
X7327Y11733D01*
Y12441D01*
X7309Y12533D01*
X7257Y12611D01*
X6737Y13131D01*
Y14034D01*
X6871Y14169D01*
X7047D01*
X7047Y14168D01*
X7120Y14094D01*
X7210Y14043D01*
X7310Y14016D01*
X7414D01*
X7514Y14043D01*
X7604Y14094D01*
X7677Y14168D01*
X7729Y14257D01*
X7756Y14358D01*
Y14461D01*
X7729Y14561D01*
X7677Y14651D01*
X7604Y14724D01*
X7514Y14776D01*
X7414Y14803D01*
D02*
G37*
G36*
X2874Y14244D02*
Y13823D01*
X3295D01*
X3270Y13917D01*
X3197Y14043D01*
X3094Y14146D01*
X2969Y14218D01*
X2874Y14244D01*
D02*
G37*
G36*
X2638Y14244D02*
X2543Y14218D01*
X2417Y14146D01*
X2315Y14043D01*
X2242Y13917D01*
X2217Y13823D01*
X2638D01*
Y14244D01*
D02*
G37*
G36*
Y13587D02*
X2217D01*
X2242Y13492D01*
X2315Y13366D01*
X2417Y13264D01*
X2543Y13191D01*
X2638Y13166D01*
Y13587D01*
D02*
G37*
G36*
X3295D02*
X2874D01*
Y13166D01*
X2969Y13191D01*
X3094Y13264D01*
X3197Y13366D01*
X3270Y13492D01*
X3295Y13587D01*
D02*
G37*
G36*
X12992Y14394D02*
X10236D01*
X10152Y14377D01*
X10080Y14329D01*
X8623Y12873D01*
X8576Y12801D01*
X8559Y12717D01*
Y11863D01*
X8538Y11850D01*
X8464Y11777D01*
X8413Y11687D01*
X8386Y11587D01*
Y11484D01*
X8413Y11383D01*
X8464Y11294D01*
X8538Y11220D01*
X8628Y11169D01*
X8728Y11142D01*
X8831D01*
X8931Y11169D01*
X9021Y11220D01*
X9053Y11252D01*
X9132Y11219D01*
Y2756D01*
X9141Y2710D01*
X9167Y2671D01*
X10348Y1490D01*
X10387Y1464D01*
X10433Y1454D01*
X10433Y1454D01*
X12205D01*
X12251Y1464D01*
X12290Y1490D01*
X12290Y1490D01*
X12487Y1687D01*
X12513Y1726D01*
X12522Y1772D01*
X12522Y1772D01*
Y2165D01*
X12513Y2211D01*
X12487Y2251D01*
X12487Y2251D01*
X12290Y2447D01*
X12251Y2473D01*
X12205Y2483D01*
X12205Y2483D01*
X11073D01*
X10357Y3199D01*
Y11958D01*
X11074Y12675D01*
X12402D01*
X12402Y12675D01*
X12448Y12684D01*
X12487Y12710D01*
X12487Y12710D01*
X12684Y12907D01*
X12684Y12907D01*
X12710Y12946D01*
X12719Y12992D01*
X12719Y12992D01*
Y13386D01*
X12710Y13432D01*
X12684Y13471D01*
X12684Y13471D01*
X12487Y13668D01*
X12448Y13694D01*
X12402Y13703D01*
X12402Y13703D01*
X10433D01*
X10387Y13694D01*
X10348Y13668D01*
X9167Y12487D01*
X9141Y12448D01*
X9132Y12402D01*
X9132Y12402D01*
Y11852D01*
X9063Y11823D01*
X9000Y11869D01*
Y12625D01*
X10328Y13952D01*
X12901D01*
X13165Y13688D01*
Y13516D01*
X13144Y13504D01*
X13071Y13431D01*
X13019Y13341D01*
X12992Y13241D01*
Y13137D01*
X13019Y13037D01*
X13071Y12947D01*
X13144Y12874D01*
X13234Y12822D01*
X13334Y12795D01*
X13438D01*
X13538Y12822D01*
X13628Y12874D01*
X13701Y12947D01*
X13753Y13037D01*
X13780Y13137D01*
Y13241D01*
X13753Y13341D01*
X13701Y13431D01*
X13628Y13504D01*
X13607Y13516D01*
Y13780D01*
X13590Y13864D01*
X13542Y13936D01*
X13148Y14329D01*
X13077Y14377D01*
X12992Y14394D01*
D02*
G37*
G36*
X3307Y12756D02*
X2205D01*
Y11654D01*
X3307D01*
Y12756D01*
D02*
G37*
G36*
X2874Y10110D02*
Y9689D01*
X3295D01*
X3270Y9784D01*
X3197Y9909D01*
X3094Y10012D01*
X2969Y10084D01*
X2874Y10110D01*
D02*
G37*
G36*
X2638D02*
X2543Y10084D01*
X2417Y10012D01*
X2315Y9909D01*
X2242Y9784D01*
X2217Y9689D01*
X2638D01*
Y10110D01*
D02*
G37*
G36*
X3295Y9453D02*
X2874D01*
Y9032D01*
X2969Y9057D01*
X3094Y9130D01*
X3197Y9232D01*
X3270Y9358D01*
X3295Y9453D01*
D02*
G37*
G36*
X2638D02*
X2217D01*
X2242Y9358D01*
X2315Y9232D01*
X2417Y9130D01*
X2543Y9057D01*
X2638Y9032D01*
Y9453D01*
D02*
G37*
G36*
X3307Y8622D02*
X2205D01*
Y7520D01*
X3307D01*
Y8622D01*
D02*
G37*
G36*
X2874Y5976D02*
Y5555D01*
X3295D01*
X3270Y5650D01*
X3197Y5775D01*
X3094Y5878D01*
X2969Y5951D01*
X2874Y5976D01*
D02*
G37*
G36*
X2638Y5976D02*
X2543Y5951D01*
X2417Y5878D01*
X2315Y5775D01*
X2242Y5650D01*
X2217Y5555D01*
X2638D01*
Y5976D01*
D02*
G37*
G36*
X3295Y5319D02*
X2874D01*
Y4898D01*
X2969Y4923D01*
X3094Y4996D01*
X3197Y5099D01*
X3270Y5224D01*
X3295Y5319D01*
D02*
G37*
G36*
X2638D02*
X2217D01*
X2242Y5224D01*
X2315Y5099D01*
X2417Y4996D01*
X2543Y4923D01*
X2638Y4898D01*
Y5319D01*
D02*
G37*
G36*
X13346Y5988D02*
X12244D01*
Y4886D01*
X13346D01*
Y5988D01*
D02*
G37*
G36*
X12913Y4476D02*
Y4055D01*
X13334D01*
X13309Y4150D01*
X13236Y4275D01*
X13134Y4378D01*
X13008Y4451D01*
X12913Y4476D01*
D02*
G37*
G36*
X12677Y4476D02*
X12583Y4451D01*
X12457Y4378D01*
X12354Y4275D01*
X12282Y4150D01*
X12256Y4055D01*
X12677D01*
Y4476D01*
D02*
G37*
G36*
Y3819D02*
X12256D01*
X12282Y3724D01*
X12354Y3599D01*
X12457Y3496D01*
X12583Y3423D01*
X12677Y3398D01*
Y3819D01*
D02*
G37*
G36*
X13334D02*
X12913D01*
Y3398D01*
X13008Y3423D01*
X13134Y3496D01*
X13236Y3599D01*
X13309Y3724D01*
X13334Y3819D01*
D02*
G37*
G36*
X3307Y4488D02*
X2205D01*
Y3386D01*
X3307D01*
Y4488D01*
D02*
G37*
G36*
X14275Y2677D02*
X14071D01*
X13869Y2645D01*
X13674Y2582D01*
X13492Y2489D01*
X13327Y2369D01*
X13182Y2224D01*
X13062Y2059D01*
X12969Y1877D01*
X12906Y1682D01*
X12874Y1480D01*
Y1276D01*
X12906Y1074D01*
X12969Y879D01*
X13062Y697D01*
X13182Y532D01*
X13327Y387D01*
X13492Y267D01*
X13674Y174D01*
X13869Y111D01*
X14071Y79D01*
X14275D01*
X14477Y111D01*
X14672Y174D01*
X14854Y267D01*
X15020Y387D01*
X15164Y532D01*
X15284Y697D01*
X15377Y879D01*
X15440Y1074D01*
X15472Y1276D01*
Y1480D01*
X15440Y1682D01*
X15377Y1877D01*
X15284Y2059D01*
X15164Y2224D01*
X15020Y2369D01*
X14854Y2489D01*
X14672Y2582D01*
X14477Y2645D01*
X14275Y2677D01*
D02*
G37*
G36*
X1480D02*
X1276D01*
X1074Y2645D01*
X879Y2582D01*
X697Y2489D01*
X532Y2369D01*
X387Y2224D01*
X267Y2059D01*
X174Y1877D01*
X111Y1682D01*
X79Y1480D01*
Y1276D01*
X111Y1074D01*
X174Y879D01*
X267Y697D01*
X387Y532D01*
X532Y387D01*
X697Y267D01*
X879Y174D01*
X1074Y111D01*
X1276Y79D01*
X1480D01*
X1682Y111D01*
X1877Y174D01*
X2059Y267D01*
X2224Y387D01*
X2369Y532D01*
X2489Y697D01*
X2582Y879D01*
X2645Y1074D01*
X2677Y1276D01*
Y1480D01*
X2645Y1682D01*
X2582Y1877D01*
X2489Y2059D01*
X2369Y2224D01*
X2224Y2369D01*
X2059Y2489D01*
X1877Y2582D01*
X1682Y2645D01*
X1480Y2677D01*
D02*
G37*
%LPD*%
G36*
X12598Y13386D02*
Y12992D01*
X12402Y12795D01*
X11024D01*
X10236Y12008D01*
Y3150D01*
X11024Y2362D01*
X12205D01*
X12402Y2165D01*
Y1772D01*
X12205Y1575D01*
X10433D01*
X9252Y2756D01*
Y12402D01*
X10433Y13583D01*
X12402D01*
X12598Y13386D01*
D02*
G37*
D65*
X13386Y13189D02*
Y13780D01*
X10236Y14173D02*
X12992D01*
X13386Y13780D01*
X8780Y12717D02*
X10236Y14173D01*
X8780Y11535D02*
Y12717D01*
X6063Y16535D02*
X7638Y18110D01*
X1575Y16535D02*
X6063D01*
D66*
X6496Y13032D02*
Y14134D01*
X6772Y14409D01*
X7362D01*
X7087Y11417D02*
Y12441D01*
X6496Y13032D02*
X7087Y12441D01*
X6220Y6240D02*
Y9055D01*
D67*
X5390Y5240D02*
X6220D01*
X4921Y5709D02*
X5390Y5240D01*
X4921Y5709D02*
Y13780D01*
X8661Y17520D01*
X12402D01*
D70*
X2756Y9571D02*
D03*
Y13705D02*
D03*
Y5437D02*
D03*
X12795Y3937D02*
D03*
D71*
X2756Y8071D02*
D03*
Y12205D02*
D03*
Y3937D02*
D03*
X12795Y5437D02*
D03*
D72*
X6220Y5240D02*
D03*
D73*
Y6240D02*
D03*
D74*
X1378Y18307D02*
D03*
Y1378D02*
D03*
X14173D02*
D03*
Y18307D02*
D03*
D75*
X15118Y13032D02*
D03*
Y15748D02*
D03*
X12402D02*
D03*
X3740Y1969D02*
D03*
X4921D02*
D03*
X6102D02*
D03*
X11614Y9276D02*
D03*
X12402Y8488D02*
D03*
X9685Y15748D02*
D03*
X6102Y18898D02*
D03*
X4921D02*
D03*
X3740D02*
D03*
X3780Y14567D02*
D03*
X12402Y17520D02*
D03*
X7362Y13406D02*
D03*
X8780Y11535D02*
D03*
X7087Y11417D02*
D03*
X7677Y10039D02*
D03*
X13386Y13189D02*
D03*
X12008Y1969D02*
D03*
X7638Y18110D02*
D03*
X1575Y16535D02*
D03*
X1581Y15748D02*
D03*
X11220Y1969D02*
D03*
X12205Y13189D02*
D03*
X11496D02*
D03*
X4724Y15374D02*
D03*
X6220Y9055D02*
D03*
X8150Y15394D02*
D03*
X7362Y14409D02*
D03*
X12402Y9276D02*
D03*
X11614Y10063D02*
D03*
Y8488D02*
D03*
M02*
