G04*
G04 #@! TF.GenerationSoftware,Altium Limited,Altium Designer,25.0.2 (28)*
G04*
G04 Layer_Color=8421504*
%FSLAX24Y24*%
%MOIN*%
G70*
G04*
G04 #@! TF.SameCoordinates,1A86E40C-C96F-40CC-892B-A9B6597BB8DF*
G04*
G04*
G04 #@! TF.FilePolarity,Positive*
G04*
G01*
G75*
%ADD24R,0.0606X0.0197*%
G04:AMPARAMS|DCode=25|XSize=60.6mil|YSize=19.7mil|CornerRadius=9.8mil|HoleSize=0mil|Usage=FLASHONLY|Rotation=0.000|XOffset=0mil|YOffset=0mil|HoleType=Round|Shape=RoundedRectangle|*
%AMROUNDEDRECTD25*
21,1,0.0606,0.0000,0,0,0.0*
21,1,0.0409,0.0197,0,0,0.0*
1,1,0.0197,0.0205,0.0000*
1,1,0.0197,-0.0205,0.0000*
1,1,0.0197,-0.0205,0.0000*
1,1,0.0197,0.0205,0.0000*
%
%ADD25ROUNDEDRECTD25*%
G04:AMPARAMS|DCode=26|XSize=64.5mil|YSize=19.7mil|CornerRadius=9.8mil|HoleSize=0mil|Usage=FLASHONLY|Rotation=0.000|XOffset=0mil|YOffset=0mil|HoleType=Round|Shape=RoundedRectangle|*
%AMROUNDEDRECTD26*
21,1,0.0645,0.0000,0,0,0.0*
21,1,0.0448,0.0197,0,0,0.0*
1,1,0.0197,0.0224,0.0000*
1,1,0.0197,-0.0224,0.0000*
1,1,0.0197,-0.0224,0.0000*
1,1,0.0197,0.0224,0.0000*
%
%ADD26ROUNDEDRECTD26*%
%ADD27R,0.0645X0.0197*%
%ADD28R,0.0433X0.0236*%
%ADD29R,0.0472X0.0591*%
%ADD30R,0.0591X0.0472*%
%ADD31R,0.0591X0.0394*%
%ADD32R,0.0394X0.0591*%
%ADD33R,0.0551X0.0472*%
%ADD34R,0.0472X0.0551*%
%ADD35R,0.0630X0.0787*%
%ADD36R,0.0472X0.0551*%
%ADD37R,0.0551X0.0472*%
%ADD38R,0.1378X0.2244*%
%ADD39R,0.0480X0.0472*%
%ADD40R,0.0236X0.0433*%
%ADD41R,0.1378X0.0906*%
%ADD42R,0.1181X0.0906*%
D24*
X9646Y11106D02*
D03*
X6567Y13032D02*
D03*
D25*
X9646Y10732D02*
D03*
Y10358D02*
D03*
X10603D02*
D03*
Y10732D02*
D03*
Y11106D02*
D03*
X5512Y13032D02*
D03*
Y13780D02*
D03*
X6567D02*
D03*
Y13406D02*
D03*
D26*
X3609Y16122D02*
D03*
Y15374D02*
D03*
X2690D02*
D03*
Y15748D02*
D03*
D27*
Y16122D02*
D03*
D28*
X6575Y14409D02*
D03*
Y15149D02*
D03*
X5715Y14779D02*
D03*
X6962Y3567D02*
D03*
Y4307D02*
D03*
X6102Y3937D02*
D03*
X9606Y13032D02*
D03*
Y12292D02*
D03*
X10466Y12661D02*
D03*
X6962Y7701D02*
D03*
Y8441D02*
D03*
X6102Y8071D02*
D03*
D29*
X8622Y5831D02*
D03*
X9909D02*
D03*
X14083Y6496D02*
D03*
X12795D02*
D03*
X11510Y17520D02*
D03*
X10222D02*
D03*
X11510Y16654D02*
D03*
X10222D02*
D03*
D30*
X14370Y4146D02*
D03*
Y5433D02*
D03*
D31*
X9567Y8413D02*
D03*
Y7626D02*
D03*
X9331Y18110D02*
D03*
Y17323D02*
D03*
X11024Y5831D02*
D03*
Y5043D02*
D03*
X11496Y13898D02*
D03*
Y14685D02*
D03*
D32*
X12402Y7480D02*
D03*
X11614D02*
D03*
X8622Y4764D02*
D03*
X9409D02*
D03*
D33*
X5512Y12205D02*
D03*
Y11417D02*
D03*
Y16988D02*
D03*
Y16200D02*
D03*
X4724Y16988D02*
D03*
Y16200D02*
D03*
D34*
X984Y14567D02*
D03*
X1772D02*
D03*
X984Y13819D02*
D03*
X1772D02*
D03*
X13295Y8268D02*
D03*
X14083D02*
D03*
X13295Y9055D02*
D03*
X14083D02*
D03*
X11693Y11894D02*
D03*
X10906D02*
D03*
D35*
X10827Y9354D02*
D03*
X9646D02*
D03*
D36*
X8465Y3567D02*
D03*
X7677D02*
D03*
X10197D02*
D03*
X9409D02*
D03*
X8150Y14685D02*
D03*
X8937D02*
D03*
X8937Y13858D02*
D03*
X8150D02*
D03*
X10472Y14685D02*
D03*
X9685D02*
D03*
X8150Y13032D02*
D03*
X8937D02*
D03*
X8465Y6937D02*
D03*
X7677D02*
D03*
X13295Y7480D02*
D03*
X14083D02*
D03*
D37*
X11024Y3346D02*
D03*
Y4134D02*
D03*
X4528Y14567D02*
D03*
Y13780D02*
D03*
Y12992D02*
D03*
Y12205D02*
D03*
X6339Y11417D02*
D03*
Y12205D02*
D03*
X8346Y18110D02*
D03*
Y17323D02*
D03*
X3898Y17756D02*
D03*
Y16968D02*
D03*
X8622Y8413D02*
D03*
Y9201D02*
D03*
Y10732D02*
D03*
Y9945D02*
D03*
D38*
X14665Y11048D02*
D03*
X12815D02*
D03*
D39*
X7677Y4331D02*
D03*
Y5831D02*
D03*
Y7701D02*
D03*
Y9201D02*
D03*
D40*
X6220Y9872D02*
D03*
X6960D02*
D03*
X6590Y10732D02*
D03*
D41*
X4823Y8071D02*
D03*
Y10039D02*
D03*
Y3937D02*
D03*
Y5906D02*
D03*
D42*
X6575Y17953D02*
D03*
Y15984D02*
D03*
M02*
